<svg xmlns="http://www.w3.org/2000/svg" version="1.1" xmlns:xlink="http://www.w3.org/1999/xlink" xmlns:svgjs="http://svgjs.dev/svgjs" viewBox="0 0 800 800"><defs><linearGradient x1="50%" y1="0%" x2="50%" y2="100%" id="ccchaos-grad"><stop stop-color="hsl(206, 75%, 49%)" stop-opacity="1" offset="0%"></stop><stop stop-color="hsl(331, 90%, 56%)" stop-opacity="1" offset="100%"></stop></linearGradient></defs><g stroke-width="2.5" stroke="url(#ccchaos-grad)" fill="none" stroke-linecap="round"><path d="M407.37 -141.96C416.96 -141.58 426.59 -141.22 436.27 -140.9 445.95 -140.84 455.69 -140.77 465.47 -140.67 475.26 -140.73 485.11 -140.66 494.99 -140.41 504.89 -140.13 514.84 -139.56 524.81 -138.63 534.8 -137.52 544.82 -135.98 554.84 -133.97 564.87 -131.7 574.89 -128.95 584.88 -125.74 594.86 -122.29 604.78 -118.44 614.63 -114.24 624.41 -109.93 634.08 -105.37 643.61 -100.64 653.02 -95.96 662.23 -91.23 671.21 -86.49 680.02 -81.96 688.54 -77.5 696.72 -73.13 704.66 -69.06 712.21 -65.09 719.33 -61.21 726.14 -57.6 732.48 -54.03 738.3 -50.46 746.27 -45.27 758.96 -34.21 763.71 -28.02 767.55 -21.26 772.85 -5.41 774.63 3.76 775.82 10.31 776.91 17.26 778.01 24.59 779.45 32.17 781.08 40.08 783 48.27 785.52 56.62 788.53 65.19 792.09 73.93 796.48 82.74 801.55 91.64 807.37 100.61 814.09 109.54 821.59 118.48 829.84 127.42 838.9 136.25 848.62 145.03 858.89 153.76 869.7 162.35 880.81 170.87 892.07 179.34 903.4 187.65 914.52 195.91 925.23 204.14 935.45 212.22 944.88 220.28 953.3 228.34 960.71 236.28 966.81 244.24 971.46 252.25 974.76 260.16 976.47 268.13 976.54 276.2 975.26 284.19 972.44 292.28 968.19 300.5 962.95 308.67 956.63 316.97 949.43 325.43 941.92 333.85 934.07 342.44 926.16 351.2 918.76 359.94 911.86 368.86 905.73 377.97 900.86 387.07 897.17 396.37 894.83 405.88 894.16 415.39 894.95 424.99 897.14 434.7 900.87 444.41 905.73 454.22 911.52 464.13 918.28 474.05 925.48 484.07 932.84 494.18 940.39 504.29 947.55 514.49 954.08 524.75 960.01 535 964.85 545.3 968.42 555.62 970.86 565.9 971.78 576.17 971.15 586.39 969.17 596.52 965.62 606.54 960.59 616.42 954.35 626.12 946.82 635.61 938.18 644.8 928.72 653.74 918.47 662.32 907.65 670.46 896.52 678.25 885.17 685.53 873.8 692.24 862.63 698.53 851.73 704.21 841.24 709.23 831.35 713.83 822.06 717.79 813.42 721.1 805.6 724.09 798.5 726.53 792.11 728.49 784.12 731.12 772.29 735.73 768.03 738.52 764.84 742.64 759.54 755.58 756.93 765.08 755.19 772.88 753.19 781.73 750.86 791.58 748.4 802.42 745.53 814.06 742.21 826.33 738.66 839.05 734.61 851.95 730.06 864.74 725.24 877.15 719.91 888.85 714.1 899.51 708.01 908.95 701.46 916.82 694.48 922.89 687.25 927.21 679.63 929.51 671.67 929.79 663.5 928.39 655.04 925.25 646.31 920.61 637.44 915.11 628.35 908.86 619.08 902.29 609.71 896.18 600.21 890.69 590.59 886.3 580.92 883.64 571.16 882.79 561.35 883.98 551.52 887.52 541.65 893.2 531.76 900.88 521.87 910.43 511.97 921.31 502.08 933.03 492.19 945.14 482.32 956.91 472.47 967.7 462.63 977.07 452.81 984.35 443.02 989.08 433.23 991.21 423.47 990.36 413.74 986.55 404.01 980.27 394.41 971.69 384.95 961.39 375.47 950.13 366.13 938.4 356.9 926.87 347.66 916.31 338.53 907.09 329.5 899.66 320.45 894.5 311.5 891.6 302.64 890.96 293.74 892.71 284.93 896.38 276.2 901.59 267.43 908.21 258.72 915.44 250.08 922.77 241.39 929.98 232.77 936.29 224.2 941.26 215.58 944.83 207.01 946.42 198.5 945.88 189.94 943.37 181.43 938.66 172.99 931.91 164.5 923.45 156.07 913.38 147.72 902.05 139.35 889.87 131.05 877.11 122.86 864.15 114.66 851.37 106.57 839.02 98.61 827.38 90.66 816.72 82.87 807.15 75.23 798.75 67.65 791.7 60.24 785.87 53.02 781.2 45.88 777.78 38.94 775.3 32.21 773.58 25.57 772.69 19.15 772.21 12.94 771.93 3.86 771.88 -13.16 770.08 -21.17 767.53 -26.43 765.1 -31.55 761.85 -36.52 757.76 -41.52 753.04 -46.41 747.48 -51.2 741.11 -56.06 734.13 -60.84 726.43 -65.54 718.08 -70.33 709.25 -75.04 699.9 -79.66 690.11 -84.36 680 -88.95 669.59 -93.4 658.95 -97.89 648.14 -102.2 637.21 -106.3 626.23 -110.37 615.18 -114.17 604.16 -117.69 593.19 -121.1 582.24 -124.17 571.39 -126.88 560.66 -129.44 549.99 -131.62 539.45 -133.41 529.05 -135.05 518.72 -136.32 508.52 -137.24 498.46 -138.06 488.46 -138.58 478.57 -138.84 468.81 -139.09 459.09 -139.16 449.46 -139.07 439.94 -139.1 430.44 -139.06 421.01 -138.96 411.67 -139.06 402.34 -139.15 393.08 -139.24 383.88 -139.55 374.68 -139.84 365.66 -140.09 356.81 -140.5 347.95 -140.8 339.26 -140.97 330.74 -141.19 322.22 -141.19 313.87 -140.93 305.69 -140.61 297.5 -139.96 289.5 -138.96 281.66 -137.82 273.82 -136.28 266.15 -134.36 258.66 -132.26 251.14 -129.78 243.79 -126.92 236.6 -123.92 229.37 -120.59 222.28 -116.96 215.32 -113.25 208.3 -109.29 201.38 -105.12 194.55 -100.95 187.6 -96.62 180.72 -92.15 173.87 -87.74 166.87 -83.24 159.86 -78.65 152.83 -74.15 145.61 -69.57 138.34 -64.92 131 -60.36 123.44 -55.71 115.79 -50.97 108.05 -46.28 100.1 -41.47 92.07 -36.52 83.96 -31.58 75.69 -26.48 67.38 -21.19 59.06 -15.87 50.67 -10.35 42.34 -4.61 34.11 1.18 25.92 7.2 17.92 13.45 10.15 19.78 2.55 26.33 -4.72 33.1 -11.64 39.94 -18.3 46.98 -24.55 54.21 -30.36 61.5 -35.87 68.96 -40.94 76.58 -45.57 84.22 -49.95 91.99 -53.95 99.89 -57.59 107.78 -61.11 115.78 -64.38 123.86 -67.44 131.91 -70.54 140.04 -73.56 148.24 -76.52 156.39 -79.69 164.59 -82.89 172.86 -86.16 181.05 -89.72 189.31 -93.37 197.61 -97.1 205.85 -101.09 214.15 -105.13 222.5 -109.16 230.79 -113.33 239.14 -117.39 247.56 -121.28 255.93 -125.14 264.37 -128.71 272.89 -131.94 281.36 -134.97 289.92 -137.58 298.58 -139.72 307.2 -141.59 315.92 -142.99 324.76 -143.92 333.57 -144.62 342.49 -144.91 351.54 -144.84 360.57 -144.69 369.74 -144.28 379.04 -143.67 388.33 -143.17 397.77 -142.59 407.36 -141.96" stroke-dasharray="11 9" transform="rotate(0, 400, 400)" opacity="0.92"></path><path d="M415.13 -120.26C424.52 -119.82 433.93 -119.44 443.35 -119.13 452.78 -119.1 462.24 -119.1 471.7 -119.11 481.17 -119.29 490.66 -119.37 500.15 -119.3 509.64 -119.23 519.13 -118.88 528.61 -118.2 538.08 -117.34 547.52 -116.06 556.91 -114.32 566.28 -112.31 575.59 -109.81 584.81 -106.84 593.97 -103.59 603.02 -99.92 611.93 -95.86 620.74 -91.64 629.38 -87.13 637.8 -82.4 646.09 -77.68 654.13 -72.85 661.87 -67.98 669.44 -63.28 676.68 -58.63 683.55 -54.05 690.19 -49.75 696.44 -45.57 702.25 -41.51 710.37 -35.9 723.94 -25.34 729.37 -20.17 734.05 -15.02 741.24 -3.65 743.98 2.8 746.56 9.9 751.6 26.42 754.51 35.88 756.94 42.58 759.68 49.65 762.81 57.06 766.58 64.69 770.86 72.62 775.72 80.8 781.35 89.13 787.61 97.66 794.54 106.34 802.24 115.08 810.57 123.93 819.49 132.84 829.04 141.74 839.03 150.67 849.38 159.6 860.04 168.47 870.79 177.32 881.5 186.13 892.08 194.85 902.29 203.53 911.94 212.17 921 220.7 929.19 229.2 936.34 237.68 942.48 246.05 947.34 254.41 950.82 262.77 953.08 271.05 953.87 279.35 953.19 287.68 951.33 295.94 948.13 304.26 943.7 312.65 938.44 320.98 932.28 329.41 925.4 337.93 918.33 346.42 911 355.03 903.68 363.76 896.88 372.47 890.56 381.32 884.95 390.32 880.49 399.31 877.11 408.45 874.94 417.75 874.28 427.06 874.93 436.41 876.84 445.82 880.14 455.22 884.49 464.68 889.69 474.17 895.82 483.66 902.39 493.18 909.18 502.71 916.21 512.23 922.98 521.74 929.25 531.22 935.09 540.66 940.02 550.05 943.88 559.35 946.8 568.56 948.4 577.65 948.62 586.57 947.64 595.36 945.24 603.92 941.45 612.21 936.52 620.31 930.34 628.09 923.03 635.49 914.86 642.64 905.82 649.35 896.08 655.6 885.91 661.56 875.34 667.01 864.55 671.94 853.77 676.58 843.04 680.7 832.52 684.31 822.37 687.71 812.62 690.66 803.36 693.21 794.72 695.7 786.67 697.93 779.22 699.99 772.49 702.23 766.38 704.5 760.84 706.91 753.83 711.45 742.89 723.99 738.59 732.6 736.18 739.55 733.87 747.36 731.58 756.05 729.48 765.64 727.28 776.02 724.91 787.09 722.57 798.74 719.96 810.78 717.04 823.02 714.03 835.24 710.64 847.2 706.87 858.62 702.92 869.31 698.55 878.96 693.76 887.33 688.76 894.34 683.35 899.72 677.52 903.35 671.5 905.36 665.09 905.6 658.31 904.12 651.36 901.35 644.07 897.26 636.49 892.13 628.76 886.59 620.76 880.73 612.54 874.95 604.2 869.93 595.66 865.79 586.95 862.89 578.17 861.77 569.25 862.4 560.21 864.95 551.12 869.6 541.94 876.12 532.69 884.32 523.41 894.06 514.08 904.81 504.7 916.1 495.31 927.57 485.89 938.54 476.45 948.46 467 956.99 457.54 963.52 448.07 967.67 438.6 969.44 429.12 968.5 419.64 964.85 410.15 958.95 400.77 950.95 391.48 941.32 382.2 930.75 373.01 919.67 363.91 908.64 354.81 898.36 345.79 889.17 336.86 881.47 327.9 875.74 319.03 872.01 310.23 870.32 301.4 870.84 292.64 873.21 283.95 877.15 275.23 882.58 266.57 888.85 257.96 895.51 249.32 902.39 240.74 908.78 232.21 914.26 223.65 918.76 215.14 921.69 206.7 922.84 198.22 922.3 189.81 919.78 181.47 915.31 173.1 909.15 164.82 901.29 156.62 891.96 148.42 881.52 140.32 870.14 132.33 858.15 124.36 845.89 116.51 833.6 108.81 821.56 101.15 810.04 93.64 799.21 86.3 789.23 79.03 780.27 71.93 772.35 65.03 765.48 58.21 759.77 51.59 755.05 45.18 751.22 38.85 748.37 32.73 746.17 26.81 744.49 18.14 742.97 1.84 740.62 -5.83 738.97 -13.35 736.63 -27.75 728.46 -34.7 722.38 -39.36 717.62 -43.93 712.16 -48.41 706.04 -52.96 699.46 -57.41 692.29 -61.77 684.58 -66.18 676.48 -70.47 667.94 -74.62 659.03 -78.79 649.84 -82.78 640.37 -86.57 630.68 -90.33 620.82 -93.84 610.83 -97.08 600.74 -100.24 590.57 -103.1 580.37 -105.64 570.18 -108.06 559.96 -110.15 549.78 -111.9 539.67 -113.53 529.57 -114.85 519.55 -115.86 509.64 -116.79 499.74 -117.47 489.95 -117.9 480.26 -118.34 470.6 -118.59 461.05 -118.69 451.61 -118.88 442.18 -118.98 432.86 -118.99 423.64 -119.16 414.43 -119.28 405.32 -119.35 396.31 -119.6 387.3 -119.78 378.49 -119.9 369.87 -120.14 361.25 -120.26 352.81 -120.23 344.56 -120.25 336.29 -120.06 328.2 -119.64 320.29 -119.17 312.36 -118.41 304.58 -117.34 296.97 -116.17 289.33 -114.66 281.83 -112.8 274.48 -110.82 267.07 -108.49 259.78 -105.84 252.6 -103.08 245.35 -100.01 238.19 -96.67 231.09 -93.27 223.9 -89.63 216.74 -85.77 209.62 -81.92 202.36 -77.9 195.1 -73.73 187.82 -69.61 180.37 -65.37 172.89 -61.03 165.35 -56.76 157.63 -52.4 149.84 -47.96 141.97 -43.58 133.94 -39.11 125.84 -34.53 117.68 -30.01 109.39 -25.36 101.06 -20.58 92.73 -15.82 84.34 -10.89 75.99 -5.8 67.72 -0.68 59.49 4.61 51.41 10.11 43.53 15.68 35.79 21.45 28.32 27.42 21.16 33.48 14.24 39.75 7.68 46.23 1.53 52.79 -4.32 59.54 -9.77 66.49 -14.78 73.51 -19.52 80.7 -23.86 88.05 -27.81 95.45 -31.58 103 -35.04 110.68 -38.22 118.38 -41.37 126.2 -44.34 134.12 -47.2 142.04 -50.18 150.04 -53.14 158.13 -56.11 166.19 -59.35 174.32 -62.66 182.51 -66.08 190.66 -69.79 198.88 -73.61 207.14 -77.52 215.36 -81.66 223.64 -85.83 231.97 -89.97 240.24 -94.21 248.58 -98.32 256.98 -102.22 265.33 -106.04 273.74 -109.55 282.23 -112.68 290.67 -115.58 299.19 -118.03 307.79 -120 316.35 -121.69 325.01 -122.89 333.76 -123.61 342.48 -124.11 351.31 -124.2 360.24 -123.94 369.16 -123.6 378.18 -123.03 387.33 -122.28 396.47 -121.65 405.73 -120.96 415.12 -120.26" stroke-dasharray="3 4" transform="rotate(4.04, 400, 400)" opacity="0.51"></path><path d="M420.45 -98.55C429.58 -98.07 438.69 -97.67 447.78 -97.35 456.88 -97.35 465.95 -97.4 475 -97.48 484.05 -97.76 493.07 -97.97 502.04 -98.06 511.01 -98.17 519.93 -98.04 528.78 -97.59 537.6 -96.99 546.35 -95.98 555 -94.53 563.6 -92.81 572.08 -90.59 580.42 -87.9 588.69 -84.92 596.79 -81.48 604.7 -77.63 612.5 -73.57 620.08 -69.19 627.41 -64.53 634.6 -59.83 641.51 -54.97 648.1 -50.01 654.54 -45.17 660.63 -40.34 666.37 -35.55 671.92 -31.01 677.09 -26.58 681.88 -22.26 688.58 -16.3 699.82 -5.32 704.43 -0.14 708.58 4.79 715.59 15.12 718.72 20.75 722.02 26.81 729.37 40.8 733.79 48.86 737.32 54.59 741.21 60.7 745.54 67.17 750.48 73.88 755.94 80.92 761.93 88.27 768.6 95.83 775.82 103.65 783.59 111.7 791.98 119.9 800.84 128.27 810.13 136.8 819.84 145.4 829.82 154.11 839.95 162.89 850.2 171.69 860.37 180.53 870.32 189.4 879.99 198.24 889.17 207.08 897.69 215.91 905.55 224.69 912.5 233.45 918.4 242.2 923.33 250.88 927.05 259.54 929.47 268.19 930.79 276.77 930.79 285.36 929.48 293.94 927.17 302.47 923.69 311.02 919.15 319.58 913.96 328.11 908.01 336.68 901.49 345.29 894.86 353.88 888.07 362.52 881.32 371.23 875.09 379.93 869.32 388.7 864.21 397.55 860.16 406.39 857.07 415.32 855.05 424.34 854.41 433.36 854.93 442.35 856.57 451.32 859.49 460.29 863.34 469.22 867.99 478.11 873.51 486.99 879.48 495.8 885.68 504.54 892.19 513.25 898.53 521.86 904.49 530.34 910.16 538.77 915.1 547.04 919.14 555.13 922.41 563.13 924.55 570.9 925.48 578.42 925.38 585.81 923.99 592.91 921.34 599.67 917.63 606.27 912.72 612.51 906.72 618.37 899.85 624.03 892.06 629.29 883.51 634.13 874.42 638.79 864.8 643.04 854.81 646.9 844.66 650.63 834.39 654.02 824.13 657.1 814.05 660.18 804.18 663.05 794.61 665.77 785.49 668.68 776.79 671.58 768.56 674.59 760.92 677.99 753.8 681.65 747.19 685.68 741.19 690.33 735.68 695.5 730.62 701.27 726.11 707.81 721.98 715.04 718.15 722.99 714.75 731.73 711.57 741.15 708.52 751.22 705.76 761.88 703.03 772.99 700.27 784.42 697.65 796.04 694.92 807.65 692.01 819.04 689.12 830.05 685.99 840.43 682.59 849.97 679.11 858.54 675.32 865.9 671.2 871.87 664.66 878.01 649.6 880.37 641.1 876.92 635.17 873.28 628.92 868.74 622.36 863.58 615.67 858.4 608.7 853.26 601.47 848.52 594.13 844.77 586.56 842.05 578.78 840.65 570.91 840.98 562.86 842.98 554.64 846.71 546.37 852.29 537.95 859.46 529.41 868.01 520.84 877.78 512.15 888.27 503.37 899.07 494.58 909.84 485.7 920 476.76 929.07 467.8 936.78 458.79 942.6 449.72 946.22 440.65 947.66 431.53 946.63 422.37 943.15 413.21 937.62 404.11 930.16 395.07 921.19 386.04 911.31 377.07 900.87 368.16 890.36 359.25 880.42 350.4 871.33 341.61 863.48 332.81 857.3 324.07 852.86 315.39 850.24 306.69 849.64 298.04 850.78 289.45 853.45 280.85 857.67 272.29 862.85 263.78 868.65 255.26 874.96 246.79 881.12 238.38 886.75 229.96 891.79 221.59 895.66 213.29 898.12 204.98 899.23 196.74 898.62 188.59 896.25 180.44 892.31 172.37 886.69 164.41 879.53 156.47 871.11 148.64 861.53 140.93 851.03 133.27 839.91 125.74 828.37 118.36 816.66 111.04 805.06 103.88 793.72 96.89 782.85 89.98 772.65 83.25 763.18 76.71 754.53 70.25 746.84 63.99 740.03 57.92 734.1 51.94 729.13 46.14 724.93 40.54 721.39 32.33 717.46 16.86 712.09 9.55 709.93 2.39 707.85 -11.32 702.06 -17.94 697.95 -22.36 694.75 -26.69 691.01 -30.93 686.7 -35.22 682.04 -39.41 676.83 -43.49 671.07 -47.62 664.98 -51.63 658.39 -55.49 651.36 -59.36 644.03 -63.07 636.32 -66.58 628.28 -70.07 620.02 -73.33 611.5 -76.35 602.75 -79.31 593.86 -82 584.82 -84.41 575.65 -86.73 566.4 -88.76 557.09 -90.5 547.73 -92.16 538.34 -93.53 528.94 -94.64 519.55 -95.69 510.16 -96.51 500.8 -97.1 491.5 -97.7 482.2 -98.12 472.96 -98.39 463.8 -98.72 454.65 -98.93 445.57 -99.04 436.57 -99.26 427.58 -99.4 418.67 -99.46 409.84 -99.65 401.01 -99.75 392.37 -99.74 383.9 -99.83 375.42 -99.79 367.12 -99.59 358.98 -99.42 350.82 -99.06 342.81 -98.47 334.94 -97.86 327.05 -96.99 319.29 -95.85 311.65 -94.63 303.96 -93.11 296.38 -91.3 288.89 -89.39 281.34 -87.19 273.86 -84.69 266.44 -82.12 258.93 -79.27 251.46 -76.18 244.01 -73.04 236.45 -69.68 228.89 -66.12 221.32 -62.56 213.62 -58.83 205.89 -54.95 198.13 -51.11 190.22 -47.15 182.27 -43.08 174.26 -39.06 166.13 -34.94 157.95 -30.73 149.73 -26.57 141.42 -22.31 133.09 -17.95 124.76 -13.63 116.4 -9.19 108.08 -4.62 99.84 -0.07 91.63 4.63 83.57 9.49 75.67 14.37 67.9 19.43 60.37 24.66 53.12 29.95 46.07 35.44 39.36 41.12 33 46.88 26.91 52.83 21.22 58.99 15.92 65.23 10.9 71.66 6.27 78.28 2.04 84.98 -1.97 91.86 -5.66 98.91 -9.03 106.01 -12.3 113.28 -15.34 120.68 -18.21 128.13 -21.12 135.7 -23.95 143.4 -26.74 151.11 -29.72 158.92 -32.74 166.83 -35.84 174.73 -39.22 182.72 -42.72 190.78 -46.34 198.83 -50.26 206.94 -54.27 215.11 -58.35 223.25 -62.64 231.46 -66.93 239.71 -71.15 247.94 -75.42 256.22 -79.52 264.56 -83.38 272.86 -87.11 281.22 -90.5 289.64 -93.48 298.03 -96.21 306.48 -98.47 314.99 -100.24 323.49 -101.7 332.05 -102.69 340.69 -103.21 349.31 -103.5 358 -103.4 366.78 -102.95 375.55 -102.45 384.41 -101.73 393.35 -100.85 402.29 -100.1 411.32 -99.32 420.44 -98.56" stroke-dasharray="10 15" transform="rotate(8.08, 400, 400)" opacity="0.11"></path><path d="M422.49 -76.85C431.27 -76.32 440.01 -75.89 448.68 -75.57 457.36 -75.57 465.98 -75.66 474.53 -75.79 483.07 -76.15 491.54 -76.47 499.92 -76.69 508.28 -76.96 516.54 -77.02 524.7 -76.8 532.82 -76.44 540.81 -75.71 548.66 -74.55 556.46 -73.14 564.1 -71.24 571.55 -68.87 578.93 -66.2 586.1 -63.06 593.05 -59.48 599.9 -55.66 606.5 -51.47 612.84 -46.97 619.06 -42.36 624.99 -37.54 630.62 -32.57 636.12 -27.65 641.31 -22.69 646.17 -17.73 650.9 -12.96 655.31 -8.27 659.39 -3.69 665.2 2.7 675.25 14.44 679.6 19.85 683.78 24.87 691.67 34.78 695.62 39.9 700.01 45.2 710.11 57.12 716.12 63.89 720.72 68.7 725.71 73.85 731.13 79.33 737.1 85.03 743.53 91.07 750.44 97.44 757.89 104.02 765.79 110.9 774.11 118.06 782.88 125.41 791.97 132.99 801.32 140.79 810.91 148.73 820.6 156.85 830.26 165.11 839.89 173.46 849.28 181.91 858.31 190.45 866.97 199.04 875.04 207.69 882.39 216.37 889.04 225.06 894.78 233.77 899.5 242.49 903.3 251.2 905.97 259.9 907.45 268.6 907.96 277.28 907.29 285.94 905.47 294.6 902.8 303.23 899.14 311.85 894.59 320.46 889.52 329.06 883.84 337.65 877.7 346.24 871.53 354.82 865.26 363.41 859.08 372 853.4 380.59 848.16 389.19 843.52 397.81 839.84 406.42 837.03 415.04 835.17 423.68 834.53 432.31 834.94 440.84 836.34 449.27 838.89 457.7 842.29 466.01 846.41 474.2 851.36 482.37 856.73 490.4 862.37 498.27 868.34 506.11 874.22 513.77 879.84 521.24 885.28 528.65 890.13 535.84 894.24 542.79 897.76 549.66 900.3 556.27 901.81 562.59 902.45 568.81 901.94 574.72 900.29 580.32 897.69 585.82 893.98 590.98 889.22 595.82 883.61 600.57 877.1 605 869.77 609.13 861.84 613.22 853.3 617.05 844.28 620.65 834.97 624.29 825.39 627.78 815.65 631.18 805.93 634.75 796.25 638.33 786.69 641.98 777.41 645.97 768.39 650.17 759.7 654.65 751.44 659.62 743.59 664.99 736.15 670.84 729.22 677.29 722.72 684.29 716.63 691.87 711.05 700.08 705.84 708.87 700.98 718.21 696.55 728.07 692.39 738.37 688.44 749.02 684.83 759.91 681.36 770.92 677.96 781.89 674.78 792.69 671.6 803.14 668.37 813.04 665.26 822.3 662.02 830.69 658.62 838.04 653.46 846.85 641.95 855.98 635.49 856.16 631.01 854.77 626.24 852.23 621.18 848.71 616.03 844.69 610.58 840.15 604.84 835.36 599.01 830.88 592.9 826.73 586.53 823.21 580.07 820.82 573.37 819.54 566.43 819.58 559.42 821.26 552.2 824.46 544.78 829.19 537.31 835.52 529.66 843.16 521.85 851.88 514 861.54 506 871.67 497.86 881.9 489.71 891.95 481.43 901.29 473.04 909.52 464.64 916.45 456.14 921.6 447.55 924.72 438.95 925.87 430.27 924.77 421.5 921.45 412.74 916.28 404 909.35 395.29 901.01 386.59 891.8 377.92 882 369.28 872.04 360.64 862.47 352.04 853.56 343.48 845.65 334.92 839.15 326.4 834.13 317.91 830.7 309.43 829.09 300.99 829.08 292.59 830.54 284.18 833.52 275.83 837.56 267.52 842.37 259.21 847.9 250.96 853.56 242.76 859.02 234.57 864.24 226.45 868.66 218.39 872.04 210.35 874.41 202.39 875.36 194.52 874.8 186.68 872.89 178.93 869.4 171.3 864.41 163.71 858.14 156.23 850.59 148.89 841.94 141.61 832.44 134.47 822.22 127.48 811.49 120.57 800.5 113.81 789.41 107.23 778.41 100.73 767.69 94.41 757.37 88.27 747.58 82.21 738.45 76.34 730.01 70.65 722.28 65.04 715.38 59.61 709.21 54.35 703.74 49.15 699.04 44.12 694.93 39.25 691.32 32.07 686.98 18.4 680.09 11.88 677 5.43 673.98 -7.03 666.65 -13.05 662.04 -19.05 656.75 -30.57 643.6 -36.04 635.74 -39.66 630.12 -43.11 624.1 -46.39 617.7 -49.65 611.09 -52.71 604.14 -55.56 596.9 -58.36 589.5 -60.92 581.85 -63.24 573.98 -65.5 566 -67.51 557.85 -69.25 549.56 -70.94 541.2 -72.39 532.74 -73.59 524.2 -74.75 515.62 -75.7 506.99 -76.44 498.34 -77.18 489.67 -77.75 480.98 -78.15 472.3 -78.6 463.62 -78.92 454.95 -79.11 446.3 -79.38 437.65 -79.53 429.03 -79.58 420.44 -79.71 411.85 -79.73 403.38 -79.62 395.05 -79.57 386.7 -79.38 378.48 -79.03 370.37 -78.7 362.25 -78.17 354.22 -77.45 346.3 -76.7 338.34 -75.72 330.47 -74.49 322.67 -73.21 314.82 -71.68 307.04 -69.88 299.29 -68.02 291.49 -65.9 283.72 -63.52 275.96 -61.09 268.13 -58.42 260.3 -55.53 252.46 -52.61 244.54 -49.49 236.59 -46.18 228.62 -42.88 220.56 -39.42 212.47 -35.82 204.35 -32.25 196.15 -28.55 187.92 -24.74 179.67 -20.98 171.38 -17.12 163.08 -13.15 154.81 -9.23 146.52 -5.21 138.29 -1.09 130.15 2.99 122.05 7.19 114.08 11.51 106.27 15.83 98.59 20.28 91.12 24.87 83.89 29.49 76.86 34.27 70.12 39.21 63.71 44.2 57.54 49.37 51.72 54.72 46.28 60.14 41.09 65.76 36.27 71.56 31.84 77.43 27.61 83.5 23.74 89.76 20.19 96.09 16.76 102.6 13.6 109.29 10.66 116.04 7.73 122.95 4.93 130.02 2.23 137.14 -0.6 144.4 -3.43 151.78 -6.29 159.21 -9.39 166.75 -12.58 174.39 -15.89 182.06 -19.5 189.82 -23.23 197.66 -27.08 205.51 -31.21 213.43 -35.41 221.43 -39.65 229.41 -44.06 237.46 -48.41 245.57 -52.67 253.67 -56.92 261.82 -60.96 270.01 -64.72 278.2 -68.31 286.44 -71.52 294.72 -74.31 302.99 -76.82 311.31 -78.85 319.68 -80.39 328.04 -81.62 336.45 -82.38 344.91 -82.69 353.37 -82.77 361.88 -82.48 370.44 -81.87 379 -81.22 387.62 -80.37 396.29 -79.38 404.96 -78.53 413.69 -77.68 422.48 -76.85" stroke-dasharray="20 2" transform="rotate(12.12, 400, 400)" opacity="0.83"></path><path d="M420.9 -55.15C429.27 -54.58 437.56 -54.12 445.76 -53.79 453.96 -53.79 462.05 -53.88 470.05 -54.06 478.03 -54.47 485.9 -54.86 493.65 -55.2 501.38 -55.6 508.97 -55.83 516.42 -55.81 523.83 -55.69 531.09 -55.22 538.16 -54.36 545.19 -53.26 552.03 -51.7 558.67 -49.68 565.24 -47.35 571.59 -44.56 577.71 -41.31 583.75 -37.79 589.54 -33.88 595.08 -29.61 600.53 -25.19 605.72 -20.5 610.63 -15.6 615.46 -10.69 620.03 -5.68 624.32 -0.61 628.54 4.31 632.51 9.22 636.24 14.06 641.67 20.91 651.56 33.59 656.17 39.41 660.84 44.75 670.35 54.86 675.42 59.82 681.08 64.71 694.03 75.21 701.53 81 707.1 85.03 713.03 89.34 719.35 93.93 726.13 98.69 733.3 103.74 740.84 109.1 748.8 114.65 757.08 120.5 765.64 126.64 774.49 132.96 783.52 139.56 792.64 146.4 801.85 153.41 811 160.64 819.99 168.06 828.81 175.63 837.29 183.35 845.3 191.22 852.87 199.18 859.79 207.26 865.97 215.42 871.45 223.65 876.04 231.94 879.65 240.28 882.43 248.66 884.16 257.07 884.82 265.5 884.64 273.94 883.42 282.39 881.21 290.84 878.3 299.29 874.54 307.73 870.04 316.16 865.16 324.58 859.78 332.99 854.04 341.37 848.34 349.76 842.59 358.11 836.95 366.44 831.81 374.77 827.07 383.06 822.87 391.32 819.55 399.58 816.99 407.79 815.28 415.96 814.66 424.12 814.96 432.13 816.14 439.98 818.36 447.83 821.33 455.5 824.96 463 829.35 470.48 834.16 477.77 839.24 484.86 844.68 491.92 850.09 498.77 855.32 505.39 860.47 511.97 865.16 518.31 869.27 524.4 874.32 533.34 879.04 549.87 878.38 557.45 876.77 562.4 874.14 567.1 870.53 571.58 866.13 576.08 860.84 580.38 854.74 584.53 848.02 588.75 840.63 592.88 832.68 596.95 824.36 601.19 815.65 605.45 806.66 609.79 797.54 614.41 788.32 619.2 779.08 624.22 769.94 629.63 760.93 635.36 752.09 641.45 743.54 648.02 735.25 655.02 727.28 662.47 719.69 670.43 712.44 678.84 705.55 687.69 699.08 696.98 692.95 706.64 687.15 716.6 681.75 726.82 676.64 737.17 671.77 747.57 667.26 757.9 662.93 768.04 658.76 777.83 654.85 787.18 651.02 795.93 647.24 803.91 641.82 814.21 630.89 827.93 625.21 830.99 619.43 831.32 606.88 825.44 600.05 820.05 595.37 816.1 590.45 811.96 585.29 807.89 580.07 804.37 574.6 801.39 568.89 799.19 563.13 798.18 557.13 798.29 550.9 799.67 544.61 802.56 538.11 806.79 531.41 812.33 524.65 819.2 517.71 827.12 510.58 835.87 503.41 845.29 496.08 854.97 488.58 864.57 481.06 873.86 473.4 882.39 465.59 889.82 457.77 895.99 449.82 900.52 441.75 903.18 433.67 904.06 425.48 902.9 417.18 899.74 408.88 894.93 400.57 888.5 392.27 880.77 383.97 872.22 375.67 863.05 367.39 853.65 359.12 844.51 350.86 835.84 342.62 827.96 334.39 821.24 326.18 815.77 318 811.67 309.83 809.17 301.69 808.11 293.59 808.44 285.5 810.22 277.45 813.09 269.45 816.82 261.47 821.41 253.53 826.35 245.67 831.37 237.82 836.44 230.04 841.04 222.34 844.94 214.68 848.17 207.1 850.3 199.61 851.21 192.18 851.01 184.84 849.42 177.62 846.46 170.46 842.31 163.43 836.86 156.53 830.23 149.7 822.65 143.01 814.15 136.48 804.9 130.03 795.12 123.73 784.93 117.61 774.5 111.56 764.01 105.68 753.59 99.98 743.38 94.35 733.51 88.89 724.06 83.61 715.11 78.38 706.74 73.33 698.97 68.44 691.8 63.59 685.3 58.89 679.39 54.35 674.02 47.62 667.13 34.8 656.05 28.67 651.45 22.6 647.41 10.87 639.45 5.22 635.2 -0.41 630.7 -11.21 620.12 -16.33 613.92 -19.73 609.53 -22.98 604.78 -26.06 599.69 -29.15 594.44 -32.05 588.87 -34.76 582.97 -37.44 576.94 -39.92 570.62 -42.18 564.04 -44.4 557.35 -46.4 550.42 -48.17 543.28 -49.91 536.06 -51.42 528.66 -52.71 521.1 -53.98 513.49 -55.04 505.75 -55.91 497.9 -56.78 490.02 -57.47 482.05 -57.99 474 -58.54 465.94 -58.94 457.81 -59.19 449.63 -59.49 441.45 -59.66 433.22 -59.69 424.95 -59.78 416.68 -59.72 408.46 -59.52 400.3 -59.36 392.14 -59.04 384.04 -58.55 375.99 -58.08 367.92 -57.41 359.9 -56.56 351.93 -55.68 343.93 -54.6 335.96 -53.29 328.02 -51.95 320.05 -50.37 312.09 -48.57 304.14 -46.73 296.15 -44.66 288.16 -42.37 280.16 -40.05 272.12 -37.52 264.06 -34.78 255.99 -32.04 247.87 -29.12 239.73 -26.03 231.59 -22.95 223.41 -19.72 215.22 -16.36 207.03 -13.04 198.83 -9.59 190.66 -6.03 182.52 -2.52 174.4 1.09 166.34 4.81 158.38 8.48 150.48 12.25 142.71 16.12 135.1 19.96 127.61 23.91 120.31 27.97 113.24 32.02 106.35 36.2 99.73 40.52 93.39 44.84 87.28 49.31 81.48 53.94 76.02 58.6 70.79 63.43 65.91 68.43 61.37 73.49 57.05 78.73 53.05 84.14 49.37 89.63 45.83 95.3 42.55 101.14 39.52 107.06 36.53 113.16 33.7 119.43 31.01 125.77 28.23 132.27 25.5 138.93 22.79 145.65 19.88 152.52 16.92 159.52 13.87 166.58 10.54 173.76 7.1 181.05 3.52 188.38 -0.33 195.82 -4.31 203.34 -8.4 210.9 -12.71 218.53 -17.07 226.24 -21.44 233.97 -25.9 241.77 -30.28 249.62 -34.5 257.48 -38.67 265.4 -42.59 273.37 -46.19 281.34 -49.58 289.36 -52.57 297.42 -55.12 305.47 -57.38 313.57 -59.15 321.71 -60.44 329.84 -61.42 338.02 -61.95 346.22 -62.04 354.43 -61.92 362.67 -61.46 370.94 -60.71 379.21 -59.91 387.51 -58.95 395.84 -57.87 404.17 -56.94 412.52 -56.02 420.89 -55.15" stroke-dasharray="10 0" transform="rotate(16.16, 400, 400)" opacity="0.99"></path><path d="M415.95 -33.45C423.85 -32.84 431.65 -32.35 439.33 -32.01 447 -31.99 454.55 -32.09 461.97 -32.28 469.39 -32.72 476.66 -33.17 483.79 -33.58 490.89 -34.1 497.85 -34.46 504.63 -34.63 511.39 -34.71 517.97 -34.49 524.36 -33.92 530.72 -33.13 536.88 -31.91 542.83 -30.26 548.74 -28.31 554.44 -25.89 559.91 -23.03 565.33 -19.88 570.53 -16.31 575.51 -12.36 580.43 -8.2 585.14 -3.74 589.61 0.97 594.06 5.77 598.29 10.73 602.32 15.81 606.35 20.82 610.19 25.87 613.87 30.89 619.37 38.14 629.96 51.79 635.2 58.14 640.67 63.97 652.25 74.79 658.54 79.9 663.09 83.14 667.86 86.4 672.87 89.72 678.24 92.96 683.89 96.31 689.85 99.81 696.19 103.32 702.84 107.02 709.81 110.92 717.14 114.91 724.75 119.14 732.63 123.62 740.8 128.23 749.16 133.11 757.67 138.25 766.32 143.54 775.01 149.09 783.66 154.9 792.27 160.86 800.7 167.06 808.85 173.48 816.74 180.05 824.2 186.81 831.14 193.76 837.59 200.82 843.37 208.04 848.41 215.39 852.78 222.83 856.29 230.39 858.9 238.04 860.76 245.75 861.68 253.54 861.65 261.37 860.9 269.26 859.25 277.18 856.75 285.12 853.69 293.09 849.93 301.07 845.55 309.05 840.9 317.04 835.85 325.02 830.53 332.98 825.3 340.95 820.06 348.88 814.95 356.77 810.31 364.67 806.04 372.52 802.27 380.31 799.28 388.1 796.97 395.83 795.4 403.48 794.8 411.14 795 418.61 795.98 425.91 797.88 433.2 800.46 440.31 803.63 447.22 807.5 454.12 811.77 460.83 816.3 467.33 821.21 473.82 826.14 480.1 830.96 486.17 835.78 492.22 840.25 498.06 844.26 503.7 849.43 512.04 855.31 527.77 855.68 535.22 854.08 542.59 845.33 556.92 838.35 564.04 832.82 568.94 826.62 573.87 819.8 578.88 812.56 584.13 804.85 589.52 796.77 595.1 788.47 600.99 779.93 607.13 771.25 613.56 762.54 620.35 753.82 627.47 745.14 634.93 736.61 642.78 728.22 650.98 720.01 659.52 712.07 668.4 704.37 677.56 696.93 686.97 689.82 696.58 682.99 706.32 676.44 716.11 670.24 725.88 664.3 735.52 658.61 744.93 653.24 754.04 648.09 762.71 643.12 770.81 638.42 778.31 633.86 785.06 629.4 790.93 623.06 798.01 610.75 805.67 604.63 806.19 598.56 804.59 585.94 796.81 579.29 791.52 572.48 786.33 557.9 778.28 550.1 776.58 544.81 776.9 539.31 778.31 533.6 780.89 527.87 784.8 521.93 789.86 515.8 796.02 509.63 803.25 503.28 811.29 496.74 819.91 490.18 828.98 483.44 838.12 476.53 847.05 469.6 855.58 462.52 863.31 455.28 869.95 448.02 875.42 440.63 879.36 433.09 881.6 425.55 882.23 417.88 881.04 410.09 878.04 402.29 873.56 394.47 867.62 386.64 860.48 378.8 852.56 370.96 844.03 363.12 835.2 355.28 826.51 347.44 818.15 339.62 810.37 331.81 803.55 324.01 797.75 316.23 793.1 308.47 789.85 300.74 787.88 293.04 787.16 285.37 787.8 277.73 789.51 270.15 792.13 262.59 795.68 255.09 799.75 247.65 804.09 240.25 808.73 232.93 813.18 225.68 817.23 218.48 820.92 211.38 823.83 204.37 825.8 197.42 826.94 190.58 826.94 183.85 825.74 177.19 823.51 170.66 820.07 164.27 815.48 157.94 809.92 151.76 803.36 145.73 795.91 139.77 787.77 133.97 778.99 128.33 769.71 122.76 760.12 117.34 750.3 112.09 740.39 106.91 730.53 101.88 720.8 97.01 711.3 92.19 702.13 87.51 693.34 82.99 684.96 78.49 677.09 74.14 669.69 69.91 662.77 65.69 656.4 61.59 650.48 57.61 644.99 51.66 637.67 40.21 625.16 34.69 619.67 29.19 614.65 18.56 604.85 13.45 599.8 8.38 594.64 -1.2 583.23 -5.68 576.87 -10.01 570.14 -17.83 555.17 -21.26 546.95 -23.47 541.31 -25.47 535.41 -27.28 529.27 -29.06 523.07 -30.64 516.65 -32.02 510.03 -33.37 503.35 -34.54 496.49 -35.51 489.46 -36.48 482.4 -37.28 475.18 -37.89 467.81 -38.52 460.43 -38.99 452.92 -39.29 445.29 -39.62 437.65 -39.79 429.89 -39.81 422.03 -39.85 414.17 -39.73 406.29 -39.45 398.41 -39.19 390.53 -38.76 382.65 -38.16 374.76 -37.56 366.86 -36.78 358.96 -35.8 351.06 -34.82 343.15 -33.63 335.23 -32.25 327.3 -30.84 319.36 -29.23 311.4 -27.41 303.44 -25.57 295.46 -23.53 287.47 -21.29 279.47 -19.04 271.47 -16.61 263.45 -14 255.43 -11.4 247.42 -8.63 239.41 -5.71 231.42 -2.82 223.45 0.2 215.52 3.35 207.64 6.46 199.8 9.69 192.04 13.03 184.38 16.31 176.79 19.7 169.34 23.18 162.03 26.61 154.85 30.14 147.85 33.77 141.06 37.36 134.43 41.05 128.04 44.85 121.92 48.63 115.99 52.53 110.34 56.55 105 60.57 99.86 64.73 95.03 69.03 90.51 73.36 86.18 77.83 82.15 82.46 78.42 87.14 74.82 91.98 71.48 96.99 68.38 102.06 65.33 107.3 62.46 112.71 59.73 118.18 56.96 123.83 54.27 129.64 51.62 135.52 48.82 141.56 46 147.75 43.13 154.02 40.02 160.43 36.8 166.97 33.48 173.58 29.87 180.32 26.13 187.17 22.27 194.08 18.15 201.1 13.93 208.21 9.64 215.37 5.18 222.62 0.72 229.95 -3.69 237.31 -8.15 244.74 -12.47 252.24 -16.6 259.76 -20.62 267.34 -24.34 274.97 -27.72 282.61 -30.86 290.3 -33.58 298.03 -35.86 305.77 -37.83 313.55 -39.33 321.35 -40.35 329.16 -41.08 337 -41.37 344.86 -41.26 352.73 -40.96 360.61 -40.34 368.5 -39.44 376.4 -38.54 384.31 -37.48 392.22 -36.32 400.13 -35.33 408.04 -34.36 415.94 -33.45" stroke-dasharray="12 21" transform="rotate(20.200000000000003, 400, 400)" opacity="0.40"></path><path d="M408.44 -11.74C415.83 -11.1 423.11 -10.59 430.25 -10.22 437.4 -10.18 444.41 -10.27 451.28 -10.46 458.14 -10.91 464.85 -11.39 471.41 -11.86 477.95 -12.45 484.34 -12.93 490.55 -13.24 496.75 -13.52 502.77 -13.52 508.61 -13.21 517.25 -12.28 533.55 -7.98 541.21 -4.53 546.24 -1.79 551.07 1.36 555.73 4.92 560.37 8.72 564.85 12.86 569.15 17.3 573.47 21.88 577.64 26.68 581.68 31.65 585.75 36.63 589.72 41.7 593.61 46.82 597.57 51.83 601.48 56.82 605.36 61.76 609.38 66.5 613.4 71.15 617.47 75.69 621.72 79.99 626.07 84.18 630.52 88.26 635.21 92.09 640.06 95.83 645.09 99.48 650.41 102.94 655.94 106.35 661.7 109.75 667.78 113.01 674.1 116.29 680.66 119.63 687.53 122.9 694.64 126.28 701.97 129.78 709.57 133.27 717.34 136.94 725.26 140.78 733.35 144.67 741.51 148.77 749.7 153.09 757.91 157.5 766.04 162.13 774.01 166.99 781.85 171.96 789.4 177.16 796.61 182.57 803.48 188.1 809.88 193.84 815.72 199.77 821.07 205.82 825.75 212.04 829.71 218.43 833.05 224.91 835.6 231.53 837.32 238.28 838.38 245.11 838.61 252.04 838.02 259.07 836.81 266.15 834.85 273.3 832.17 280.51 829.05 287.76 825.35 295.05 821.15 302.37 816.76 309.71 812.07 317.07 807.18 324.41 802.42 331.78 797.68 339.14 793.07 346.47 788.91 353.81 785.09 361.11 781.71 368.36 779.04 375.62 776.95 382.83 775.51 389.97 774.93 397.11 775.05 404.09 775.85 410.92 777.47 417.74 779.68 424.4 782.42 430.89 785.8 437.38 789.55 443.71 793.57 449.87 797.95 456.03 802.4 462.03 806.79 467.88 811.25 473.73 815.44 479.44 819.28 485.01 822.89 490.61 825.97 496.09 828.44 501.46 831.11 509.56 831.82 525.59 829.74 533.64 827.46 539.14 824.39 544.69 820.59 550.32 816.2 556.14 811.15 562.08 805.48 568.17 799.36 574.51 792.74 581.04 785.67 587.79 778.32 594.81 770.64 602.07 762.72 609.6 754.67 617.4 746.49 625.46 738.24 633.77 730.02 642.31 721.82 651.07 713.69 660 705.71 669.07 697.86 678.23 690.17 687.42 682.72 696.59 675.46 705.66 668.41 714.55 661.64 723.2 655.08 731.52 648.73 739.41 642.67 746.83 636.8 753.66 631.12 759.81 625.69 765.3 620.42 769.99 615.29 773.8 607.96 777.94 593.96 780.58 587.17 779.27 580.54 776.51 567.22 768.28 560.42 763.67 553.58 759.72 539.3 755.18 531.82 755.42 526.77 756.99 521.57 759.55 516.2 763.15 510.82 767.89 505.27 773.59 499.56 780.16 493.82 787.58 487.92 795.56 481.86 803.93 475.78 812.55 469.53 821.11 463.13 829.33 456.71 837.09 450.14 844.04 443.42 849.93 436.69 854.73 429.82 858.12 422.81 859.98 415.79 860.39 408.64 859.17 401.37 856.34 394.1 852.19 386.79 846.71 379.46 840.14 372.14 832.83 364.8 824.92 357.45 816.67 350.11 808.47 342.76 800.45 335.43 792.87 328.11 786.04 320.8 780.02 313.51 774.97 306.24 771.09 299 768.33 291.8 766.68 284.62 766.27 277.49 766.88 270.41 768.39 263.36 770.86 256.37 773.95 249.46 777.45 242.58 781.42 235.78 785.44 229.07 789.32 222.41 793.1 215.84 796.38 209.38 799.02 202.97 801.1 196.68 802.28 190.51 802.51 184.39 801.9 178.4 800.24 172.55 797.53 166.76 793.93 161.11 789.33 155.61 783.81 150.16 777.53 144.86 770.49 139.72 762.79 134.62 754.6 129.68 745.95 124.88 736.97 120.13 727.8 115.52 718.5 111.06 709.17 106.63 699.92 102.33 690.8 98.16 681.89 94 673.26 89.96 664.93 86.05 656.95 82.12 649.35 78.3 642.12 74.58 635.27 70.84 628.85 67.18 622.77 63.62 617.03 60.01 611.67 56.49 606.59 53.05 601.75 47.86 595.04 37.8 582.63 32.95 576.69 28.13 570.95 18.98 559.19 14.68 553.02 10.5 546.71 2.87 533.11 -0.53 525.76 -3.74 518.14 -9.23 501.76 -11.5 493.01 -12.93 487.07 -14.18 480.93 -15.24 474.6 -16.29 468.24 -17.16 461.69 -17.86 454.97 -18.54 448.23 -19.06 441.32 -19.4 434.25 -19.75 427.17 -19.92 419.94 -19.92 412.55 -19.92 405.17 -19.75 397.72 -19.41 390.23 -19.07 382.74 -18.55 375.21 -17.85 367.63 -17.14 360.06 -16.26 352.45 -15.19 344.81 -14.1 337.18 -12.83 329.52 -11.38 321.84 -9.91 314.16 -8.25 306.47 -6.41 298.77 -4.56 291.08 -2.53 283.39 -0.33 275.7 1.87 268.04 4.23 260.39 6.75 252.77 9.25 245.19 11.9 237.66 14.68 230.18 17.42 222.77 20.29 215.43 23.28 208.2 26.21 201.06 29.26 194.03 32.39 187.16 35.48 180.4 38.66 173.81 41.93 167.42 45.15 161.16 48.46 155.13 51.86 149.33 55.21 143.7 58.66 138.32 62.21 133.2 67.54 125.93 78.74 112.98 84.64 107.3 90.69 102.03 103.53 92.69 110.35 88.48 117.39 84.34 132.34 76.23 140.25 72.07 145.65 69.09 151.19 66.03 156.88 62.88 162.64 59.47 168.54 55.95 174.58 52.3 180.68 48.38 186.91 44.35 193.26 40.22 199.67 35.88 206.19 31.48 212.81 27.05 219.49 22.51 226.26 18.02 233.11 13.63 240.01 9.25 246.98 5.06 254.03 1.11 261.1 -2.67 268.24 -6.14 275.43 -9.25 282.65 -12.09 289.91 -14.51 297.21 -16.48 304.54 -18.14 311.89 -19.35 319.27 -20.1 326.66 -20.58 334.08 -20.65 341.5 -20.34 348.94 -19.86 356.39 -19.1 363.83 -18.09 371.29 -17.09 378.73 -15.95 386.17 -14.74 393.61 -13.7 401.03 -12.69 408.43 -11.75" stroke-dasharray="21 20" transform="rotate(24.24, 400, 400)" opacity="0.73"></path><path d="M399.56 9.95C406.44 10.62 413.2 11.15 419.84 11.54 426.47 11.61 432.97 11.55 439.34 11.38 445.7 10.94 451.92 10.45 457.99 9.95 467.01 9.02 484.29 7.79 492.53 7.76 500.6 8.26 515.96 11.45 523.26 14.26 530.43 17.91 544.13 27.62 550.71 33.56 555.1 37.81 559.42 42.32 563.66 47.06 567.97 51.88 572.24 56.85 576.48 61.92 580.84 66.97 585.2 72.05 589.59 77.14 594.12 82.1 598.72 87.01 603.4 91.85 608.27 96.5 613.26 101.06 618.38 105.52 623.72 109.75 629.22 113.88 634.89 117.91 640.81 121.73 646.92 125.46 653.22 129.13 659.76 132.62 666.49 136.08 673.4 139.53 680.53 142.84 687.81 146.19 695.22 149.58 702.79 152.89 710.43 156.3 718.13 159.8 725.87 163.29 733.59 166.91 741.23 170.68 748.79 174.47 756.18 178.43 763.33 182.57 770.27 186.75 776.86 191.13 783.06 195.7 788.89 200.33 794.22 205.16 798.99 210.17 803.28 215.26 806.93 220.53 809.9 225.96 812.31 231.47 814.01 237.14 814.97 242.95 815.36 248.83 815.03 254.84 813.99 260.97 812.45 267.15 810.28 273.44 807.51 279.81 804.4 286.23 800.82 292.71 796.85 299.26 792.77 305.84 788.45 312.46 783.99 319.12 779.69 325.8 775.43 332.5 771.31 339.2 767.6 345.92 764.2 352.64 761.19 359.35 758.81 366.06 756.94 372.76 755.62 379.44 755.07 386.11 755.11 392.68 755.74 399.14 757.1 405.6 758.98 411.95 761.33 418.19 764.26 424.43 767.52 430.58 771.03 436.62 774.91 442.67 778.88 448.64 782.83 454.52 786.9 460.42 790.78 466.26 794.39 472.05 797.87 477.88 800.92 483.68 803.49 489.45 805.72 495.3 807.34 501.16 808.34 507.05 808.85 513.04 808.67 519.09 807.8 525.21 806.38 531.47 804.27 537.85 801.47 544.34 798.15 551.01 794.19 557.83 789.63 564.82 784.63 571.99 779.1 579.35 773.11 586.89 766.78 594.61 760.08 602.51 753.07 610.59 745.85 618.81 738.42 627.17 730.82 635.64 723.15 644.18 715.4 652.77 707.62 661.35 699.89 669.89 692.19 678.34 684.55 686.62 677.05 694.71 669.65 702.51 662.39 709.97 655.32 717.05 648.4 723.66 641.65 729.72 635.1 735.26 628.72 740.15 622.5 744.32 616.5 747.89 610.64 750.69 604.93 752.7 596.71 754.41 581.04 753.42 573.5 751.05 566.2 747.87 551.82 740.45 544.65 736.99 537.53 734.58 523.03 733.66 515.58 735.73 510.61 738.39 505.52 741.93 500.32 746.36 495.12 751.73 489.8 757.86 484.34 764.65 478.89 772.08 473.3 779.88 467.58 787.87 461.85 795.97 455.99 803.88 449.99 811.38 443.99 818.38 437.85 824.57 431.58 829.75 425.3 833.93 418.9 836.82 412.38 838.32 405.85 838.54 399.2 837.31 392.44 834.64 385.67 830.8 378.88 825.77 372.07 819.73 365.27 813.02 358.45 805.72 351.62 798.05 344.81 790.35 338 782.74 331.19 775.41 324.41 768.66 317.64 762.55 310.89 757.21 304.17 752.85 297.47 749.44 290.82 746.99 284.2 745.65 277.63 745.23 271.11 745.68 264.63 747.07 258.21 749.12 251.87 751.69 245.56 754.83 239.34 758.19 233.21 761.61 227.12 765.16 221.13 768.45 215.25 771.36 206.55 774.95 189.81 777.7 181.79 776.48 176.54 774.62 171.42 771.85 166.43 768.2 161.49 763.82 156.69 758.64 152.02 752.73 147.38 746.24 142.89 739.16 138.52 731.58 134.18 723.64 129.97 715.36 125.89 706.85 121.81 698.2 117.85 689.46 114.01 680.71 110.16 672.02 106.42 663.44 102.78 655.02 99.12 646.81 95.55 638.82 92.06 631.1 88.54 623.66 85.1 616.5 81.74 609.63 78.33 603.07 75 596.78 71.74 590.74 68.42 585 65.17 579.48 62 574.14 57.2 566.59 47.94 552.34 43.51 545.48 39.12 538.83 30.87 525.46 27.06 518.62 23.37 511.73 16.77 497.28 13.87 489.67 11.18 481.89 6.68 465.44 4.9 456.75 3.79 450.9 2.86 444.86 2.11 438.66 1.38 432.44 0.83 426.05 0.46 419.5 0.11 412.94 -0.05 406.22 -0.04 399.34 0 392.46 0.2 385.51 0.59 378.49 1.01 371.49 1.6 364.42 2.37 357.31 3.16 350.21 4.13 343.07 5.28 335.9 6.45 328.74 7.79 321.56 9.3 314.36 10.83 307.19 12.53 300.02 14.39 292.85 16.26 285.72 18.29 278.6 20.47 271.52 22.65 264.49 24.97 257.5 27.42 250.58 29.85 243.72 32.41 236.94 35.08 230.26 37.72 223.66 40.47 217.19 43.31 210.84 46.11 204.61 49 198.53 51.98 192.62 54.91 186.83 57.91 181.24 61 175.86 65.59 168.09 75.11 153.91 80.04 147.51 85.01 141.53 95.4 130.84 100.85 126.06 106.41 121.52 118.18 113.1 124.4 109.09 130.81 104.95 144.41 96.41 151.59 91.87 156.49 88.59 161.52 85.2 166.7 81.71 171.93 77.97 177.3 74.11 182.8 70.14 188.36 65.95 194.04 61.67 199.85 57.33 205.71 52.83 211.68 48.32 217.76 43.84 223.89 39.31 230.11 34.89 236.43 30.61 242.79 26.4 249.23 22.43 255.75 18.73 262.3 15.23 268.92 12.07 275.59 9.29 282.3 6.78 289.05 4.7 295.85 3.06 302.67 1.71 309.53 0.8 316.41 0.32 323.31 0.08 330.23 0.23 337.16 0.72 344.1 1.35 351.05 2.23 358 3.34 364.95 4.42 371.9 5.61 378.83 6.86 385.76 7.94 392.67 8.98 399.55 9.95" stroke-dasharray="17 8" transform="rotate(28.28, 400, 400)" opacity="0.88"></path><path d="M390.76 31.65C397.14 32.34 403.41 32.9 409.58 33.32 415.74 33.42 421.79 33.4 427.72 33.25 436.55 32.6 453.59 30.89 461.81 30.06 469.89 29.34 485.45 29.14 492.95 29.88 500.35 31.28 514.67 36.41 521.64 40.16 526.29 43.05 530.89 46.32 535.43 49.93 540.03 53.76 544.6 57.88 549.16 62.27 553.8 66.79 558.45 71.52 563.12 76.41 567.9 81.34 572.73 86.36 577.63 91.46 582.66 96.5 587.79 101.55 593.01 106.58 598.4 111.48 603.92 116.33 609.56 121.12 615.38 125.72 621.35 130.24 627.46 134.66 633.76 138.89 640.2 143.03 646.78 147.09 653.53 150.95 660.4 154.75 667.38 158.5 674.48 162.08 681.66 165.64 688.88 169.18 696.16 172.6 703.43 176.04 710.65 179.52 717.84 182.91 724.92 186.38 731.83 189.92 738.59 193.42 745.12 197.03 751.35 200.75 757.32 204.47 762.91 208.32 768.08 212.31 775.03 218.4 785.6 231.4 789.05 238.31 791.13 245.44 791.4 260.49 789.65 268.39 787.89 273.73 785.6 279.2 782.82 284.78 779.8 290.39 776.4 296.1 772.69 301.91 768.93 307.73 765 313.64 760.98 319.62 757.12 325.62 753.33 331.67 749.66 337.79 746.39 343.91 743.38 350.07 740.71 356.28 738.6 362.49 736.93 368.74 735.74 375.02 735.21 381.3 735.19 387.54 735.67 393.73 736.8 399.92 738.37 406.07 740.35 412.19 742.85 418.3 745.66 424.39 748.7 430.44 752.1 436.52 755.59 442.57 759.1 448.62 762.76 454.7 766.29 460.78 769.64 466.87 772.91 473.02 775.86 479.19 778.43 485.42 780.76 491.71 782.59 498.06 783.91 504.49 784.85 511.01 785.21 517.63 784.97 524.35 784.28 531.18 782.98 538.12 781.06 545.19 778.69 552.37 775.73 559.68 772.21 567.11 768.27 574.66 763.82 582.31 758.89 590.08 753.63 597.91 747.96 605.83 741.93 613.79 735.67 621.77 729.12 629.75 722.33 637.7 715.41 645.57 708.33 653.34 701.13 660.95 693.89 668.37 686.6 675.56 679.29 682.44 672.02 689.01 664.78 695.19 657.59 700.92 650.51 706.23 643.51 711.01 636.61 715.21 629.85 718.92 623.2 721.99 616.68 724.41 610.31 726.33 604.07 727.59 597.95 728.2 589.06 728.19 572.02 725.08 563.82 722.39 555.88 719.46 540.37 713.87 532.74 711.86 525.23 711.14 510.2 713.75 502.62 717.43 497.58 721.02 492.48 725.34 487.32 730.38 482.17 736.18 476.94 742.55 471.63 749.39 466.33 756.67 460.93 764.15 455.44 771.69 449.95 779.2 444.36 786.43 438.67 793.2 432.98 799.44 427.18 804.9 421.29 809.42 415.39 813.01 409.39 815.44 403.3 816.62 397.2 816.68 391 815.45 384.72 812.94 378.43 809.39 372.13 804.79 365.83 799.28 359.52 793.14 353.22 786.43 346.93 779.34 340.64 772.17 334.36 764.98 328.11 757.97 321.86 751.39 315.65 745.28 309.46 739.78 303.3 735.08 297.18 731.15 291.1 728.04 285.05 725.88 279.06 724.56 273.12 724.03 267.22 724.38 261.39 725.39 255.63 726.97 249.91 729.18 244.28 731.73 238.73 734.49 233.22 737.53 227.81 740.52 222.5 743.34 214.65 747.26 199.56 752.16 192.33 752.69 185.28 751.63 171.82 744.71 165.41 738.91 161.2 734.22 157.1 728.89 153.13 722.98 149.16 716.61 145.3 709.78 141.54 702.56 137.79 695.05 134.13 687.28 130.57 679.32 126.99 671.23 123.49 663.07 120.09 654.89 116.65 646.74 113.28 638.65 110 630.67 106.66 622.82 103.4 615.13 100.2 607.63 96.95 600.32 93.76 593.21 90.64 586.3 87.46 579.62 84.34 573.14 81.3 566.85 78.19 560.77 75.15 554.86 72.19 549.1 69.18 543.53 66.25 538.08 63.41 532.73 59.13 524.95 51.06 509.8 47.3 502.31 43.65 494.91 37.05 479.91 34.13 472.24 31.4 464.51 26.79 448.51 24.94 440.2 23.79 434.62 22.82 428.9 22.04 423.05 21.28 417.2 20.71 411.21 20.33 405.09 19.98 398.97 19.81 392.71 19.84 386.32 19.9 379.93 20.15 373.49 20.59 367 21.05 360.52 21.7 354.01 22.53 347.47 23.39 340.93 24.42 334.38 25.63 327.83 26.86 321.29 28.26 314.75 29.82 308.23 31.39 301.73 33.13 295.26 35.01 288.82 36.9 282.43 38.93 276.09 41.1 269.81 43.26 263.59 45.55 257.44 47.96 251.4 50.34 245.42 52.83 239.55 55.43 233.8 57.99 228.14 60.64 222.62 63.39 217.26 67.47 209.44 75.94 194.83 80.32 188.08 84.68 181.67 93.68 169.98 98.33 164.68 102.98 159.65 112.67 150.43 117.72 146.16 122.84 141.93 133.63 133.66 139.31 129.49 145.13 125.07 157.44 115.67 163.93 110.6 168.34 106.96 172.88 103.22 177.55 99.38 182.27 95.31 187.11 91.16 192.07 86.92 197.08 82.52 202.21 78.07 207.46 73.61 212.75 69.06 218.16 64.55 223.67 60.12 229.22 55.7 234.88 51.44 240.62 47.37 246.4 43.42 252.27 39.74 258.22 36.37 264.2 33.21 270.25 30.4 276.36 27.99 282.51 25.85 288.7 24.12 294.95 22.82 301.22 21.79 307.52 21.17 313.86 20.95 320.22 20.94 326.6 21.28 333 21.93 339.41 22.7 345.84 23.69 352.26 24.86 358.69 26.01 365.12 27.24 371.54 28.51 377.96 29.61 384.37 30.67 390.75 31.65" stroke-dasharray="16 2" transform="rotate(32.32, 400, 400)" opacity="0.46"></path><path d="M383.44 53.35C392.27 54.35 409.52 55.24 417.92 55.14 426.23 54.55 442.39 52.87 450.25 51.98 458.02 51.12 473.18 50.37 480.58 50.68 490.46 51.82 500.12 54.38 509.61 58.39 519.3 63.41 528.95 69.84 538.63 77.52 548.67 85.88 558.89 95.11 569.37 104.94 580.36 114.83 591.73 124.91 603.5 134.97 615.82 144.57 628.56 153.92 641.63 162.99 655.1 171.38 668.71 179.49 682.28 187.39 695.78 194.7 708.83 201.97 721.12 209.29 732.67 216.25 742.94 223.45 751.6 230.98 758.88 238.38 764.15 246.23 767.24 254.55 768.68 262.89 767.93 271.75 765.08 281.12 762.04 288.24 753.7 303.11 748.7 310.84 745.28 316.04 741.74 321.35 738.14 326.77 734.72 332.18 731.37 337.7 728.14 343.31 725.26 348.92 722.62 354.63 720.27 360.42 718.42 366.2 716.93 372.08 715.85 378.04 715.35 384 715.27 389.97 715.63 395.96 716.54 401.95 717.84 407.95 719.48 413.98 721.6 420.01 723.98 426.07 726.58 432.15 729.51 438.26 732.54 444.4 735.62 450.58 738.86 456.78 742.03 463.04 745.06 469.36 748.09 475.71 750.87 482.14 753.36 488.63 757.8 501.77 760.54 515.25 761.38 529.07 760.8 543.11 758.07 557.49 753.26 572.11 746.97 586.8 738.81 601.54 729.07 616.1 718.28 630.29 706.36 643.88 693.59 656.53 680.43 668.17 666.86 678.33 653.14 686.69 639.54 693.48 626.05 698.18 612.82 700.67 599.98 701.72 587.48 700.91 575.33 698.58 563.64 695.97 552.24 692.92 541.11 690.11 530.35 688.9 519.73 689.22 509.2 691.64 498.9 696.98 488.55 704.84 478.12 715.09 472.95 721.1 467.74 727.53 462.49 734.25 457.25 741.25 451.96 748.32 446.61 755.31 441.27 762.19 435.87 768.72 430.41 774.76 424.95 780.28 419.42 785.05 413.82 788.94 405.4 792.99 388.21 794.2 379.46 791.23 373.6 787.98 367.74 783.78 361.91 778.76 356.07 773.18 350.25 767.05 344.46 760.54 338.67 753.89 332.91 747.17 327.18 740.52 321.46 734.18 315.78 728.17 310.14 722.62 304.52 717.7 298.95 713.4 293.44 709.77 287.94 706.95 282.51 704.84 277.14 703.44 266.48 703.02 256.11 704.86 246.11 708.28 236.2 713.25 226.68 718.25 217.57 722.47 208.55 725.98 199.95 727.47 191.79 726.59 183.68 723.74 175.97 718.26 168.68 710.34 161.34 700.57 154.36 688.87 147.73 675.71 140.96 661.6 134.47 646.76 128.25 631.6 121.81 616.4 115.6 601.39 109.63 586.78 103.41 572.64 97.42 559.06 91.71 546.05 85.78 533.61 80.18 521.65 74.94 510.08 69.6 498.95 64.7 488.01 60.31 477.18 57.1 469.18 51.42 453.17 48.98 445.09 46.76 437 43.21 420.53 41.91 412.11 40.86 403.63 39.76 386.26 39.73 377.37 39.81 371.42 40.09 365.46 40.56 359.5 41.06 353.54 41.75 347.58 42.62 341.64 43.53 335.71 44.6 329.8 45.85 323.91 47.12 318.04 48.56 312.21 50.15 306.43 51.76 300.67 53.51 294.97 55.41 289.34 57.31 283.75 59.35 278.24 61.51 272.82 65.79 262.11 70.52 251.85 75.64 242.12 80.6 232.63 85.89 223.75 91.47 215.52 96.81 207.52 102.41 200.18 108.26 193.48 113.88 186.87 119.76 180.78 125.91 175.13 131.9 169.27 138.22 163.62 144.88 158.05 151.48 151.9 158.49 145.59 165.91 138.99 173.37 131.6 181.3 123.84 189.68 115.73 198.17 106.96 207.13 98.03 216.52 89.16 226.04 80.18 235.99 71.71 246.31 64.04 256.76 57.01 267.54 51.23 278.6 46.92 286.98 44.48 304.05 41.94 312.71 41.79 318.51 42 324.35 42.51 330.21 43.3 336.08 44.18 341.98 45.25 347.89 46.48 353.8 47.66 359.73 48.91 365.66 50.2 371.58 51.31 377.51 52.37 383.43 53.35" stroke-dasharray="19 7" transform="rotate(36.36, 400, 400)" opacity="0.52"></path><path d="M378.78 75.05C389.79 76.23 400.58 76.89 411.14 77.03 421.69 76.18 432.03 75.11 442.14 74.05 452.28 72.68 462.26 71.88 472.07 71.89 482 72.4 491.85 74.14 501.66 77.2 511.69 81.16 521.79 86.49 532 93.08 542.54 100.45 553.29 108.81 564.3 117.94 575.7 127.37 587.4 137.21 599.38 147.26 611.72 157.1 624.27 166.89 636.93 176.52 649.73 185.64 662.42 194.54 674.8 203.2 686.9 211.31 698.33 219.27 708.83 227.15 718.5 234.59 726.85 242.09 733.63 249.73 739.14 257.11 742.83 264.75 744.58 272.72 744.99 280.56 743.55 288.82 740.38 297.5 736.35 306.13 731.07 315.23 724.89 324.8 718.84 334.34 712.65 344.35 706.73 354.83 702.08 365.28 698.4 376.21 695.97 387.59 695.51 398.97 696.47 410.57 698.72 422.36 702.63 434.18 707.31 446.25 712.4 458.54 718.18 470.91 723.62 483.54 728.35 496.42 732.7 509.4 735.72 522.62 737.19 536.01 737.56 549.42 736.12 562.9 732.87 576.31 728.34 589.5 722.09 602.36 714.31 614.66 705.5 626.35 695.48 637.1 684.47 646.65 672.92 655.14 660.74 662.1 648.18 667.33 635.5 671.33 622.7 673.58 609.92 674.14 597.33 673.89 584.9 672.47 572.69 670.25 560.78 668.39 549.11 666.7 537.67 665.74 526.53 666.58 515.56 669.05 504.74 673.5 494.13 680.47 483.59 689.5 473.08 700.31 462.69 712.74 452.25 725.82 441.74 738.7 431.29 750.84 420.71 761 410 768.3 399.31 772.63 388.47 773.09 377.5 769.53 366.52 762.87 355.68 753.25 344.99 741.62 334.31 729.38 323.82 717.08 313.54 705.67 303.3 696.23 293.3 688.89 283.59 683.89 273.92 681.71 264.57 681.66 255.57 683.29 246.61 686.7 238.01 690.62 229.8 694.41 221.61 698.17 213.8 700.66 206.36 701.46 198.91 700.93 191.8 698.22 185.04 693.37 178.18 686.87 171.61 678.41 165.33 668.28 158.87 656.98 152.64 644.53 146.64 631.3 140.41 617.6 134.37 603.59 128.55 589.54 122.47 575.55 116.61 561.79 111 548.36 105.2 535.23 99.69 522.49 94.53 510.12 89.28 498.08 84.44 486.33 80.09 474.83 75.76 463.56 71.98 452.41 68.82 441.34 65.78 430.38 63.41 419.41 61.75 408.39 60.29 397.4 59.56 386.32 59.61 375.16 59.88 363.99 60.9 353 62.64 342.23 64.55 331.47 67.12 320.97 70.31 310.78 73.56 300.64 77.37 290.87 81.67 281.54 85.93 272.31 90.6 263.55 95.63 255.32 100.51 247.21 105.69 239.64 111.13 232.61 116.34 225.63 121.78 219.13 127.44 213.08 132.85 206.89 138.5 201 144.37 195.31 150.04 189.23 155.99 183.16 162.22 176.97 168.34 170.16 174.81 163.1 181.62 155.72 188.4 147.66 195.59 139.31 203.17 130.76 210.79 121.77 218.83 112.83 227.26 104.15 235.78 95.6 244.69 87.72 253.95 80.78 263.3 74.57 272.99 69.64 282.96 66.15 293.01 63.64 303.31 62.56 313.82 62.86 324.37 63.77 335.1 65.63 345.94 68.17 356.81 70.48 367.76 72.86 378.77 75.05" stroke-dasharray="10 0" transform="rotate(40.400000000000006, 400, 400)" opacity="0.12"></path><path d="M377.54 96.76C387.83 97.96 398.01 98.69 408.08 98.93 418.15 98.22 428.13 97.26 438.01 96.24 447.95 94.83 457.83 93.85 467.67 93.5 477.62 93.47 487.61 94.49 497.65 96.66 507.87 99.6 518.23 103.81 528.73 109.23 539.48 115.44 550.42 122.72 561.56 130.88 572.96 139.5 584.54 148.73 596.25 158.37 608.13 168.04 620.03 177.87 631.83 187.72 643.56 197.28 654.98 206.72 665.9 216.01 676.39 224.87 686.08 233.57 694.75 242.13 702.59 250.28 709.14 258.38 714.2 266.49 718.17 274.28 720.52 282.2 721.21 290.29 720.83 298.18 718.93 306.34 715.62 314.81 711.72 323.17 706.85 331.91 701.28 341.05 695.96 350.13 690.57 359.64 685.43 369.6 681.43 379.54 678.25 389.94 676.08 400.83 675.61 411.72 676.31 422.85 678.07 434.2 681.29 445.57 685.17 457.17 689.45 468.97 694.44 480.79 699.21 492.8 703.49 504.93 707.6 517.04 710.69 529.21 712.54 541.33 713.6 553.3 713.16 565.07 711.17 576.46 708.15 587.47 703.59 597.88 697.61 607.48 690.69 616.39 682.55 624.24 673.38 630.83 663.59 636.53 653.04 640.83 641.93 643.7 630.54 645.74 618.84 646.52 606.96 646.16 595.08 645.59 583.19 644.44 571.36 643.1 559.69 642.55 548.15 642.58 536.77 643.62 525.59 646.45 514.57 650.85 503.7 656.97 492.99 665.16 482.4 674.9 471.9 685.88 461.52 697.91 451.18 710.13 440.86 721.8 430.61 732.56 420.34 741.36 410.06 747.52 399.8 751.05 389.49 751.19 379.16 747.83 368.83 741.79 358.71 733.13 348.81 722.6 338.92 711.39 329.25 699.89 319.85 688.89 310.46 679.35 301.34 671.4 292.52 665.33 283.71 661.65 275.21 659.87 267.04 659.73 258.87 661.42 251.04 663.94 243.54 666.79 236.02 670.12 228.82 672.82 221.94 674.48 214.99 675.41 208.33 674.72 201.95 672.3 195.44 668.62 189.16 663.15 183.12 656.04 176.88 647.78 170.83 638.18 164.97 627.51 158.88 616.12 152.96 604.06 147.22 591.57 141.26 578.81 135.5 565.92 129.98 553.07 124.28 540.25 118.87 527.59 113.79 515.19 108.64 502.93 103.89 490.93 99.59 479.2 95.35 467.61 91.63 456.25 88.5 445.09 85.52 434.02 83.19 423.09 81.55 412.31 80.13 401.55 79.43 390.89 79.5 380.34 79.8 369.79 80.85 359.58 82.6 349.73 84.53 339.88 87.11 330.4 90.29 321.32 93.54 312.26 97.33 303.61 101.57 295.42 105.79 287.25 110.4 279.53 115.35 272.27 120.16 264.99 125.26 258.14 130.59 251.7 135.71 245.13 141.04 238.88 146.56 232.87 151.84 226.58 157.31 220.39 162.98 214.23 168.43 207.59 174.12 200.83 180.03 193.88 185.79 186.35 191.84 178.57 198.17 170.54 204.43 162 211.02 153.31 217.94 144.6 224.85 135.69 232.12 127.02 239.74 118.81 247.38 110.91 255.39 103.82 263.73 97.75 272.11 92.45 280.82 88.41 289.83 85.73 298.87 83.94 308.19 83.44 317.75 84.16 327.33 85.36 337.13 87.37 347.11 89.95 357.09 92.25 367.24 94.59 377.53 96.76" stroke-dasharray="7 9" transform="rotate(44.44, 400, 400)" opacity="0.72"></path><path d="M379.91 118.46C389.57 119.68 399.23 120.48 408.85 120.82 418.5 120.27 428.15 119.45 437.8 118.53 447.49 117.16 457.23 116.08 467 115.48 476.88 115.05 486.84 115.46 496.89 116.84 507.09 118.83 517.41 121.96 527.86 126.21 538.48 131.2 549.23 137.24 560.07 144.22 571.05 151.76 582.08 160.04 593.08 168.88 604.1 177.96 614.96 187.38 625.56 197 635.95 206.56 645.87 216.16 655.16 225.73 663.96 235.05 671.89 244.27 678.8 253.38 684.94 262.18 689.86 270.9 693.44 279.57 696.11 287.95 697.39 296.35 697.26 304.81 696.34 313.06 694.18 321.45 690.89 330.03 687.23 338.47 682.83 347.17 677.91 356.15 673.29 365.07 668.66 374.32 664.25 383.92 660.85 393.5 658.11 403.46 656.19 413.82 655.71 424.18 656.18 434.7 657.52 445.36 660.11 456.02 663.27 466.81 666.79 477.67 671 488.5 675.1 499.36 678.85 510.16 682.61 520.86 685.59 531.4 687.61 541.67 689.1 551.7 689.37 561.31 688.38 570.35 686.57 578.96 683.43 586.82 679.03 593.78 673.82 600.15 667.46 605.49 660.07 609.71 652.07 613.31 643.25 615.8 633.76 617.23 623.9 618.3 613.58 618.56 602.93 618.23 592.15 618.14 581.2 617.95 570.16 618 559.15 619.08 548.15 620.96 537.21 623.92 526.38 628.52 515.63 634.5 505 641.86 494.48 650.81 484.07 660.84 473.77 671.62 463.57 682.99 453.44 694.17 443.4 704.58 433.41 713.97 423.48 721.49 413.61 726.6 403.75 729.42 393.94 729.29 384.17 726.13 374.41 720.69 364.91 712.93 355.69 703.47 346.46 693.28 337.5 682.64 328.82 672.2 320.14 662.79 311.74 654.51 303.63 647.67 295.51 642.79 287.69 639.52 280.17 637.74 272.62 637.7 265.36 638.66 258.4 640.22 251.37 642.6 244.62 644.85 238.14 646.6 231.55 648.16 225.19 648.64 219.07 647.88 212.79 646.29 206.7 643.24 200.8 638.77 194.71 633.32 188.77 626.55 182.99 618.63 177 609.93 171.17 600.34 165.5 590.06 159.65 579.34 153.98 568.17 148.54 556.75 142.96 545.16 137.66 533.49 132.68 521.85 127.66 510.2 123.02 498.66 118.83 487.3 114.71 475.99 111.09 464.87 108.05 453.97 105.16 443.12 102.9 432.47 101.31 422.03 99.96 411.62 99.3 401.39 99.38 391.37 99.72 381.35 100.77 371.76 102.5 362.6 104.43 353.42 106.98 344.66 110.1 336.33 113.31 327.97 117.03 320.01 121.2 312.47 125.36 304.87 129.89 297.65 134.74 290.79 139.48 283.82 144.49 277.13 149.73 270.7 154.78 264.05 160.02 257.55 165.44 251.14 170.63 244.39 176 237.61 181.53 230.75 186.85 223.43 192.35 215.96 198.04 208.3 203.56 200.18 209.31 191.89 215.3 183.48 221.17 174.75 227.31 166.06 233.73 157.52 240.09 149 246.76 140.9 253.73 133.41 260.68 126.37 267.96 120.21 275.54 115.1 283.12 110.76 291.01 107.62 299.2 105.73 307.39 104.61 315.87 104.62 324.6 105.69 333.35 107.12 342.34 109.22 351.57 111.8 360.79 114.06 370.24 116.35 379.9 118.46" stroke-dasharray="11 16" transform="rotate(48.48, 400, 400)" opacity="0.09"></path><path d="M385.51 140.16C394.61 141.4 403.76 142.25 412.96 142.7 422.18 142.32 431.46 141.68 440.79 140.89 450.17 139.63 459.63 138.55 469.17 137.8 478.78 137.08 488.48 137.03 498.28 137.76 508.16 138.94 518.14 141.09 528.18 144.22 538.31 147.99 548.48 152.76 558.65 158.44 568.83 164.71 578.94 171.77 588.89 179.51 598.74 187.61 608.31 196.19 617.48 205.14 626.36 214.22 634.68 223.49 642.31 232.88 649.44 242.2 655.71 251.54 661 260.85 665.62 269.98 669.14 279.07 671.49 288.1 673.12 296.94 673.58 305.75 672.9 314.55 671.64 323.19 669.39 331.87 666.26 340.63 662.93 349.27 659.05 358.05 654.77 366.97 650.84 375.84 646.91 384.91 643.18 394.18 640.32 403.44 637.99 412.95 636.31 422.69 635.83 432.44 636.1 442.2 637.06 451.94 639.1 461.68 641.6 471.38 644.42 480.97 647.88 490.52 651.3 499.9 654.49 509.05 657.81 518.06 660.55 526.74 662.56 534.98 664.25 542.98 664.98 550.42 664.69 557.21 662.8 566.47 652.58 580.34 644.45 584.81 638.15 587.18 631.03 588.8 623.2 589.76 614.97 590.73 606.2 591.33 596.99 591.76 587.56 592.72 577.83 593.92 567.91 595.6 557.9 598.38 547.79 602 537.64 606.63 527.5 612.65 517.37 619.77 507.29 627.91 497.27 637.18 487.3 647.11 477.43 657.38 467.61 667.86 457.88 677.89 448.24 687 438.64 695.07 429.13 701.39 419.7 705.54 410.3 707.73 400.97 707.37 391.73 704.42 382.5 699.55 373.55 692.65 364.9 684.21 356.24 675.05 347.86 665.33 339.78 655.56 331.66 646.46 323.83 638.12 316.28 630.82 308.7 625.05 301.38 620.57 294.34 617.37 287.25 615.74 280.4 615.1 273.82 615.22 267.14 616.31 260.69 617.63 254.47 618.86 248.12 620.29 241.96 621.14 235.99 621.21 229.86 620.88 223.89 619.49 218.08 616.97 212.08 613.78 206.21 609.44 200.5 604.02 194.6 597.93 188.84 590.89 183.26 583.04 177.51 574.7 171.95 565.73 166.62 556.3 161.19 546.57 156.04 536.54 151.2 526.33 146.34 515.99 141.87 505.59 137.82 495.19 133.86 484.77 130.39 474.42 127.47 464.2 124.72 453.99 122.56 443.92 121.05 434.04 119.77 424.17 119.17 414.47 119.27 404.97 119.62 395.48 120.67 386.4 122.35 377.72 124.24 369.02 126.72 360.7 129.74 352.76 132.88 344.77 136.5 337.12 140.55 329.78 144.61 322.36 149.03 315.2 153.77 308.28 158.42 301.2 163.33 294.28 168.46 287.49 173.44 280.45 178.6 273.44 183.93 266.43 189.07 259.1 194.36 251.68 199.79 244.16 205.02 236.27 210.41 228.26 215.96 220.14 221.33 211.73 226.89 203.26 232.64 194.82 238.25 186.29 244.09 177.94 250.15 169.92 256.12 162.09 262.35 154.83 268.84 148.26 275.27 142.23 281.98 137.1 288.97 133 295.93 129.62 303.18 127.34 310.7 126.18 318.2 125.65 325.99 126.11 334.05 127.46 342.1 129.05 350.42 131.19 359 133.72 367.57 135.92 376.41 138.12 385.5 140.16" stroke-dasharray="9 9" transform="rotate(52.52, 400, 400)" opacity="0.72"></path><path d="M393.44 161.86C402.01 163.1 410.66 164 419.38 164.55 428.12 164.35 436.94 163.9 445.84 163.3 454.77 162.2 463.79 161.19 472.87 160.41 482 159.54 491.2 159.17 500.45 159.4 509.74 159.92 519.06 161.23 528.37 163.38 537.7 166.02 546.98 169.56 556.15 173.94 565.25 178.86 574.18 184.58 582.85 190.99 591.34 197.83 599.46 205.25 607.11 213.14 614.44 221.27 621.18 229.75 627.23 238.47 632.81 247.27 637.58 256.22 641.46 265.24 644.79 274.24 647.17 283.26 648.55 292.27 649.4 301.19 649.29 310.1 648.26 318.97 646.85 327.76 644.67 336.54 641.8 345.32 638.88 354.03 635.52 362.77 631.89 371.54 628.6 380.28 625.33 389.09 622.22 397.97 619.85 406.83 617.88 415.78 616.42 424.8 615.95 433.82 616.06 442.7 616.7 451.41 618.24 460.09 620.16 468.58 622.34 476.8 625.1 484.97 627.86 492.84 630.48 500.33 633.29 507.7 635.69 514.63 637.55 521.05 639.73 530.1 639.54 544.81 636.91 550.33 632.63 554.92 619.04 561.11 610.02 563.2 603.4 564.77 596.19 566.29 588.49 567.93 580.55 570.24 572.22 572.97 563.59 576.27 554.84 580.58 545.87 585.67 536.77 591.58 527.62 598.58 518.38 606.37 509.12 614.83 499.86 624.01 490.6 633.49 481.38 642.98 472.19 652.41 463.04 661.22 453.96 669.04 444.91 675.85 435.92 681.05 427.02 684.35 418.14 685.98 409.33 685.45 400.62 682.72 391.91 678.38 383.49 672.29 375.35 664.83 367.19 656.68 359.31 647.9 351.7 638.9 344.06 630.3 336.68 622.12 329.55 614.65 322.38 608.31 315.44 602.96 308.75 598.62 301.99 595.61 295.44 593.51 289.1 592.17 282.67 591.84 276.43 591.93 270.37 592.21 264.18 592.95 258.15 593.5 252.28 593.65 246.26 593.76 240.37 593.19 234.63 591.85 228.72 590.15 222.93 587.56 217.29 584.07 211.5 580.12 205.85 575.29 200.37 569.68 194.77 563.64 189.37 556.92 184.19 549.61 178.95 542 173.99 533.93 169.33 525.51 164.7 516.91 160.43 508.07 156.58 499.07 152.83 489.99 149.54 480.83 146.78 471.65 144.2 462.45 142.18 453.27 140.77 444.16 139.59 435.05 139.04 426.01 139.16 417.09 139.52 408.17 140.53 399.56 142.15 391.26 143.97 382.93 146.35 374.89 149.24 367.12 152.26 359.3 155.74 351.7 159.63 344.32 163.55 336.83 167.82 329.5 172.4 322.29 176.92 314.93 181.7 307.63 186.71 300.37 191.59 292.89 196.66 285.39 201.89 277.85 206.95 270.06 212.17 262.19 217.52 254.26 222.69 246.11 228 237.91 233.45 229.71 238.73 221.39 244.17 213.16 249.76 205.1 255.21 197.12 260.84 189.47 266.67 182.28 272.38 175.41 278.3 169.16 284.45 163.67 290.51 158.73 296.82 154.67 303.37 151.57 309.86 149.11 316.61 147.62 323.62 147.11 330.59 147.09 337.83 147.9 345.33 149.45 352.81 151.13 360.56 153.27 368.58 155.7 376.59 157.81 384.87 159.9 393.43 161.86" stroke-dasharray="15 5" transform="rotate(56.56, 400, 400)" opacity="0.97"></path><path d="M402.43 183.57C410.45 184.79 418.55 185.73 426.72 186.38 434.91 186.35 443.17 186.11 451.48 185.7 459.81 184.81 468.2 183.96 476.63 183.23 485.06 182.33 493.53 181.79 501.98 181.69 510.43 181.74 518.84 182.4 527.17 183.73 535.46 185.41 543.62 187.85 551.59 191.02 559.45 194.64 567.06 198.99 574.33 204.02 581.4 209.46 588.05 215.5 594.21 222.06 600.06 228.93 605.33 236.23 609.94 243.86 614.17 251.69 617.66 259.76 620.38 268 622.68 276.33 624.17 284.78 624.86 293.28 625.16 301.8 624.7 310.34 623.52 318.88 622.11 327.41 620.11 335.92 617.59 344.4 615.1 352.86 612.29 361.29 609.27 369.68 606.58 378.07 603.91 386.42 601.36 394.74 599.43 403.05 597.8 411.32 596.54 419.53 596.08 427.73 596.05 435.67 596.43 443.32 597.54 450.95 598.95 458.27 600.55 465.23 602.68 472.15 604.82 478.68 606.86 484.79 610.14 493.6 614.78 508.66 615.66 514.84 613.29 524.74 601.14 536.02 594.2 539.28 589.05 541.86 583.32 544.59 577.09 547.59 570.62 551.27 563.73 555.4 556.48 560.08 549.08 565.59 541.4 571.71 533.51 578.45 525.53 585.94 517.39 593.93 509.15 602.28 500.87 611.01 492.52 619.76 484.15 628.27 475.77 636.55 467.38 644.11 459.01 650.67 450.66 656.3 442.33 660.49 434.05 663.03 425.78 664.19 417.56 663.53 409.41 661.02 401.26 657.19 393.35 651.86 385.7 645.33 378.03 638.15 370.6 630.33 363.41 622.17 356.19 614.2 349.19 606.41 342.4 599.02 335.57 592.43 328.95 586.53 322.51 581.39 316.01 577.3 309.69 573.96 303.54 571.32 297.31 569.61 291.22 568.38 285.29 567.48 279.24 567.19 273.33 566.94 267.55 566.6 258.75 566.23 241.57 563.22 233.22 560.14 227.58 557.61 222.09 554.4 216.78 550.5 211.38 546.32 206.19 541.5 201.22 536.09 196.24 530.43 191.52 524.26 187.11 517.64 182.74 510.85 178.73 503.7 175.12 496.26 171.63 488.72 168.57 480.96 166.01 473.03 163.62 465.06 161.76 456.96 160.47 448.79 159.4 440.62 158.91 432.38 159.04 424.12 159.41 415.86 160.37 407.76 161.9 399.84 163.62 391.9 165.87 384.11 168.6 376.46 171.46 368.78 174.76 361.2 178.44 353.73 182.17 346.17 186.25 338.67 190.62 331.22 194.97 323.65 199.58 316.08 204.41 308.51 209.15 300.79 214.08 293.04 219.17 285.27 224.14 277.36 229.26 269.42 234.5 261.5 239.6 253.49 244.84 245.54 250.19 237.7 255.4 229.9 260.74 222.31 266.21 215.01 271.55 207.92 277.05 201.26 282.7 195.13 288.23 189.38 293.95 184.28 299.84 179.93 305.65 176.09 311.66 173.07 317.88 170.92 324.03 169.29 330.4 168.5 337 168.52 343.55 168.92 350.35 169.99 357.38 171.65 364.38 173.37 371.64 175.44 379.15 177.75 386.64 179.73 394.4 181.71 402.42 183.56" stroke-dasharray="20 1" transform="rotate(60.599999999999994, 400, 400)" opacity="0.71"></path><path d="M411.02 205.27C418.46 206.46 425.96 207.43 433.49 208.16 441.02 208.31 448.6 208.27 456.19 208.08 463.78 207.43 471.39 206.78 478.97 206.19 486.55 205.37 494.1 204.8 501.57 204.53 509.01 204.28 516.35 204.5 523.54 205.22 530.66 206.16 537.59 207.69 544.28 209.84 550.83 212.3 557.08 215.4 562.97 219.11 568.67 223.16 573.94 227.78 578.73 232.92 583.26 238.36 587.25 244.25 590.65 250.54 593.75 257.05 596.22 263.88 598.04 270.96 599.56 278.19 600.43 285.61 600.64 293.16 600.62 300.8 600 308.52 598.83 316.28 597.54 324.09 595.8 331.91 593.68 339.72 591.64 347.54 589.36 355.33 586.92 363.06 584.78 370.8 582.65 378.47 580.6 386.04 579.06 393.62 577.73 401.09 576.65 408.43 576.22 415.77 576.08 422.79 576.24 429.48 576.99 436.15 577.95 442.48 579.05 448.43 581.39 457.13 586.2 472.54 588.23 479.22 590.5 490.83 588.26 505.42 585.2 509.74 581.16 514.43 569.85 524.9 562.73 531.1 557.62 535.92 552.09 541.14 546.18 546.78 540.13 553.04 533.76 559.72 527.12 566.78 520.39 574.31 513.43 582.06 506.31 589.92 499.14 597.91 491.83 605.71 484.43 613.12 477.01 620.18 469.52 626.51 461.99 631.88 454.46 636.42 446.9 639.71 439.34 641.59 431.78 642.36 424.22 641.6 416.68 639.32 409.15 635.97 401.8 631.35 394.65 625.69 387.49 619.47 380.52 612.6 373.74 605.33 366.93 598.09 360.29 590.85 353.83 583.78 347.33 577.24 340.99 571.12 334.8 565.52 328.56 560.69 322.46 556.44 316.49 552.75 310.46 549.83 304.54 547.38 298.75 545.31 290 543.2 272.91 540.05 264.59 538.42 256.26 536.69 240.15 531.2 232.45 527.19 227.34 524.22 222.42 520.72 217.75 516.71 213.07 512.55 208.67 507.9 204.56 502.8 200.52 497.57 196.82 491.94 193.49 485.95 190.29 479.87 187.5 473.47 185.17 466.8 183 460.09 181.32 453.14 180.16 445.99 179.2 438.83 178.79 431.48 178.93 423.97 179.29 416.46 180.19 408.97 181.62 401.52 183.22 394.06 185.31 386.63 187.85 379.24 190.51 371.82 193.58 364.42 197.01 357.03 200.52 349.6 204.34 342.16 208.46 334.72 212.58 327.22 216.95 319.7 221.54 312.18 226.09 304.59 230.82 297.01 235.72 289.44 240.53 281.84 245.5 274.3 250.59 266.84 255.57 259.42 260.68 252.16 265.91 245.11 271.02 238.2 276.25 231.59 281.59 225.36 286.83 219.4 292.19 213.91 297.68 208.98 303.07 204.42 308.61 200.5 314.3 197.28 319.9 194.49 325.67 192.43 331.61 191.11 337.48 190.19 343.54 189.97 349.78 190.42 355.99 191.12 362.39 192.35 368.99 194.05 375.57 195.74 382.36 197.7 389.36 199.85 396.36 201.69 403.57 203.52 411.01 205.27" stroke-dasharray="2 19" transform="rotate(64.64, 400, 400)" opacity="0.94"></path><path d="M417.84 226.97C424.64 228.12 431.46 229.1 438.26 229.9 445.06 230.21 451.85 230.36 458.61 230.38 465.36 229.99 472.07 229.58 478.7 229.19 485.31 228.54 491.84 228.05 498.23 227.76 504.59 227.4 510.79 227.37 516.79 227.71 525.56 228.57 541.62 232.94 548.73 236.54 555.22 241 565.75 252.71 569.66 259.8 571.88 264.87 573.59 270.29 574.76 275.99 575.74 281.86 576.21 287.97 576.18 294.26 576 300.67 575.38 307.23 574.33 313.88 573.25 320.61 571.83 327.4 570.12 334.21 568.52 341.06 566.75 347.91 564.84 354.73 563.21 361.56 561.56 368.35 559.94 375.04 558.75 381.75 557.68 388.35 556.76 394.82 556.36 401.3 556.15 407.48 556.13 413.35 556.87 422.01 559.43 437.75 560.96 444.85 562.75 451.66 565.5 463.96 566.18 469.56 566.43 475.13 564.62 485.95 562.45 491.46 559.55 497.47 551.11 510.81 545.65 518.36 541.71 523.91 537.37 529.76 532.67 535.88 527.85 542.39 522.7 549.13 517.27 556.04 511.75 563.18 505.97 570.35 499.99 577.42 493.95 584.44 487.73 591.16 481.36 597.4 474.96 603.25 468.44 608.39 461.82 612.67 455.19 616.23 448.48 618.72 441.72 620.05 434.95 620.48 428.13 619.67 421.27 617.61 414.42 614.71 407.68 610.77 401.09 605.93 394.49 600.6 388.02 594.67 381.68 588.32 375.33 581.89 369.1 575.33 362.99 568.79 356.86 562.54 350.85 556.51 344.95 550.78 339.01 545.58 333.18 540.77 327.46 536.36 321.69 532.55 316.01 529.12 310.44 526.02 302.05 522.29 285.68 516.34 277.73 513.71 269.82 511.33 254.63 505.72 247.43 502.23 240.4 498.38 227.5 488.69 221.74 482.81 216.4 476.46 207.6 461.83 204.28 453.64 202.35 448.05 200.87 442.16 199.85 435.99 199.01 429.81 198.66 423.36 198.81 416.68 199.16 409.99 200 403.22 201.3 396.4 202.76 389.58 204.67 382.7 206.98 375.78 209.41 368.86 212.22 361.9 215.37 354.9 218.59 347.91 222.12 340.88 225.92 333.84 229.75 326.79 233.83 319.74 238.12 312.71 242.39 305.7 246.85 298.72 251.48 291.83 256.07 284.98 260.8 278.26 265.66 271.69 270.45 265.25 275.37 259.02 280.4 253.08 285.34 247.33 290.4 241.92 295.56 236.93 300.64 232.22 305.83 227.97 311.13 224.26 319.02 219.48 335.3 213.41 343.72 212.16 349.32 211.81 355.07 212.03 360.96 212.77 366.82 213.65 372.83 214.95 378.99 216.62 385.14 218.22 391.45 220.04 397.93 222 404.39 223.67 411.03 225.35 417.83 226.97" stroke-dasharray="10 12" transform="rotate(68.68, 400, 400)" opacity="0.52"></path><path d="M421.79 248.67C433.99 250.44 446.03 251.74 457.76 252.58 469.44 251.99 480.73 251.43 491.4 251.22 501.9 250.5 511.59 250.82 520.24 252.4 528.49 254.34 535.48 257.9 540.97 263.02 545.91 268.8 549.25 276.09 550.91 284.61 552.12 293.68 551.82 303.72 550.14 314.42 548.55 325.4 546.09 336.79 543.04 348.29 540.9 359.89 538.77 371.45 536.88 382.75 536.52 394.05 536.57 404.51 536.91 414.1 538.45 423.73 539.8 432.61 540.7 440.82 542.04 449.3 542.37 457.44 541.51 465.44 540.48 474.16 537.95 483.19 533.93 492.72 529.49 503.35 523.55 514.71 516.28 526.65 508.63 539.39 499.81 552.22 490.03 564.46 480.05 576.11 469.29 585.93 457.94 593.02 446.54 597.8 434.66 598.87 422.44 595.91 410.22 590.37 398.24 581.76 386.62 571.09 374.96 559.94 363.59 548.28 352.58 536.91 341.48 526.85 330.67 517.73 320.22 509.68 309.65 503.28 299.42 497.6 289.65 492.32 279.8 488.03 270.45 483.49 261.79 478.36 253.21 473.54 245.44 467.71 238.71 460.76 232.3 453.78 227.11 445.57 223.36 436.16 220.16 426.7 218.55 416.09 218.7 404.42 219.51 392.74 222.02 380.61 226.02 368.22 230.47 355.88 236.23 343.33 243.06 330.8 250.05 318.39 257.93 306.14 266.49 294.34 274.99 282.93 284.06 272.27 293.57 262.73 302.89 253.99 312.64 246.73 322.73 241.3 332.62 236.92 342.92 234.48 353.58 234.05 364.11 234.33 375.08 236.18 386.45 239.34 397.78 242.13 409.58 245.36 421.78 248.67" stroke-dasharray="21 17" transform="rotate(72.72, 400, 400)" opacity="0.57"></path><path d="M422.23 270.38C432.92 272.08 443.28 273.51 453.18 274.64 463.04 274.58 472.37 274.53 481.01 274.69 489.5 274.25 497.17 274.49 503.84 275.59 512.88 277.87 524.49 288.91 526.85 297.64 527.79 304.18 527.61 311.69 526.4 319.94 525.38 328.41 523.69 337.45 521.51 346.85 520.06 356.32 518.51 366.03 516.99 375.81 516.61 385.59 516.38 394.97 516.25 403.92 517.04 412.93 517.63 421.63 517.84 430.09 518.51 438.81 518.43 447.53 517.49 456.35 516.56 465.69 514.52 475.38 511.33 485.42 507.94 496.1 503.35 507.13 497.64 518.27 491.7 529.64 484.7 540.65 476.8 550.76 468.75 560.11 459.89 567.71 450.36 572.96 440.79 576.39 430.62 576.89 419.99 574.21 409.36 569.6 398.78 562.51 388.37 553.63 377.95 544.17 367.68 533.96 357.65 523.61 347.59 513.95 337.73 504.7 328.19 496.07 318.61 488.58 309.33 481.62 300.5 475.1 291.68 469.45 283.36 463.83 275.69 458.03 268.15 452.66 261.38 446.75 255.55 440.17 250.04 433.7 245.6 426.39 242.43 418.18 239.74 409.98 238.4 400.85 238.59 390.84 239.32 380.84 241.51 370.46 245 359.91 248.88 349.42 253.92 338.85 259.92 328.43 266.12 318.19 273.15 308.28 280.82 298.95 288.52 290.04 296.78 281.95 305.46 274.99 314.06 268.68 323.06 263.7 332.35 260.26 341.55 257.54 351.07 256.36 360.85 256.71 370.55 257.42 380.57 259.32 390.81 262.18 401.04 264.62 411.54 267.43 422.23 270.38" stroke-dasharray="4 10" transform="rotate(76.76, 400, 400)" opacity="0.22"></path><path d="M419.1 292.08C428.19 293.69 436.86 295.18 445 296.52 453.11 296.93 460.64 297.38 467.48 297.96 477.2 298.18 492.23 301.07 497.26 304.4 501.07 308.77 503.86 322.32 503.18 331.27 502.7 337.6 501.69 344.59 500.24 352.11 499.36 359.66 498.29 367.68 497.11 376.07 496.72 384.45 496.3 392.82 495.84 401.11 496.05 409.46 496.03 417.84 495.69 426.23 495.74 434.81 495.24 443.55 494.1 452.43 493.08 461.62 491.24 471.04 488.56 480.59 485.82 490.39 482.17 500.23 477.62 509.83 472.96 519.32 467.43 528.21 461.09 536.09 454.67 543.22 447.49 548.82 439.66 552.48 431.8 554.8 423.32 554.87 414.33 552.51 405.33 548.76 396.26 543.06 387.25 535.87 378.24 528.13 369.28 519.55 360.48 510.57 351.68 501.86 343.04 493.16 334.66 484.71 326.3 476.92 318.23 469.43 310.56 462.25 302.96 455.7 295.82 449.27 289.29 442.88 282.91 436.87 277.21 430.66 272.35 424.14 267.77 417.78 264.11 410.96 261.53 403.62 259.33 396.32 258.27 388.43 258.47 379.99 259.11 371.56 260.97 362.98 263.93 354.43 267.21 345.94 271.48 337.55 276.59 329.47 281.9 321.55 287.95 314.07 294.6 307.25 301.32 300.76 308.56 295.07 316.2 290.39 323.85 286.15 331.85 283.02 340.11 281.11 348.35 279.59 356.85 279.24 365.52 280.01 374.17 280.9 383.02 282.64 391.97 285.11 400.92 287.15 410 289.53 419.1 292.08" stroke-dasharray="10 15" transform="rotate(80.80000000000001, 400, 400)" opacity="0.12"></path><path d="M412.89 313.78C420.36 315.25 427.38 316.73 433.89 318.19 443.34 319.4 459.21 321.69 465.42 323.26 474.33 327.93 480.65 341 480.58 347.75 480.54 352.5 480.08 357.89 479.24 363.86 478.8 369.84 478.12 376.38 477.22 383.45 476.86 390.52 476.34 397.79 475.67 405.2 475.47 412.64 475.01 420.26 474.27 428 473.83 435.84 472.96 443.84 471.63 451.94 470.44 460.14 468.67 468.42 466.29 476.63 463.93 484.85 460.9 492.88 457.21 500.49 453.48 507.85 449.07 514.54 444.02 520.27 438.92 525.38 433.2 529.24 426.9 531.61 420.58 533.05 413.72 532.82 406.36 530.8 399 527.86 391.52 523.42 384.03 517.81 376.56 511.74 369.08 504.86 361.72 497.49 354.38 490.12 347.16 482.54 340.16 474.93 333.22 467.63 326.53 460.4 320.2 453.32 313.96 446.6 308.12 439.97 302.81 433.45 297.66 427.18 293.08 420.89 289.21 414.54 285.56 408.33 282.68 401.94 280.67 395.38 278.94 388.85 278.14 382.07 278.36 375.1 278.9 368.12 280.42 361.27 282.83 354.64 285.49 348.05 288.97 341.74 293.15 335.84 297.5 330.06 302.5 324.77 308 320.13 313.6 315.67 319.67 311.93 326.09 309.02 332.56 306.35 339.35 304.52 346.36 303.6 353.39 302.85 360.62 302.92 367.98 303.8 375.35 304.63 382.83 306.09 390.35 308.08 397.87 309.71 405.41 311.63 412.89 313.78" stroke-dasharray="18 6" transform="rotate(84.84, 400, 400)" opacity="0.52"></path><path d="M404.6 335.48C416.33 337.55 426.44 340.11 434.61 343.02 445.71 345.79 457.51 357.22 458.64 367.37 459.41 374.73 458.96 384.23 457.33 395.75 457.03 407.28 455.76 419.84 453.59 432.78 452.27 445.8 449.46 459.16 445.09 471.89 440.93 484.23 434.8 495.13 426.83 503.19 418.81 509.48 408.89 511.77 397.37 509.1 385.84 504.12 373.91 495.23 362.28 484.05 350.78 472.49 339.72 459.88 329.85 447.26 320.3 435.24 312.18 423.23 306.22 411.58 300.91 400.26 298.04 388.82 298.24 377.61 299.32 366.4 303.37 356.43 309.69 348.16 316.56 340.08 325.41 334.03 335.5 330.45 345.82 327.18 357.2 326.32 368.94 327.87 380.76 328.97 392.88 331.61 404.6 335.48" stroke-dasharray="0 20" transform="rotate(88.88, 400, 400)" opacity="0.58"></path><path d="M395.58 357.19C404.18 358.98 411.61 361.46 417.64 364.42 425.98 367.95 435.74 378.96 437.39 387.28 438.46 393.13 438.5 400.5 437.45 409.32 437.11 418.14 435.79 427.63 433.64 437.22 431.99 446.77 429.24 456.24 425.42 464.89 421.79 473.12 416.87 480.04 410.75 484.8 404.64 488.52 397.26 489.57 388.8 487.4 380.33 483.95 371.64 477.85 363.23 470.01 354.91 461.75 346.99 452.37 340 442.65 333.24 433.05 327.57 423.26 323.49 413.8 319.81 404.46 317.88 395.32 318.13 386.79 318.91 378.26 321.79 371.11 326.32 365.52 331.21 359.95 337.57 355.99 344.9 353.79 352.4 351.57 360.73 350.98 369.36 352 378.06 352.58 386.97 354.34 395.58 357.19" stroke-dasharray="3 17" transform="rotate(92.92, 400, 400)" opacity="0.42"></path><path d="M387.26 378.89C398.51 381.11 406.98 386.15 411.78 393.03 416.89 398.96 419.05 408.16 417.56 420.11 417.28 432.05 413.63 444.6 407.59 454.54 401.97 463.53 393.13 468.21 382.03 465.7 370.93 460.99 359.79 450.41 351.12 437.9 342.91 425.18 337.79 411.5 338.02 399.9 339.23 388.3 345.63 380.79 354.76 377.81 364.3 374.42 376.02 374.74 387.26 378.89" stroke-dasharray="16 4" transform="rotate(96.96, 400, 400)" opacity="0.78"></path></g></svg>