<svg xmlns="http://www.w3.org/2000/svg" version="1.1" xmlns:xlink="http://www.w3.org/1999/xlink" xmlns:svgjs="http://svgjs.dev/svgjs" viewBox="0 0 800 800"><circle r="10" cx="142" cy="84" stroke-width="2" stroke="hsl(236, 50%, 50%)" fill="none"></circle><circle r="14.5" cx="350" cy="725" stroke-width="2" stroke="hsl(320, 50%, 50%)" fill="none"></circle><circle r="11.5" cx="451" cy="285" fill="hsl(315, 50%, 50%)"></circle><circle r="10.5" cx="644" cy="714" fill="hsl(167, 50%, 50%)"></circle><circle r="14.5" cx="186" cy="27" stroke-width="2" stroke="hsl(208, 50%, 50%)" fill="none"></circle><circle r="5.5" cx="607" cy="276" stroke-width="2" stroke="hsl(181, 50%, 50%)" fill="none"></circle><circle r="10" cx="103" cy="283" stroke-width="2" stroke="hsl(236, 50%, 50%)" fill="none"></circle><circle r="10.5" cx="150" cy="618" stroke-width="2" stroke="hsl(209, 50%, 50%)" fill="none"></circle><circle r="8.5" cx="639" cy="675" fill="hsl(167, 50%, 50%)"></circle><circle r="9" cx="63" cy="426" fill="hsl(263, 50%, 50%)"></circle><circle r="10.5" cx="239" cy="102" fill="hsl(237, 50%, 50%)"></circle><circle r="9.5" cx="689" cy="750" fill="hsl(160, 50%, 50%)"></circle><circle r="7.5" cx="16" cy="130" stroke-width="2" stroke="hsl(297, 50%, 50%)" fill="none"></circle><circle r="8" cx="719" cy="423" stroke-width="2" stroke="hsl(159, 50%, 50%)" fill="none"></circle><circle r="17" cx="376" cy="638" fill="hsl(331, 50%, 50%)"></circle><circle r="8.5" cx="553" cy="371" fill="hsl(218, 50%, 50%)"></circle><circle r="15" cx="80" cy="197" fill="hsl(254, 50%, 50%)"></circle><circle r="10.5" cx="29" cy="677" fill="hsl(286, 50%, 50%)"></circle><circle r="6.5" cx="647" cy="474" fill="hsl(167, 50%, 50%)"></circle><circle r="5" cx="583" cy="65" stroke-width="2" stroke="hsl(105, 50%, 50%)" fill="none"></circle><circle r="10.5" cx="99" cy="320" fill="hsl(245, 50%, 50%)"></circle><circle r="14" cx="279" cy="451" stroke-width="2" stroke="hsl(254, 50%, 50%)" fill="none"></circle><circle r="10" cx="441" cy="606" fill="hsl(322, 50%, 50%)"></circle><circle r="8.5" cx="746" cy="770" stroke-width="2" stroke="hsl(158, 50%, 50%)" fill="none"></circle><circle r="11.5" cx="356" cy="449" fill="hsl(320, 50%, 50%)"></circle><circle r="12" cx="196" cy="83" fill="hsl(226, 50%, 50%)"></circle><circle r="8" cx="505" cy="636" stroke-width="2" stroke="hsl(269, 50%, 50%)" fill="none"></circle><circle r="11.5" cx="490" cy="330" stroke-width="2" stroke="hsl(282, 50%, 50%)" fill="none"></circle><circle r="8.5" cx="767" cy="718" stroke-width="2" stroke="hsl(158, 50%, 50%)" fill="none"></circle><circle r="13" cx="773" cy="229" stroke-width="2" stroke="hsl(158, 50%, 50%)" fill="none"></circle><circle r="7.5" cx="466" cy="456" stroke-width="2" stroke="hsl(305, 50%, 50%)" fill="none"></circle><circle r="13.5" cx="96" cy="441" stroke-width="2" stroke="hsl(245, 50%, 50%)" fill="none"></circle><circle r="8.5" cx="123" cy="187" stroke-width="2" stroke="hsl(237, 50%, 50%)" fill="none"></circle><circle r="5" cx="283" cy="155" fill="hsl(259, 50%, 50%)"></circle><circle r="14.5" cx="496" cy="697" stroke-width="2" stroke="hsl(282, 50%, 50%)" fill="none"></circle><circle r="11" cx="518" cy="261" fill="hsl(256, 50%, 50%)"></circle><circle r="9" cx="647" cy="610" stroke-width="2" stroke="hsl(167, 50%, 50%)" fill="none"></circle><circle r="6.5" cx="726" cy="123" fill="hsl(80, 50%, 50%)"></circle><circle r="13.5" cx="287" cy="256" fill="hsl(254, 50%, 50%)"></circle><circle r="14" cx="58" cy="121" fill="hsl(285, 50%, 50%)"></circle><circle r="14.5" cx="429" cy="150" fill="hsl(298, 50%, 50%)"></circle><circle r="9" cx="655" cy="299" fill="hsl(164, 50%, 50%)"></circle><circle r="10" cx="272" cy="584" stroke-width="2" stroke="hsl(242, 50%, 50%)" fill="none"></circle><circle r="10.5" cx="581" cy="667" fill="hsl(197, 50%, 50%)"></circle><circle r="8" cx="242" cy="586" stroke-width="2" stroke="hsl(223, 50%, 50%)" fill="none"></circle><circle r="7" cx="671" cy="360" fill="hsl(163, 50%, 50%)"></circle><circle r="9" cx="585" cy="366" fill="hsl(197, 50%, 50%)"></circle><circle r="9" cx="199" cy="276" fill="hsl(203, 50%, 50%)"></circle><circle r="6" cx="568" cy="42" fill="hsl(101, 50%, 50%)"></circle><circle r="8" cx="540" cy="481" fill="hsl(230, 50%, 50%)"></circle><circle r="11" cx="310" cy="74" stroke-width="2" stroke="hsl(255, 50%, 50%)" fill="none"></circle><circle r="9.5" cx="741" cy="586" stroke-width="2" stroke="hsl(158, 50%, 50%)" fill="none"></circle><circle r="12" cx="74" cy="350" stroke-width="2" stroke="hsl(263, 50%, 50%)" fill="none"></circle><circle r="10" cx="22" cy="319" fill="hsl(292, 50%, 50%)"></circle><circle r="9" cx="213" cy="644" stroke-width="2" stroke="hsl(209, 50%, 50%)" fill="none"></circle><circle r="10" cx="567" cy="124" stroke-width="2" stroke="hsl(141, 50%, 50%)" fill="none"></circle><circle r="8" cx="605" cy="584" fill="hsl(181, 50%, 50%)"></circle><circle r="11" cx="459" cy="234" stroke-width="2" stroke="hsl(315, 50%, 50%)" fill="none"></circle><circle r="8.5" cx="272" cy="65" stroke-width="2" stroke="hsl(242, 50%, 50%)" fill="none"></circle><circle r="13.5" cx="96" cy="94" stroke-width="2" stroke="hsl(262, 50%, 50%)" fill="none"></circle><circle r="7" cx="703" cy="522" fill="hsl(160, 50%, 50%)"></circle><circle r="8" cx="572" cy="522" stroke-width="2" stroke="hsl(206, 50%, 50%)" fill="none"></circle><circle r="9" cx="155" cy="354" fill="hsl(209, 50%, 50%)"></circle><circle r="11.5" cx="219" cy="358" stroke-width="2" stroke="hsl(209, 50%, 50%)" fill="none"></circle><circle r="10.5" cx="146" cy="448" fill="hsl(214, 50%, 50%)"></circle><circle r="10.5" cx="47" cy="376" fill="hsl(279, 50%, 50%)"></circle><circle r="7.5" cx="577" cy="267" stroke-width="2" stroke="hsl(197, 50%, 50%)" fill="none"></circle><circle r="16" cx="283" cy="363" fill="hsl(254, 50%, 50%)"></circle><circle r="8.5" cx="707" cy="555" fill="hsl(160, 50%, 50%)"></circle><circle r="4.5" cx="667" cy="158" stroke-width="2" stroke="hsl(125, 50%, 50%)" fill="none"></circle><circle r="11.5" cx="303" cy="607" fill="hsl(278, 50%, 50%)"></circle><circle r="12" cx="540" cy="618" fill="hsl(230, 50%, 50%)"></circle><circle r="7" cx="46" cy="407" stroke-width="2" stroke="hsl(279, 50%, 50%)" fill="none"></circle><circle r="8" cx="589" cy="490" fill="hsl(188, 50%, 50%)"></circle><circle r="11.5" cx="110" cy="735" stroke-width="2" stroke="hsl(236, 50%, 50%)" fill="none"></circle><circle r="9.5" cx="552" cy="310" fill="hsl(218, 50%, 50%)"></circle><circle r="7.5" cx="587" cy="549" stroke-width="2" stroke="hsl(197, 50%, 50%)" fill="none"></circle><circle r="16" cx="24" cy="770" fill="hsl(292, 50%, 50%)"></circle><circle r="6.5" cx="300" cy="11" fill="hsl(257, 50%, 50%)"></circle><circle r="10.5" cx="767" cy="176" stroke-width="2" stroke="hsl(141, 50%, 50%)" fill="none"></circle><circle r="15.5" cx="62" cy="737" stroke-width="2" stroke="hsl(271, 50%, 50%)" fill="none"></circle><circle r="9" cx="612" cy="530" fill="hsl(181, 50%, 50%)"></circle><circle r="10.5" cx="714" cy="178" stroke-width="2" stroke="hsl(143, 50%, 50%)" fill="none"></circle><circle r="9" cx="398" cy="59" stroke-width="2" stroke="hsl(239, 50%, 50%)" fill="none"></circle><circle r="8.5" cx="637" cy="568" fill="hsl(170, 50%, 50%)"></circle><circle r="11.5" cx="189" cy="196" fill="hsl(203, 50%, 50%)"></circle><circle r="10" cx="110" cy="555" stroke-width="2" stroke="hsl(236, 50%, 50%)" fill="none"></circle><circle r="13.5" cx="254" cy="411" fill="hsl(232, 50%, 50%)"></circle><circle r="9.5" cx="680" cy="592" fill="hsl(162, 50%, 50%)"></circle><circle r="8.5" cx="58" cy="39" fill="hsl(228, 50%, 50%)"></circle><circle r="8" cx="177" cy="782" stroke-width="2" stroke="hsl(203, 50%, 50%)" fill="none"></circle><circle r="8" cx="632" cy="502" stroke-width="2" stroke="hsl(170, 50%, 50%)" fill="none"></circle><circle r="7" cx="750" cy="683" stroke-width="2" stroke="hsl(158, 50%, 50%)" fill="none"></circle><circle r="8" cx="424" cy="14" stroke-width="2" stroke="hsl(209, 50%, 50%)" fill="none"></circle><circle r="12.5" cx="458" cy="349" stroke-width="2" stroke="hsl(315, 50%, 50%)" fill="none"></circle><circle r="7" cx="399" cy="29" fill="hsl(232, 50%, 50%)"></circle><circle r="13" cx="454" cy="520" stroke-width="2" stroke="hsl(315, 50%, 50%)" fill="none"></circle><circle r="8" cx="614" cy="244" stroke-width="2" stroke="hsl(175, 50%, 50%)" fill="none"></circle><circle r="10.5" cx="359" cy="524" fill="hsl(320, 50%, 50%)"></circle><circle r="14" cx="370" cy="771" stroke-width="2" stroke="hsl(326, 50%, 50%)" fill="none"></circle><circle r="10.5" cx="138" cy="45" fill="hsl(213, 50%, 50%)"></circle><circle r="11.5" cx="576" cy="415" fill="hsl(197, 50%, 50%)"></circle><circle r="9.5" cx="450" cy="637" stroke-width="2" stroke="hsl(315, 50%, 50%)" fill="none"></circle><circle r="15" cx="400" cy="185" stroke-width="2" stroke="hsl(328, 50%, 50%)" fill="none"></circle><circle r="15" cx="203" cy="140" fill="hsl(229, 50%, 50%)"></circle><circle r="7.5" cx="144" cy="786" stroke-width="2" stroke="hsl(214, 50%, 50%)" fill="none"></circle><circle r="9" cx="15" cy="452" stroke-width="2" stroke="hsl(292, 50%, 50%)" fill="none"></circle><circle r="9" cx="701" cy="382" fill="hsl(160, 50%, 50%)"></circle><circle r="6.5" cx="552" cy="263" fill="hsl(218, 50%, 50%)"></circle><circle r="9.5" cx="180" cy="644" fill="hsl(203, 50%, 50%)"></circle><circle r="7" cx="272" cy="121" stroke-width="2" stroke="hsl(249, 50%, 50%)" fill="none"></circle><circle r="10" cx="635" cy="209" stroke-width="2" stroke="hsl(170, 50%, 50%)" fill="none"></circle><circle r="8" cx="679" cy="22" stroke-width="2" stroke="hsl(91, 50%, 50%)" fill="none"></circle><circle r="11.5" cx="69" cy="483" fill="hsl(263, 50%, 50%)"></circle><circle r="11" cx="18" cy="190" fill="hsl(292, 50%, 50%)"></circle><circle r="11" cx="230" cy="58" fill="hsl(228, 50%, 50%)"></circle><circle r="12" cx="544" cy="689" stroke-width="2" stroke="hsl(230, 50%, 50%)" fill="none"></circle><circle r="13" cx="754" cy="493" stroke-width="2" stroke="hsl(158, 50%, 50%)" fill="none"></circle><circle r="5" cx="643" cy="30" fill="hsl(81, 50%, 50%)"></circle><circle r="6" cx="750" cy="655" fill="hsl(158, 50%, 50%)"></circle><circle r="7.5" cx="671" cy="785" fill="hsl(163, 50%, 50%)"></circle><circle r="15.5" cx="101" cy="145" stroke-width="2" stroke="hsl(263, 50%, 50%)" fill="none"></circle><circle r="9" cx="692" cy="286" fill="hsl(160, 50%, 50%)"></circle><circle r="5.5" cx="238" cy="790" fill="hsl(223, 50%, 50%)"></circle><circle r="7" cx="659" cy="335" fill="hsl(164, 50%, 50%)"></circle><circle r="4.5" cx="771" cy="434" fill="hsl(158, 50%, 50%)"></circle><circle r="7" cx="254" cy="167" fill="hsl(241, 50%, 50%)"></circle><circle r="6.5" cx="316" cy="45" fill="hsl(256, 50%, 50%)"></circle><circle r="8" cx="509" cy="427" fill="hsl(269, 50%, 50%)"></circle><circle r="8" cx="79" cy="62" stroke-width="2" stroke="hsl(237, 50%, 50%)" fill="none"></circle><circle r="11" cx="212" cy="402" stroke-width="2" stroke="hsl(205, 50%, 50%)" fill="none"></circle><circle r="10.5" cx="154" cy="566" stroke-width="2" stroke="hsl(209, 50%, 50%)" fill="none"></circle><circle r="11.5" cx="336" cy="144" fill="hsl(290, 50%, 50%)"></circle><circle r="3.5" cx="671" cy="140" fill="hsl(114, 50%, 50%)"></circle><circle r="12.5" cx="60" cy="557" fill="hsl(271, 50%, 50%)"></circle><circle r="5.5" cx="318" cy="25" stroke-width="2" stroke="hsl(258, 50%, 50%)" fill="none"></circle><circle r="8" cx="750" cy="623" fill="hsl(158, 50%, 50%)"></circle><circle r="11" cx="440" cy="445" stroke-width="2" stroke="hsl(322, 50%, 50%)" fill="none"></circle><circle r="12" cx="513" cy="369" stroke-width="2" stroke="hsl(256, 50%, 50%)" fill="none"></circle><circle r="10" cx="351" cy="74" fill="hsl(258, 50%, 50%)"></circle><circle r="8" cx="529" cy="523" fill="hsl(243, 50%, 50%)"></circle><circle r="12.5" cx="303" cy="494" fill="hsl(278, 50%, 50%)"></circle><circle r="7" cx="652" cy="381" stroke-width="2" stroke="hsl(164, 50%, 50%)" fill="none"></circle><circle r="8.5" cx="782" cy="764" fill="hsl(158, 50%, 50%)"></circle><circle r="7" cx="373" cy="22" fill="hsl(247, 50%, 50%)"></circle><circle r="10.5" cx="138" cy="276" fill="hsl(214, 50%, 50%)"></circle><circle r="11" cx="327" cy="465" fill="hsl(301, 50%, 50%)"></circle><circle r="6" cx="576" cy="570" stroke-width="2" stroke="hsl(197, 50%, 50%)" fill="none"></circle><circle r="6.5" cx="350" cy="19" stroke-width="2" stroke="hsl(256, 50%, 50%)" fill="none"></circle><circle r="10" cx="399" cy="746" stroke-width="2" stroke="hsl(334, 50%, 50%)" fill="none"></circle><circle r="7" cx="670" cy="237" stroke-width="2" stroke="hsl(163, 50%, 50%)" fill="none"></circle><circle r="9" cx="714" cy="72" fill="hsl(71, 50%, 50%)"></circle><circle r="12" cx="436" cy="108" fill="hsl(249, 50%, 50%)"></circle><circle r="4.5" cx="686" cy="497" fill="hsl(162, 50%, 50%)"></circle><circle r="5.5" cx="489" cy="612" stroke-width="2" stroke="hsl(282, 50%, 50%)" fill="none"></circle><circle r="9" cx="206" cy="782" fill="hsl(205, 50%, 50%)"></circle><circle r="4" cx="792" cy="699" fill="hsl(158, 50%, 50%)"></circle><circle r="11.5" cx="402" cy="680" fill="hsl(334, 50%, 50%)"></circle><circle r="4.5" cx="650" cy="61" stroke-width="2" stroke="hsl(80, 50%, 50%)" fill="none"></circle><circle r="10.5" cx="406" cy="718" stroke-width="2" stroke="hsl(334, 50%, 50%)" fill="none"></circle><circle r="10" cx="412" cy="599" stroke-width="2" stroke="hsl(334, 50%, 50%)" fill="none"></circle><circle r="12" cx="194" cy="695" stroke-width="2" stroke="hsl(203, 50%, 50%)" fill="none"></circle><circle r="13" cx="521" cy="203" stroke-width="2" stroke="hsl(256, 50%, 50%)" fill="none"></circle><circle r="14.5" cx="329" cy="778" fill="hsl(301, 50%, 50%)"></circle><circle r="10" cx="443" cy="52" stroke-width="2" stroke="hsl(200, 50%, 50%)" fill="none"></circle><circle r="10" cx="137" cy="325" stroke-width="2" stroke="hsl(220, 50%, 50%)" fill="none"></circle><circle r="13.5" cx="272" cy="537" fill="hsl(242, 50%, 50%)"></circle><circle r="12" cx="308" cy="564" stroke-width="2" stroke="hsl(278, 50%, 50%)" fill="none"></circle><circle r="5.5" cx="587" cy="91" stroke-width="2" stroke="hsl(118, 50%, 50%)" fill="none"></circle><circle r="6.5" cx="510" cy="40" fill="hsl(139, 50%, 50%)"></circle><circle r="6" cx="639" cy="89" fill="hsl(93, 50%, 50%)"></circle><circle r="10" cx="350" cy="107" fill="hsl(275, 50%, 50%)"></circle><circle r="5" cx="547" cy="13" fill="hsl(104, 50%, 50%)"></circle><circle r="9" cx="422" cy="535" fill="hsl(332, 50%, 50%)"></circle><circle r="12" cx="394" cy="93" fill="hsl(261, 50%, 50%)"></circle><circle r="11" cx="239" cy="19" stroke-width="2" stroke="hsl(232, 50%, 50%)" fill="none"></circle><circle r="8" cx="614" cy="121" fill="hsl(115, 50%, 50%)"></circle><circle r="9" cx="613" cy="625" stroke-width="2" stroke="hsl(175, 50%, 50%)" fill="none"></circle><circle r="8.5" cx="17" cy="348" stroke-width="2" stroke="hsl(292, 50%, 50%)" fill="none"></circle><circle r="11.5" cx="87" cy="244" fill="hsl(254, 50%, 50%)"></circle><circle r="11" cx="195" cy="319" fill="hsl(203, 50%, 50%)"></circle><circle r="9" cx="276" cy="22" fill="hsl(250, 50%, 50%)"></circle><circle r="6" cx="787" cy="671" stroke-width="2" stroke="hsl(158, 50%, 50%)" fill="none"></circle><circle r="11.5" cx="365" cy="493" fill="hsl(326, 50%, 50%)"></circle><circle r="7" cx="343" cy="47" stroke-width="2" stroke="hsl(255, 50%, 50%)" fill="none"></circle><circle r="10.5" cx="275" cy="782" stroke-width="2" stroke="hsl(254, 50%, 50%)" fill="none"></circle><circle r="8.5" cx="586" cy="176" stroke-width="2" stroke="hsl(185, 50%, 50%)" fill="none"></circle><circle r="14" cx="20" cy="273" fill="hsl(292, 50%, 50%)"></circle><circle r="9" cx="301" cy="145" stroke-width="2" stroke="hsl(275, 50%, 50%)" fill="none"></circle><circle r="7.5" cx="662" cy="432" fill="hsl(164, 50%, 50%)"></circle><circle r="11.5" cx="774" cy="283" stroke-width="2" stroke="hsl(158, 50%, 50%)" fill="none"></circle><circle r="13" cx="159" cy="117" stroke-width="2" stroke="hsl(241, 50%, 50%)" fill="none"></circle><circle r="8.5" cx="483" cy="441" stroke-width="2" stroke="hsl(294, 50%, 50%)" fill="none"></circle><circle r="13" cx="710" cy="705" fill="hsl(160, 50%, 50%)"></circle><circle r="10" cx="204" cy="544" stroke-width="2" stroke="hsl(205, 50%, 50%)" fill="none"></circle><circle r="10.5" cx="400" cy="518" fill="hsl(334, 50%, 50%)"></circle><circle r="9.5" cx="540" cy="86" stroke-width="2" stroke="hsl(133, 50%, 50%)" fill="none"></circle><circle r="7" cx="544" cy="339" fill="hsl(230, 50%, 50%)"></circle><circle r="10" cx="145" cy="717" stroke-width="2" stroke="hsl(214, 50%, 50%)" fill="none"></circle><circle r="9.5" cx="520" cy="552" fill="hsl(256, 50%, 50%)"></circle><circle r="8.5" cx="179" cy="730" stroke-width="2" stroke="hsl(203, 50%, 50%)" fill="none"></circle><circle r="12" cx="274" cy="214" fill="hsl(242, 50%, 50%)"></circle><circle r="10" cx="122" cy="591" stroke-width="2" stroke="hsl(228, 50%, 50%)" fill="none"></circle><circle r="9.5" cx="102" cy="630" stroke-width="2" stroke="hsl(236, 50%, 50%)" fill="none"></circle><circle r="11.5" cx="384" cy="590" fill="hsl(331, 50%, 50%)"></circle><circle r="12" cx="425" cy="336" stroke-width="2" stroke="hsl(332, 50%, 50%)" fill="none"></circle><circle r="9" cx="15" cy="378" fill="hsl(292, 50%, 50%)"></circle><circle r="11.5" cx="420" cy="633" fill="hsl(332, 50%, 50%)"></circle><circle r="14.5" cx="199" cy="450" stroke-width="2" stroke="hsl(203, 50%, 50%)" fill="none"></circle><circle r="8.5" cx="579" cy="629" fill="hsl(197, 50%, 50%)"></circle><circle r="17" cx="352" cy="212" fill="hsl(320, 50%, 50%)"></circle><circle r="5" cx="331" cy="8" stroke-width="2" stroke="hsl(261, 50%, 50%)" fill="none"></circle><circle r="10.5" cx="618" cy="336" stroke-width="2" stroke="hsl(175, 50%, 50%)" fill="none"></circle><circle r="11" cx="309" cy="111" fill="hsl(264, 50%, 50%)"></circle><circle r="9.5" cx="70" cy="620" fill="hsl(263, 50%, 50%)"></circle><circle r="11.5" cx="83" cy="526" stroke-width="2" stroke="hsl(254, 50%, 50%)" fill="none"></circle><circle r="12.5" cx="435" cy="675" fill="hsl(329, 50%, 50%)"></circle><circle r="14.5" cx="453" cy="399" stroke-width="2" stroke="hsl(315, 50%, 50%)" fill="none"></circle><circle r="9" cx="472" cy="768" fill="hsl(305, 50%, 50%)"></circle><circle r="20" cx="344" cy="351" fill="hsl(311, 50%, 50%)"></circle><circle r="17" cx="405" cy="299" stroke-width="2" stroke="hsl(334, 50%, 50%)" fill="none"></circle><circle r="12" cx="470" cy="664" fill="hsl(305, 50%, 50%)"></circle><circle r="6.5" cx="700" cy="449" fill="hsl(160, 50%, 50%)"></circle><circle r="13.5" cx="365" cy="683" fill="hsl(326, 50%, 50%)"></circle><circle r="7.5" cx="645" cy="260" fill="hsl(167, 50%, 50%)"></circle><circle r="10" cx="766" cy="539" stroke-width="2" stroke="hsl(158, 50%, 50%)" fill="none"></circle><circle r="10" cx="208" cy="743" fill="hsl(205, 50%, 50%)"></circle><circle r="6.5" cx="481" cy="631" stroke-width="2" stroke="hsl(294, 50%, 50%)" fill="none"></circle><circle r="9.5" cx="119" cy="222" fill="hsl(228, 50%, 50%)"></circle><circle r="9.5" cx="238" cy="627" stroke-width="2" stroke="hsl(223, 50%, 50%)" fill="none"></circle><circle r="10.5" cx="620" cy="163" stroke-width="2" stroke="hsl(152, 50%, 50%)" fill="none"></circle><circle r="7.5" cx="472" cy="598" stroke-width="2" stroke="hsl(305, 50%, 50%)" fill="none"></circle><circle r="9" cx="618" cy="440" fill="hsl(175, 50%, 50%)"></circle><circle r="10" cx="386" cy="449" fill="hsl(331, 50%, 50%)"></circle><circle r="15.5" cx="586" cy="727" fill="hsl(197, 50%, 50%)"></circle><circle r="11.5" cx="274" cy="632" fill="hsl(242, 50%, 50%)"></circle><circle r="14.5" cx="622" cy="771" stroke-width="2" stroke="hsl(175, 50%, 50%)" fill="none"></circle><circle r="15.5" cx="364" cy="403" stroke-width="2" stroke="hsl(326, 50%, 50%)" fill="none"></circle><circle r="8" cx="162" cy="400" fill="hsl(209, 50%, 50%)"></circle><circle r="10" cx="26" cy="644" fill="hsl(286, 50%, 50%)"></circle><circle r="11" cx="151" cy="679" fill="hsl(209, 50%, 50%)"></circle><circle r="10.5" cx="775" cy="337" fill="hsl(158, 50%, 50%)"></circle><circle r="11.5" cx="449" cy="712" fill="hsl(322, 50%, 50%)"></circle><circle r="19.5" cx="474" cy="188" fill="hsl(305, 50%, 50%)"></circle><circle r="6.5" cx="769" cy="133" stroke-width="2" stroke="hsl(86, 50%, 50%)" fill="none"></circle><circle r="6.5" cx="670" cy="524" stroke-width="2" stroke="hsl(163, 50%, 50%)" fill="none"></circle><circle r="8" cx="616" cy="377" fill="hsl(175, 50%, 50%)"></circle><circle r="6.5" cx="549" cy="505" fill="hsl(230, 50%, 50%)"></circle><circle r="8.5" cx="19" cy="104" stroke-width="2" stroke="hsl(288, 50%, 50%)" fill="none"></circle><circle r="6" cx="537" cy="47" fill="hsl(121, 50%, 50%)"></circle><circle r="10" cx="43" cy="461" fill="hsl(279, 50%, 50%)"></circle><circle r="13" cx="398" cy="359" fill="hsl(334, 50%, 50%)"></circle><circle r="6.5" cx="664" cy="107" fill="hsl(90, 50%, 50%)"></circle><circle r="8.5" cx="237" cy="763" stroke-width="2" stroke="hsl(215, 50%, 50%)" fill="none"></circle><circle r="8" cx="261" cy="728" stroke-width="2" stroke="hsl(232, 50%, 50%)" fill="none"></circle><circle r="14.5" cx="32" cy="227" fill="hsl(286, 50%, 50%)"></circle><circle r="13" cx="45" cy="163" stroke-width="2" stroke="hsl(288, 50%, 50%)" fill="none"></circle><circle r="13.5" cx="152" cy="168" stroke-width="2" stroke="hsl(227, 50%, 50%)" fill="none"></circle><circle r="9.5" cx="522" cy="454" fill="hsl(256, 50%, 50%)"></circle><circle r="6.5" cx="290" cy="46" stroke-width="2" stroke="hsl(251, 50%, 50%)" fill="none"></circle><circle r="11" cx="241" cy="272" fill="hsl(223, 50%, 50%)"></circle><circle r="12.5" cx="155" cy="235" stroke-width="2" stroke="hsl(209, 50%, 50%)" fill="none"></circle><circle r="16" cx="503" cy="133" fill="hsl(207, 50%, 50%)"></circle><circle r="14" cx="315" cy="656" stroke-width="2" stroke="hsl(290, 50%, 50%)" fill="none"></circle><circle r="5" cx="53" cy="279" fill="hsl(271, 50%, 50%)"></circle><circle r="7.5" cx="777" cy="91" stroke-width="2" stroke="hsl(69, 50%, 50%)" fill="none"></circle><circle r="8.5" cx="179" cy="376" fill="hsl(203, 50%, 50%)"></circle><circle r="11" cx="387" cy="558" fill="hsl(331, 50%, 50%)"></circle><circle r="7.5" cx="784" cy="579" stroke-width="2" stroke="hsl(158, 50%, 50%)" fill="none"></circle><circle r="11" cx="229" cy="190" fill="hsl(215, 50%, 50%)"></circle><circle r="4" cx="689" cy="478" fill="hsl(160, 50%, 50%)"></circle><circle r="10" cx="322" cy="693" stroke-width="2" stroke="hsl(290, 50%, 50%)" fill="none"></circle><circle r="10" cx="130" cy="411" stroke-width="2" stroke="hsl(220, 50%, 50%)" fill="none"></circle><circle r="7.5" cx="10" cy="154" fill="hsl(301, 50%, 50%)"></circle><circle r="9.5" cx="493" cy="479" fill="hsl(282, 50%, 50%)"></circle><circle r="15" cx="414" cy="230" fill="hsl(332, 50%, 50%)"></circle><circle r="9" cx="478" cy="20" fill="hsl(149, 50%, 50%)"></circle><circle r="9.5" cx="730" cy="299" stroke-width="2" stroke="hsl(158, 50%, 50%)" fill="none"></circle><circle r="8.5" cx="285" cy="750" fill="hsl(254, 50%, 50%)"></circle><circle r="17" cx="237" cy="494" fill="hsl(215, 50%, 50%)"></circle><circle r="6.5" cx="747" cy="439" fill="hsl(158, 50%, 50%)"></circle><circle r="7.5" cx="665" cy="187" fill="hsl(149, 50%, 50%)"></circle><circle r="10.5" cx="505" cy="581" stroke-width="2" stroke="hsl(269, 50%, 50%)" fill="none"></circle><circle r="16.5" cx="343" cy="599" fill="hsl(311, 50%, 50%)"></circle><circle r="9.5" cx="707" cy="341" fill="hsl(160, 50%, 50%)"></circle><circle r="11.5" cx="26" cy="22" fill="hsl(197, 50%, 50%)"></circle><circle r="11" cx="549" cy="169" fill="hsl(206, 50%, 50%)"></circle><circle r="9.5" cx="174" cy="521" fill="hsl(205, 50%, 50%)"></circle><circle r="13.5" cx="409" cy="400" stroke-width="2" stroke="hsl(334, 50%, 50%)" fill="none"></circle><circle r="11.5" cx="29" cy="610" stroke-width="2" stroke="hsl(286, 50%, 50%)" fill="none"></circle><circle r="6.5" cx="479" cy="790" stroke-width="2" stroke="hsl(294, 50%, 50%)" fill="none"></circle><circle r="10" cx="320" cy="526" stroke-width="2" stroke="hsl(290, 50%, 50%)" fill="none"></circle><circle r="12" cx="71" cy="661" stroke-width="2" stroke="hsl(263, 50%, 50%)" fill="none"></circle><circle r="9.5" cx="169" cy="291" stroke-width="2" stroke="hsl(205, 50%, 50%)" fill="none"></circle><circle r="9.5" cx="232" cy="715" stroke-width="2" stroke="hsl(215, 50%, 50%)" fill="none"></circle><circle r="9.5" cx="14" cy="413" fill="hsl(292, 50%, 50%)"></circle><circle r="8.5" cx="544" cy="227" stroke-width="2" stroke="hsl(230, 50%, 50%)" fill="none"></circle><circle r="10.5" cx="106" cy="489" fill="hsl(236, 50%, 50%)"></circle><circle r="11.5" cx="239" cy="320" stroke-width="2" stroke="hsl(223, 50%, 50%)" fill="none"></circle><circle r="8" cx="159" cy="755" fill="hsl(209, 50%, 50%)"></circle><circle r="12" cx="346" cy="554" fill="hsl(311, 50%, 50%)"></circle><circle r="12" cx="26" cy="72" stroke-width="2" stroke="hsl(259, 50%, 50%)" fill="none"></circle><circle r="11" cx="752" cy="376" stroke-width="2" stroke="hsl(158, 50%, 50%)" fill="none"></circle><circle r="7.5" cx="466" cy="86" stroke-width="2" stroke="hsl(195, 50%, 50%)" fill="none"></circle><circle r="4.5" cx="790" cy="423" stroke-width="2" stroke="hsl(158, 50%, 50%)" fill="none"></circle><circle r="10.5" cx="467" cy="739" stroke-width="2" stroke="hsl(305, 50%, 50%)" fill="none"></circle><circle r="9.5" cx="569" cy="455" stroke-width="2" stroke="hsl(206, 50%, 50%)" fill="none"></circle><circle r="9.5" cx="209" cy="583" fill="hsl(205, 50%, 50%)"></circle><circle r="6" cx="625" cy="292" stroke-width="2" stroke="hsl(170, 50%, 50%)" fill="none"></circle><circle r="8.5" cx="779" cy="34" fill="hsl(111, 50%, 50%)"></circle><circle r="12.5" cx="491" cy="515" fill="hsl(282, 50%, 50%)"></circle><circle r="9" cx="538" cy="414" fill="hsl(230, 50%, 50%)"></circle><circle r="9.5" cx="592" cy="219" stroke-width="2" stroke="hsl(188, 50%, 50%)" fill="none"></circle><circle r="8" cx="470" cy="260" fill="hsl(305, 50%, 50%)"></circle><circle r="7" cx="66" cy="265" fill="hsl(263, 50%, 50%)"></circle><circle r="14" cx="419" cy="781" fill="hsl(332, 50%, 50%)"></circle><circle r="10" cx="121" cy="659" fill="hsl(228, 50%, 50%)"></circle><circle r="18" cx="25" cy="509" fill="hsl(292, 50%, 50%)"></circle><circle r="11.5" cx="676" cy="654" fill="hsl(162, 50%, 50%)"></circle><circle r="8" cx="45" cy="303" stroke-width="2" stroke="hsl(279, 50%, 50%)" fill="none"></circle><circle r="11.5" cx="544" cy="780" fill="hsl(230, 50%, 50%)"></circle><circle r="12" cx="445" cy="484" stroke-width="2" stroke="hsl(322, 50%, 50%)" fill="none"></circle><circle r="8.5" cx="556" cy="584" fill="hsl(218, 50%, 50%)"></circle><circle r="9.5" cx="519" cy="659" fill="hsl(256, 50%, 50%)"></circle><circle r="8.5" cx="460" cy="577" stroke-width="2" stroke="hsl(315, 50%, 50%)" fill="none"></circle><circle r="13" cx="404" cy="482" stroke-width="2" stroke="hsl(334, 50%, 50%)" fill="none"></circle><circle r="18.5" cx="367" cy="261" fill="hsl(326, 50%, 50%)"></circle><circle r="13" cx="22" cy="713" stroke-width="2" stroke="hsl(292, 50%, 50%)" fill="none"></circle><circle r="6" cx="129" cy="12" stroke-width="2" stroke="hsl(183, 50%, 50%)" fill="none"></circle><circle r="14" cx="20" cy="567" fill="hsl(292, 50%, 50%)"></circle><circle r="10.5" cx="82" cy="783" fill="hsl(254, 50%, 50%)"></circle><circle r="14.5" cx="376" cy="140" fill="hsl(303, 50%, 50%)"></circle><circle r="7.5" cx="713" cy="784" fill="hsl(159, 50%, 50%)"></circle><circle r="8.5" cx="65" cy="315" fill="hsl(263, 50%, 50%)"></circle><circle r="7.5" cx="627" cy="409" fill="hsl(170, 50%, 50%)"></circle><circle r="10" cx="130" cy="518" fill="hsl(220, 50%, 50%)"></circle><circle r="9.5" cx="734" cy="26" stroke-width="2" stroke="hsl(95, 50%, 50%)" fill="none"></circle><circle r="6" cx="669" cy="460" stroke-width="2" stroke="hsl(163, 50%, 50%)" fill="none"></circle><circle r="9.5" cx="81" cy="591" stroke-width="2" stroke="hsl(254, 50%, 50%)" fill="none"></circle><circle r="7" cx="274" cy="95" fill="hsl(245, 50%, 50%)"></circle><circle r="9.5" cx="89" cy="21" fill="hsl(194, 50%, 50%)"></circle><circle r="12" cx="306" cy="728" stroke-width="2" stroke="hsl(278, 50%, 50%)" fill="none"></circle><circle r="14" cx="316" cy="187" fill="hsl(290, 50%, 50%)"></circle><circle r="13.5" cx="526" cy="737" stroke-width="2" stroke="hsl(243, 50%, 50%)" fill="none"></circle><circle r="9.5" cx="711" cy="621" fill="hsl(160, 50%, 50%)"></circle><circle r="16.5" cx="316" cy="412" fill="hsl(290, 50%, 50%)"></circle><circle r="6.5" cx="649" cy="537" fill="hsl(167, 50%, 50%)"></circle><circle r="6" cx="262" cy="149" stroke-width="2" stroke="hsl(244, 50%, 50%)" fill="none"></circle><circle r="7" cx="785" cy="629" stroke-width="2" stroke="hsl(158, 50%, 50%)" fill="none"></circle><circle r="11.5" cx="492" cy="400" fill="hsl(282, 50%, 50%)"></circle><circle r="13.5" cx="255" cy="679" fill="hsl(232, 50%, 50%)"></circle><circle r="4.5" cx="695" cy="124" stroke-width="2" stroke="hsl(89, 50%, 50%)" fill="none"></circle><circle r="7.5" cx="613" cy="474" stroke-width="2" stroke="hsl(175, 50%, 50%)" fill="none"></circle><circle r="11.5" cx="211" cy="238" stroke-width="2" stroke="hsl(205, 50%, 50%)" fill="none"></circle><circle r="10.5" cx="158" cy="485" stroke-width="2" stroke="hsl(209, 50%, 50%)" fill="none"></circle><circle r="5" cx="570" cy="234" fill="hsl(206, 50%, 50%)"></circle><circle r="6" cx="697" cy="230" fill="hsl(160, 50%, 50%)"></circle><circle r="11.5" cx="502" cy="296" stroke-width="2" stroke="hsl(269, 50%, 50%)" fill="none"></circle><circle r="14" cx="283" cy="312" stroke-width="2" stroke="hsl(254, 50%, 50%)" fill="none"></circle><circle r="11" cx="411" cy="436" fill="hsl(334, 50%, 50%)"></circle><circle r="9" cx="419" cy="562" stroke-width="2" stroke="hsl(332, 50%, 50%)" fill="none"></circle><circle r="12" cx="95" cy="694" fill="hsl(245, 50%, 50%)"></circle><circle r="9.5" cx="496" cy="79" fill="hsl(173, 50%, 50%)"></circle><circle r="8" cx="727" cy="231" fill="hsl(158, 50%, 50%)"></circle><circle r="8.5" cx="120" cy="771" fill="hsl(228, 50%, 50%)"></circle><circle r="6.5" cx="604" cy="18" fill="hsl(83, 50%, 50%)"></circle><circle r="6.5" cx="674" cy="405" stroke-width="2" stroke="hsl(163, 50%, 50%)" fill="none"></circle><circle r="8" cx="453" cy="556" stroke-width="2" stroke="hsl(315, 50%, 50%)" fill="none"></circle><circle r="5.5" cx="611" cy="59" stroke-width="2" stroke="hsl(92, 50%, 50%)" fill="none"></circle><circle r="16.5" cx="331" cy="294" stroke-width="2" stroke="hsl(301, 50%, 50%)" fill="none"></circle><circle r="9" cx="589" cy="303" stroke-width="2" stroke="hsl(188, 50%, 50%)" fill="none"></circle><circle r="12.5" cx="100" cy="382" fill="hsl(245, 50%, 50%)"></circle></svg>