<svg xmlns="http://www.w3.org/2000/svg" version="1.1" xmlns:xlink="http://www.w3.org/1999/xlink" xmlns:svgjs="http://svgjs.dev/svgjs" viewBox="0 0 800 800"><circle r="14" cx="454" cy="366" fill="hsl(255, 75%, 90%)" opacity="0.57"></circle><circle r="7.5" cx="751" cy="635" fill="hsl(170, 75%, 90%)" opacity="0.94"></circle><circle r="10" cx="32" cy="228" fill="hsl(74, 75%, 90%)" opacity="0.39"></circle><circle r="9" cx="712" cy="570" fill="hsl(235, 75%, 90%)" opacity="0.36"></circle><circle r="8.5" cx="286" cy="493" fill="hsl(142, 75%, 90%)" opacity="0.62"></circle><circle r="8" cx="745" cy="667" fill="hsl(188, 75%, 90%)" opacity="0.37"></circle><circle r="10" cx="344" cy="523" fill="hsl(196, 75%, 90%)" opacity="0.97"></circle><circle r="15" cx="476" cy="614" fill="hsl(261, 75%, 90%)" opacity="0.41"></circle><circle r="8" cx="164" cy="570" fill="hsl(84, 75%, 90%)" opacity="0.75"></circle><circle r="12" cx="407" cy="104" fill="hsl(211, 75%, 90%)" opacity="0.72"></circle><circle r="6.5" cx="395" cy="359" fill="hsl(232, 75%, 90%)" opacity="0.98"></circle><circle r="10" cx="675" cy="600" fill="hsl(269, 75%, 90%)" opacity="0.53"></circle><circle r="8.5" cx="18" cy="685" fill="hsl(74, 75%, 90%)" opacity="0.26"></circle><circle r="9" cx="490" cy="786" fill="hsl(264, 75%, 90%)" opacity="0.67"></circle><circle r="10.5" cx="31" cy="25" fill="hsl(146, 75%, 90%)" opacity="0.42"></circle><circle r="9" cx="298" cy="139" fill="hsl(168, 75%, 90%)" opacity="0.46"></circle><circle r="13.5" cx="651" cy="475" fill="hsl(276, 75%, 90%)" opacity="0.65"></circle><circle r="6.5" cx="249" cy="647" fill="hsl(114, 75%, 90%)" opacity="0.69"></circle><circle r="8.5" cx="777" cy="575" fill="hsl(135, 75%, 90%)" opacity="0.94"></circle><circle r="10.5" cx="554" cy="671" fill="hsl(279, 75%, 90%)" opacity="0.15"></circle><circle r="14" cx="702" cy="765" fill="hsl(235, 75%, 90%)" opacity="0.97"></circle><circle r="15.5" cx="634" cy="637" fill="hsl(284, 75%, 90%)" opacity="0.47"></circle><circle r="6" cx="166" cy="732" fill="hsl(84, 75%, 90%)" opacity="0.44"></circle><circle r="11" cx="506" cy="642" fill="hsl(266, 75%, 90%)" opacity="0.75"></circle><circle r="7.5" cx="753" cy="750" fill="hsl(170, 75%, 90%)" opacity="0.92"></circle><circle r="10.5" cx="305" cy="218" fill="hsl(163, 75%, 90%)" opacity="0.83"></circle><circle r="7" cx="61" cy="554" fill="hsl(76, 75%, 90%)" opacity="0.76"></circle><circle r="10.5" cx="743" cy="546" fill="hsl(188, 75%, 90%)" opacity="0.87"></circle><circle r="11" cx="346" cy="19" fill="hsl(247, 75%, 90%)" opacity="0.72"></circle><circle r="8.5" cx="752" cy="213" fill="hsl(170, 75%, 90%)" opacity="0.59"></circle><circle r="15" cx="605" cy="570" fill="hsl(286, 75%, 90%)" opacity="0.68"></circle><circle r="8" cx="27" cy="412" fill="hsl(74, 75%, 90%)" opacity="0.65"></circle><circle r="8.5" cx="708" cy="295" fill="hsl(235, 75%, 90%)" opacity="0.60"></circle><circle r="11.5" cx="447" cy="261" fill="hsl(252, 75%, 90%)" opacity="0.66"></circle><circle r="16" cx="504" cy="382" fill="hsl(266, 75%, 90%)" opacity="0.52"></circle><circle r="14" cx="680" cy="715" fill="hsl(260, 75%, 90%)" opacity="0.10"></circle><circle r="7.5" cx="737" cy="349" fill="hsl(205, 75%, 90%)" opacity="0.79"></circle><circle r="12.5" cx="209" cy="67" fill="hsl(159, 75%, 90%)" opacity="0.96"></circle><circle r="8.5" cx="438" cy="202" fill="hsl(252, 75%, 90%)" opacity="0.51"></circle><circle r="7.5" cx="177" cy="484" fill="hsl(87, 75%, 90%)" opacity="0.60"></circle><circle r="12.5" cx="526" cy="163" fill="hsl(250, 75%, 90%)" opacity="0.35"></circle><circle r="9" cx="283" cy="388" fill="hsl(142, 75%, 90%)" opacity="0.15"></circle><circle r="6.5" cx="723" cy="631" fill="hsl(221, 75%, 90%)" opacity="0.48"></circle><circle r="11.5" cx="536" cy="293" fill="hsl(273, 75%, 90%)" opacity="0.27"></circle><circle r="6.5" cx="712" cy="373" fill="hsl(235, 75%, 90%)" opacity="0.88"></circle><circle r="14" cx="548" cy="450" fill="hsl(276, 75%, 90%)" opacity="0.15"></circle><circle r="6" cx="131" cy="13" fill="hsl(170, 75%, 90%)" opacity="0.67"></circle><circle r="10" cx="708" cy="151" fill="hsl(187, 75%, 90%)" opacity="0.93"></circle><circle r="6.5" cx="152" cy="193" fill="hsl(82, 75%, 90%)" opacity="0.90"></circle><circle r="8.5" cx="305" cy="103" fill="hsl(192, 75%, 90%)" opacity="0.42"></circle><circle r="6" cx="572" cy="86" fill="hsl(164, 75%, 90%)" opacity="0.36"></circle><circle r="10" cx="469" cy="315" fill="hsl(258, 75%, 90%)" opacity="0.47"></circle><circle r="9" cx="780" cy="246" fill="hsl(135, 75%, 90%)" opacity="0.38"></circle><circle r="10" cx="586" cy="434" fill="hsl(284, 75%, 90%)" opacity="0.82"></circle><circle r="9.5" cx="597" cy="785" fill="hsl(285, 75%, 90%)" opacity="0.53"></circle><circle r="11.5" cx="420" cy="623" fill="hsl(244, 75%, 90%)" opacity="0.49"></circle><circle r="9" cx="696" cy="619" fill="hsl(248, 75%, 90%)" opacity="0.21"></circle><circle r="9.5" cx="753" cy="411" fill="hsl(170, 75%, 90%)" opacity="0.50"></circle><circle r="14" cx="639" cy="394" fill="hsl(281, 75%, 90%)" opacity="0.92"></circle><circle r="12" cx="770" cy="316" fill="hsl(153, 75%, 90%)" opacity="0.17"></circle><circle r="7" cx="315" cy="464" fill="hsl(174, 75%, 90%)" opacity="0.38"></circle><circle r="7.5" cx="228" cy="198" fill="hsl(107, 75%, 90%)" opacity="0.35"></circle><circle r="14.5" cx="642" cy="748" fill="hsl(281, 75%, 90%)" opacity="0.78"></circle><circle r="10.5" cx="82" cy="304" fill="hsl(77, 75%, 90%)" opacity="0.74"></circle><circle r="8.5" cx="137" cy="279" fill="hsl(80, 75%, 90%)" opacity="0.40"></circle><circle r="8" cx="509" cy="284" fill="hsl(266, 75%, 90%)" opacity="0.75"></circle><circle r="8" cx="419" cy="181" fill="hsl(238, 75%, 90%)" opacity="0.74"></circle><circle r="7.5" cx="293" cy="695" fill="hsl(152, 75%, 90%)" opacity="0.21"></circle><circle r="7.5" cx="211" cy="753" fill="hsl(95, 75%, 90%)" opacity="0.56"></circle><circle r="7" cx="175" cy="444" fill="hsl(84, 75%, 90%)" opacity="0.31"></circle><circle r="5.5" cx="272" cy="626" fill="hsl(132, 75%, 90%)" opacity="0.88"></circle><circle r="11.5" cx="627" cy="125" fill="hsl(200, 75%, 90%)" opacity="0.78"></circle><circle r="6.5" cx="311" cy="168" fill="hsl(168, 75%, 90%)" opacity="0.95"></circle><circle r="10.5" cx="343" cy="247" fill="hsl(196, 75%, 90%)" opacity="0.53"></circle><circle r="8.5" cx="280" cy="573" fill="hsl(142, 75%, 90%)" opacity="0.70"></circle><circle r="10.5" cx="110" cy="355" fill="hsl(79, 75%, 90%)" opacity="0.56"></circle><circle r="7.5" cx="640" cy="36" fill="hsl(121, 75%, 90%)" opacity="0.16"></circle><circle r="3" cx="91" cy="713" fill="hsl(78, 75%, 90%)" opacity="0.39"></circle><circle r="12" cx="646" cy="581" fill="hsl(281, 75%, 90%)" opacity="0.35"></circle><circle r="13" cx="510" cy="450" fill="hsl(266, 75%, 90%)" opacity="0.25"></circle><circle r="9.5" cx="486" cy="270" fill="hsl(261, 75%, 90%)" opacity="0.39"></circle><circle r="8" cx="372" cy="553" fill="hsl(216, 75%, 90%)" opacity="0.10"></circle><circle r="6" cx="227" cy="785" fill="hsl(107, 75%, 90%)" opacity="0.22"></circle><circle r="7.5" cx="374" cy="343" fill="hsl(216, 75%, 90%)" opacity="0.69"></circle><circle r="7.5" cx="717" cy="399" fill="hsl(221, 75%, 90%)" opacity="0.64"></circle><circle r="6.5" cx="120" cy="40" fill="hsl(144, 75%, 90%)" opacity="0.41"></circle><circle r="12.5" cx="656" cy="218" fill="hsl(276, 75%, 90%)" opacity="0.86"></circle><circle r="8.5" cx="408" cy="538" fill="hsl(239, 75%, 90%)" opacity="0.93"></circle><circle r="16" cx="640" cy="522" fill="hsl(281, 75%, 90%)" opacity="0.38"></circle><circle r="9.5" cx="156" cy="325" fill="hsl(82, 75%, 90%)" opacity="0.57"></circle><circle r="8" cx="267" cy="732" fill="hsl(132, 75%, 90%)" opacity="0.28"></circle><circle r="8" cx="428" cy="763" fill="hsl(248, 75%, 90%)" opacity="0.85"></circle><circle r="8" cx="409" cy="385" fill="hsl(239, 75%, 90%)" opacity="0.11"></circle><circle r="11" cx="429" cy="660" fill="hsl(248, 75%, 90%)" opacity="0.84"></circle><circle r="11.5" cx="160" cy="111" fill="hsl(111, 75%, 90%)" opacity="0.75"></circle><circle r="8" cx="729" cy="71" fill="hsl(91, 75%, 90%)" opacity="0.14"></circle><circle r="11" cx="292" cy="268" fill="hsl(152, 75%, 90%)" opacity="0.13"></circle><circle r="12" cx="499" cy="751" fill="hsl(264, 75%, 90%)" opacity="0.70"></circle><circle r="9.5" cx="429" cy="296" fill="hsl(248, 75%, 90%)" opacity="0.30"></circle><circle r="13.5" cx="575" cy="311" fill="hsl(284, 75%, 90%)" opacity="0.22"></circle><circle r="6" cx="787" cy="729" fill="hsl(135, 75%, 90%)" opacity="0.32"></circle><circle r="4" cx="11" cy="319" fill="hsl(74, 75%, 90%)" opacity="0.69"></circle><circle r="8.5" cx="266" cy="60" fill="hsl(205, 75%, 90%)" opacity="0.93"></circle><circle r="6.5" cx="593" cy="59" fill="hsl(141, 75%, 90%)" opacity="0.37"></circle><circle r="10" cx="24" cy="594" fill="hsl(74, 75%, 90%)" opacity="0.86"></circle><circle r="8.5" cx="378" cy="686" fill="hsl(225, 75%, 90%)" opacity="0.33"></circle><circle r="7.5" cx="57" cy="513" fill="hsl(76, 75%, 90%)" opacity="0.24"></circle><circle r="8.5" cx="421" cy="144" fill="hsl(221, 75%, 90%)" opacity="0.94"></circle><circle r="6" cx="129" cy="738" fill="hsl(80, 75%, 90%)" opacity="0.62"></circle><circle r="8.5" cx="237" cy="480" fill="hsl(107, 75%, 90%)" opacity="0.80"></circle><circle r="12" cx="367" cy="92" fill="hsl(214, 75%, 90%)" opacity="0.22"></circle><circle r="8" cx="130" cy="594" fill="hsl(80, 75%, 90%)" opacity="0.46"></circle><circle r="8" cx="203" cy="664" fill="hsl(95, 75%, 90%)" opacity="0.90"></circle><circle r="10.5" cx="214" cy="20" fill="hsl(206, 75%, 90%)" opacity="0.87"></circle><circle r="7" cx="405" cy="410" fill="hsl(239, 75%, 90%)" opacity="0.82"></circle><circle r="10" cx="222" cy="124" fill="hsl(133, 75%, 90%)" opacity="0.26"></circle><circle r="7" cx="784" cy="664" fill="hsl(135, 75%, 90%)" opacity="0.20"></circle><circle r="7" cx="211" cy="572" fill="hsl(95, 75%, 90%)" opacity="0.86"></circle><circle r="9" cx="379" cy="196" fill="hsl(225, 75%, 90%)" opacity="0.66"></circle><circle r="9" cx="686" cy="119" fill="hsl(171, 75%, 90%)" opacity="0.55"></circle><circle r="6.5" cx="779" cy="90" fill="hsl(49, 75%, 90%)" opacity="0.27"></circle><circle r="12.5" cx="689" cy="420" fill="hsl(248, 75%, 90%)" opacity="0.13"></circle><circle r="13" cx="376" cy="492" fill="hsl(225, 75%, 90%)" opacity="0.40"></circle><circle r="7.5" cx="414" cy="691" fill="hsl(244, 75%, 90%)" opacity="0.50"></circle><circle r="11" cx="571" cy="128" fill="hsl(216, 75%, 90%)" opacity="0.21"></circle><circle r="11" cx="39" cy="145" fill="hsl(66, 75%, 90%)" opacity="0.20"></circle><circle r="10" cx="378" cy="609" fill="hsl(225, 75%, 90%)" opacity="0.83"></circle><circle r="10.5" cx="513" cy="717" fill="hsl(270, 75%, 90%)" opacity="0.64"></circle><circle r="14.5" cx="627" cy="701" fill="hsl(284, 75%, 90%)" opacity="0.65"></circle><circle r="5" cx="29" cy="340" fill="hsl(74, 75%, 90%)" opacity="0.31"></circle><circle r="10" cx="451" cy="127" fill="hsl(213, 75%, 90%)" opacity="0.86"></circle><circle r="7.5" cx="250" cy="682" fill="hsl(122, 75%, 90%)" opacity="0.87"></circle><circle r="9" cx="305" cy="731" fill="hsl(163, 75%, 90%)" opacity="0.24"></circle><circle r="9.5" cx="535" cy="769" fill="hsl(273, 75%, 90%)" opacity="0.91"></circle><circle r="5.5" cx="101" cy="785" fill="hsl(79, 75%, 90%)" opacity="0.27"></circle><circle r="9" cx="338" cy="565" fill="hsl(196, 75%, 90%)" opacity="0.67"></circle><circle r="6.5" cx="215" cy="375" fill="hsl(100, 75%, 90%)" opacity="0.78"></circle><circle r="9" cx="543" cy="93" fill="hsl(176, 75%, 90%)" opacity="0.39"></circle><circle r="6.5" cx="641" cy="70" fill="hsl(147, 75%, 90%)" opacity="0.79"></circle><circle r="5.5" cx="595" cy="101" fill="hsl(191, 75%, 90%)" opacity="0.79"></circle><circle r="9" cx="327" cy="625" fill="hsl(185, 75%, 90%)" opacity="0.69"></circle><circle r="11" cx="557" cy="353" fill="hsl(279, 75%, 90%)" opacity="0.35"></circle><circle r="9.5" cx="532" cy="333" fill="hsl(273, 75%, 90%)" opacity="0.60"></circle><circle r="14.5" cx="379" cy="41" fill="hsl(224, 75%, 90%)" opacity="0.88"></circle><circle r="9" cx="392" cy="163" fill="hsl(224, 75%, 90%)" opacity="0.21"></circle><circle r="10.5" cx="721" cy="485" fill="hsl(221, 75%, 90%)" opacity="0.42"></circle><circle r="9" cx="334" cy="187" fill="hsl(186, 75%, 90%)" opacity="0.71"></circle><circle r="8.5" cx="337" cy="444" fill="hsl(185, 75%, 90%)" opacity="0.77"></circle><circle r="7" cx="307" cy="549" fill="hsl(163, 75%, 90%)" opacity="0.59"></circle><circle r="11.5" cx="434" cy="63" fill="hsl(196, 75%, 90%)" opacity="0.86"></circle><circle r="8.5" cx="312" cy="40" fill="hsl(230, 75%, 90%)" opacity="0.76"></circle><circle r="8.5" cx="730" cy="597" fill="hsl(205, 75%, 90%)" opacity="0.86"></circle><circle r="11.5" cx="740" cy="276" fill="hsl(188, 75%, 90%)" opacity="0.25"></circle><circle r="12" cx="606" cy="205" fill="hsl(286, 75%, 90%)" opacity="0.40"></circle><circle r="11.5" cx="484" cy="233" fill="hsl(261, 75%, 90%)" opacity="0.32"></circle><circle r="7" cx="18" cy="509" fill="hsl(74, 75%, 90%)" opacity="0.49"></circle><circle r="5.5" cx="292" cy="526" fill="hsl(152, 75%, 90%)" opacity="0.72"></circle><circle r="7.5" cx="299" cy="311" fill="hsl(152, 75%, 90%)" opacity="0.67"></circle><circle r="10" cx="695" cy="507" fill="hsl(248, 75%, 90%)" opacity="0.96"></circle><circle r="4" cx="112" cy="718" fill="hsl(79, 75%, 90%)" opacity="0.19"></circle><circle r="14" cx="419" cy="454" fill="hsl(244, 75%, 90%)" opacity="0.86"></circle><circle r="4" cx="603" cy="84" fill="hsl(164, 75%, 90%)" opacity="0.82"></circle><circle r="11" cx="511" cy="125" fill="hsl(200, 75%, 90%)" opacity="0.94"></circle><circle r="16" cx="516" cy="561" fill="hsl(270, 75%, 90%)" opacity="0.91"></circle><circle r="13" cx="597" cy="745" fill="hsl(285, 75%, 90%)" opacity="0.97"></circle><circle r="7.5" cx="148" cy="517" fill="hsl(81, 75%, 90%)" opacity="0.65"></circle><circle r="5.5" cx="57" cy="695" fill="hsl(76, 75%, 90%)" opacity="0.37"></circle><circle r="7.5" cx="146" cy="682" fill="hsl(81, 75%, 90%)" opacity="0.67"></circle><circle r="7" cx="16" cy="88" fill="hsl(79, 75%, 90%)" opacity="0.29"></circle><circle r="11" cx="78" cy="194" fill="hsl(77, 75%, 90%)" opacity="0.52"></circle><circle r="8" cx="371" cy="447" fill="hsl(216, 75%, 90%)" opacity="0.75"></circle><circle r="8.5" cx="771" cy="459" fill="hsl(153, 75%, 90%)" opacity="0.92"></circle><circle r="6" cx="469" cy="22" fill="hsl(160, 75%, 90%)" opacity="0.25"></circle><circle r="8" cx="295" cy="608" fill="hsl(152, 75%, 90%)" opacity="0.49"></circle><circle r="14.5" cx="549" cy="598" fill="hsl(276, 75%, 90%)" opacity="0.88"></circle><circle r="9" cx="525" cy="683" fill="hsl(270, 75%, 90%)" opacity="0.49"></circle><circle r="7" cx="435" cy="788" fill="hsl(248, 75%, 90%)" opacity="0.14"></circle><circle r="10" cx="500" cy="325" fill="hsl(266, 75%, 90%)" opacity="0.50"></circle><circle r="9.5" cx="717" cy="449" fill="hsl(221, 75%, 90%)" opacity="0.19"></circle><circle r="8.5" cx="769" cy="499" fill="hsl(153, 75%, 90%)" opacity="0.86"></circle><circle r="9" cx="456" cy="221" fill="hsl(255, 75%, 90%)" opacity="0.94"></circle><circle r="10.5" cx="89" cy="81" fill="hsl(104, 75%, 90%)" opacity="1.00"></circle><circle r="10.5" cx="339" cy="352" fill="hsl(196, 75%, 90%)" opacity="0.95"></circle><circle r="12.5" cx="640" cy="436" fill="hsl(281, 75%, 90%)" opacity="0.39"></circle><circle r="9" cx="56" cy="653" fill="hsl(76, 75%, 90%)" opacity="0.17"></circle><circle r="15.5" cx="465" cy="478" fill="hsl(258, 75%, 90%)" opacity="0.82"></circle><circle r="11" cx="673" cy="301" fill="hsl(269, 75%, 90%)" opacity="0.54"></circle><circle r="9" cx="233" cy="604" fill="hsl(107, 75%, 90%)" opacity="0.13"></circle><circle r="7" cx="254" cy="409" fill="hsl(122, 75%, 90%)" opacity="0.18"></circle><circle r="8" cx="775" cy="31" fill="hsl(49, 75%, 90%)" opacity="0.83"></circle><circle r="8" cx="144" cy="67" fill="hsl(130, 75%, 90%)" opacity="0.66"></circle><circle r="13" cx="518" cy="208" fill="hsl(270, 75%, 90%)" opacity="0.57"></circle><circle r="11" cx="344" cy="747" fill="hsl(196, 75%, 90%)" opacity="0.64"></circle><circle r="8.5" cx="175" cy="628" fill="hsl(84, 75%, 90%)" opacity="0.60"></circle><circle r="12.5" cx="568" cy="230" fill="hsl(281, 75%, 90%)" opacity="0.34"></circle><circle r="7" cx="17" cy="750" fill="hsl(74, 75%, 90%)" opacity="0.16"></circle><circle r="7" cx="180" cy="780" fill="hsl(87, 75%, 90%)" opacity="0.26"></circle><circle r="10" cx="104" cy="483" fill="hsl(79, 75%, 90%)" opacity="0.11"></circle><circle r="5.5" cx="667" cy="13" fill="hsl(112, 75%, 90%)" opacity="0.38"></circle><circle r="9" cx="246" cy="354" fill="hsl(114, 75%, 90%)" opacity="0.35"></circle><circle r="8" cx="342" cy="137" fill="hsl(201, 75%, 90%)" opacity="0.12"></circle><circle r="8" cx="595" cy="20" fill="hsl(111, 75%, 90%)" opacity="0.84"></circle><circle r="6.5" cx="741" cy="376" fill="hsl(188, 75%, 90%)" opacity="0.16"></circle><circle r="8.5" cx="229" cy="716" fill="hsl(107, 75%, 90%)" opacity="0.97"></circle><circle r="8" cx="51" cy="372" fill="hsl(76, 75%, 90%)" opacity="0.90"></circle><circle r="9.5" cx="734" cy="181" fill="hsl(187, 75%, 90%)" opacity="0.55"></circle><circle r="8" cx="763" cy="783" fill="hsl(153, 75%, 90%)" opacity="0.81"></circle><circle r="12" cx="643" cy="281" fill="hsl(281, 75%, 90%)" opacity="0.31"></circle><circle r="10.5" cx="344" cy="701" fill="hsl(196, 75%, 90%)" opacity="0.67"></circle><circle r="8.5" cx="103" cy="246" fill="hsl(79, 75%, 90%)" opacity="0.52"></circle><circle r="11" cx="260" cy="25" fill="hsl(227, 75%, 90%)" opacity="0.33"></circle><circle r="8.5" cx="284" cy="446" fill="hsl(142, 75%, 90%)" opacity="0.64"></circle><circle r="8.5" cx="47" cy="455" fill="hsl(75, 75%, 90%)" opacity="0.85"></circle><circle r="10.5" cx="426" cy="586" fill="hsl(248, 75%, 90%)" opacity="0.90"></circle><circle r="5.5" cx="121" cy="541" fill="hsl(79, 75%, 90%)" opacity="0.68"></circle><circle r="8" cx="782" cy="533" fill="hsl(135, 75%, 90%)" opacity="0.30"></circle><circle r="7.5" cx="725" cy="20" fill="hsl(85, 75%, 90%)" opacity="0.23"></circle><circle r="4" cx="492" cy="11" fill="hsl(136, 75%, 90%)" opacity="0.88"></circle><circle r="8" cx="760" cy="703" fill="hsl(170, 75%, 90%)" opacity="0.62"></circle><circle r="5" cx="375" cy="644" fill="hsl(225, 75%, 90%)" opacity="0.32"></circle><circle r="9.5" cx="385" cy="721" fill="hsl(225, 75%, 90%)" opacity="0.10"></circle><circle r="6" cx="57" cy="729" fill="hsl(76, 75%, 90%)" opacity="0.86"></circle><circle r="11.5" cx="400" cy="238" fill="hsl(232, 75%, 90%)" opacity="0.51"></circle><circle r="14" cx="475" cy="171" fill="hsl(240, 75%, 90%)" opacity="0.19"></circle><circle r="9" cx="207" cy="265" fill="hsl(95, 75%, 90%)" opacity="0.90"></circle><circle r="14" cx="552" cy="392" fill="hsl(279, 75%, 90%)" opacity="0.45"></circle><circle r="7" cx="324" cy="497" fill="hsl(174, 75%, 90%)" opacity="0.51"></circle><circle r="7" cx="296" cy="64" fill="hsl(209, 75%, 90%)" opacity="0.92"></circle><circle r="10" cx="490" cy="675" fill="hsl(264, 75%, 90%)" opacity="0.91"></circle><circle r="9" cx="300" cy="660" fill="hsl(163, 75%, 90%)" opacity="0.89"></circle><circle r="6.5" cx="240" cy="442" fill="hsl(114, 75%, 90%)" opacity="0.38"></circle><circle r="7" cx="93" cy="22" fill="hsl(166, 75%, 90%)" opacity="0.15"></circle><circle r="9" cx="340" cy="663" fill="hsl(196, 75%, 90%)" opacity="0.99"></circle><circle r="17.5" cx="568" cy="533" fill="hsl(281, 75%, 90%)" opacity="0.39"></circle><circle r="10.5" cx="328" cy="74" fill="hsl(220, 75%, 90%)" opacity="0.47"></circle><circle r="7" cx="186" cy="703" fill="hsl(87, 75%, 90%)" opacity="0.88"></circle><circle r="10" cx="691" cy="543" fill="hsl(248, 75%, 90%)" opacity="0.84"></circle><circle r="15.5" cx="650" cy="171" fill="hsl(246, 75%, 90%)" opacity="0.96"></circle><circle r="10" cx="168" cy="380" fill="hsl(84, 75%, 90%)" opacity="0.29"></circle><circle r="16" cx="605" cy="350" fill="hsl(286, 75%, 90%)" opacity="0.57"></circle><circle r="9" cx="404" cy="273" fill="hsl(239, 75%, 90%)" opacity="0.90"></circle><circle r="10" cx="316" cy="780" fill="hsl(174, 75%, 90%)" opacity="0.39"></circle><circle r="14.5" cx="653" cy="346" fill="hsl(276, 75%, 90%)" opacity="0.48"></circle><circle r="6" cx="355" cy="635" fill="hsl(207, 75%, 90%)" opacity="0.75"></circle><circle r="10.5" cx="579" cy="711" fill="hsl(284, 75%, 90%)" opacity="0.81"></circle><circle r="3.5" cx="215" cy="435" fill="hsl(100, 75%, 90%)" opacity="0.92"></circle><circle r="7" cx="413" cy="335" fill="hsl(244, 75%, 90%)" opacity="0.76"></circle><circle r="9" cx="776" cy="158" fill="hsl(89, 75%, 90%)" opacity="0.18"></circle><circle r="16.5" cx="466" cy="419" fill="hsl(258, 75%, 90%)" opacity="0.25"></circle><circle r="10" cx="725" cy="727" fill="hsl(221, 75%, 90%)" opacity="0.37"></circle><circle r="10.5" cx="249" cy="526" fill="hsl(114, 75%, 90%)" opacity="0.10"></circle><circle r="7.5" cx="438" cy="706" fill="hsl(252, 75%, 90%)" opacity="0.58"></circle><circle r="6.5" cx="143" cy="773" fill="hsl(81, 75%, 90%)" opacity="0.49"></circle><circle r="10" cx="508" cy="63" fill="hsl(160, 75%, 90%)" opacity="0.36"></circle><circle r="6" cx="68" cy="13" fill="hsl(164, 75%, 90%)" opacity="0.92"></circle><circle r="12.5" cx="676" cy="253" fill="hsl(260, 75%, 90%)" opacity="0.67"></circle><circle r="10" cx="168" cy="23" fill="hsl(181, 75%, 90%)" opacity="0.51"></circle><circle r="9" cx="555" cy="41" fill="hsl(131, 75%, 90%)" opacity="0.14"></circle><circle r="8.5" cx="576" cy="628" fill="hsl(284, 75%, 90%)" opacity="0.54"></circle><circle r="9" cx="706" cy="329" fill="hsl(235, 75%, 90%)" opacity="0.47"></circle><circle r="10.5" cx="256" cy="98" fill="hsl(171, 75%, 90%)" opacity="0.55"></circle><circle r="7" cx="663" cy="96" fill="hsl(157, 75%, 90%)" opacity="0.89"></circle><circle r="6.5" cx="377" cy="419" fill="hsl(225, 75%, 90%)" opacity="0.61"></circle><circle r="9" cx="438" cy="328" fill="hsl(252, 75%, 90%)" opacity="0.18"></circle><circle r="11" cx="538" cy="640" fill="hsl(276, 75%, 90%)" opacity="0.28"></circle><circle r="6" cx="787" cy="426" fill="hsl(135, 75%, 90%)" opacity="0.32"></circle><circle r="7.5" cx="391" cy="658" fill="hsl(232, 75%, 90%)" opacity="0.54"></circle><circle r="9" cx="689" cy="53" fill="hsl(117, 75%, 90%)" opacity="0.68"></circle><circle r="8.5" cx="195" cy="530" fill="hsl(90, 75%, 90%)" opacity="0.92"></circle><circle r="4.5" cx="95" cy="537" fill="hsl(78, 75%, 90%)" opacity="0.24"></circle><circle r="8.5" cx="296" cy="345" fill="hsl(152, 75%, 90%)" opacity="0.22"></circle><circle r="12" cx="476" cy="94" fill="hsl(185, 75%, 90%)" opacity="0.59"></circle><circle r="12.5" cx="428" cy="508" fill="hsl(248, 75%, 90%)" opacity="0.63"></circle><circle r="10" cx="664" cy="784" fill="hsl(269, 75%, 90%)" opacity="0.99"></circle><circle r="8.5" cx="740" cy="114" fill="hsl(102, 75%, 90%)" opacity="0.78"></circle><circle r="8.5" cx="112" cy="639" fill="hsl(79, 75%, 90%)" opacity="0.99"></circle><circle r="8.5" cx="252" cy="157" fill="hsl(137, 75%, 90%)" opacity="0.76"></circle><circle r="10" cx="207" cy="315" fill="hsl(95, 75%, 90%)" opacity="0.69"></circle><circle r="7.5" cx="413" cy="726" fill="hsl(244, 75%, 90%)" opacity="0.56"></circle><circle r="8.5" cx="519" cy="22" fill="hsl(125, 75%, 90%)" opacity="0.21"></circle><circle r="8" cx="371" cy="143" fill="hsl(210, 75%, 90%)" opacity="0.44"></circle><circle r="6.5" cx="440" cy="733" fill="hsl(252, 75%, 90%)" opacity="0.24"></circle><circle r="9" cx="548" cy="715" fill="hsl(276, 75%, 90%)" opacity="0.65"></circle><circle r="17" cx="588" cy="482" fill="hsl(285, 75%, 90%)" opacity="0.13"></circle><circle r="6.5" cx="56" cy="771" fill="hsl(76, 75%, 90%)" opacity="0.33"></circle><circle r="6" cx="199" cy="411" fill="hsl(90, 75%, 90%)" opacity="0.41"></circle><circle r="11" cx="562" cy="761" fill="hsl(279, 75%, 90%)" opacity="0.70"></circle><circle r="7.5" cx="359" cy="217" fill="hsl(207, 75%, 90%)" opacity="0.63"></circle><circle r="12.5" cx="693" cy="198" fill="hsl(248, 75%, 90%)" opacity="0.73"></circle><circle r="8.5" cx="778" cy="613" fill="hsl(135, 75%, 90%)" opacity="0.73"></circle><circle r="12.5" cx="570" cy="269" fill="hsl(281, 75%, 90%)" opacity="0.70"></circle><circle r="13.5" cx="616" cy="243" fill="hsl(286, 75%, 90%)" opacity="0.32"></circle><circle r="5" cx="129" cy="216" fill="hsl(80, 75%, 90%)" opacity="0.88"></circle><circle r="10.5" cx="691" cy="651" fill="hsl(248, 75%, 90%)" opacity="0.79"></circle><circle r="7" cx="179" cy="236" fill="hsl(87, 75%, 90%)" opacity="0.98"></circle><circle r="3" cx="80" cy="698" fill="hsl(77, 75%, 90%)" opacity="0.56"></circle><circle r="11" cx="715" cy="239" fill="hsl(221, 75%, 90%)" opacity="0.42"></circle><circle r="6" cx="92" cy="751" fill="hsl(78, 75%, 90%)" opacity="0.81"></circle><circle r="7.5" cx="49" cy="71" fill="hsl(103, 75%, 90%)" opacity="0.19"></circle><circle r="10.5" cx="685" cy="369" fill="hsl(260, 75%, 90%)" opacity="0.38"></circle><circle r="10" cx="466" cy="693" fill="hsl(258, 75%, 90%)" opacity="0.41"></circle><circle r="6.5" cx="109" cy="682" fill="hsl(79, 75%, 90%)" opacity="0.28"></circle><circle r="10.5" cx="591" cy="679" fill="hsl(285, 75%, 90%)" opacity="0.56"></circle><circle r="15.5" cx="507" cy="510" fill="hsl(266, 75%, 90%)" opacity="0.81"></circle><circle r="10" cx="112" cy="141" fill="hsl(80, 75%, 90%)" opacity="0.47"></circle><circle r="9.5" cx="465" cy="746" fill="hsl(258, 75%, 90%)" opacity="0.47"></circle><circle r="10" cx="263" cy="218" fill="hsl(132, 75%, 90%)" opacity="0.50"></circle><circle r="11" cx="375" cy="301" fill="hsl(216, 75%, 90%)" opacity="0.30"></circle><circle r="8" cx="31" cy="285" fill="hsl(74, 75%, 90%)" opacity="0.81"></circle><circle r="4.5" cx="621" cy="84" fill="hsl(163, 75%, 90%)" opacity="0.51"></circle><circle r="9.5" cx="431" cy="21" fill="hsl(193, 75%, 90%)" opacity="0.65"></circle><circle r="13.5" cx="563" cy="185" fill="hsl(270, 75%, 90%)" opacity="0.21"></circle><circle r="14.5" cx="382" cy="771" fill="hsl(225, 75%, 90%)" opacity="0.72"></circle><circle r="7.5" cx="296" cy="13" fill="hsl(244, 75%, 90%)" opacity="0.72"></circle><circle r="10" cx="255" cy="302" fill="hsl(122, 75%, 90%)" opacity="0.27"></circle><circle r="13" cx="114" cy="420" fill="hsl(79, 75%, 90%)" opacity="0.64"></circle><circle r="9.5" cx="339" cy="294" fill="hsl(196, 75%, 90%)" opacity="0.72"></circle><circle r="12" cx="330" cy="396" fill="hsl(185, 75%, 90%)" opacity="0.58"></circle><circle r="7.5" cx="395" cy="570" fill="hsl(232, 75%, 90%)" opacity="0.47"></circle><circle r="9" cx="599" cy="642" fill="hsl(285, 75%, 90%)" opacity="0.31"></circle><circle r="13" cx="662" cy="674" fill="hsl(276, 75%, 90%)" opacity="0.56"></circle><circle r="8" cx="781" cy="371" fill="hsl(135, 75%, 90%)" opacity="0.94"></circle><circle r="7.5" cx="345" cy="596" fill="hsl(196, 75%, 90%)" opacity="0.46"></circle><circle r="12" cx="528" cy="248" fill="hsl(273, 75%, 90%)" opacity="0.75"></circle><circle r="10.5" cx="717" cy="688" fill="hsl(221, 75%, 90%)" opacity="0.46"></circle><circle r="11" cx="186" cy="168" fill="hsl(94, 75%, 90%)" opacity="0.15"></circle><circle r="11" cx="613" cy="297" fill="hsl(286, 75%, 90%)" opacity="0.41"></circle><circle r="15.5" cx="460" cy="554" fill="hsl(255, 75%, 90%)" opacity="0.24"></circle><circle r="8.5" cx="77" cy="600" fill="hsl(77, 75%, 90%)" opacity="0.42"></circle><circle r="14" cx="601" cy="162" fill="hsl(246, 75%, 90%)" opacity="0.68"></circle><circle r="9.5" cx="265" cy="775" fill="hsl(132, 75%, 90%)" opacity="0.67"></circle><circle r="4" cx="24" cy="788" fill="hsl(74, 75%, 90%)" opacity="0.86"></circle><circle r="12.5" cx="595" cy="400" fill="hsl(285, 75%, 90%)" opacity="0.75"></circle></svg>