<svg xmlns="http://www.w3.org/2000/svg" version="1.1" xmlns:xlink="http://www.w3.org/1999/xlink" xmlns:svgjs="http://svgjs.dev/svgjs" viewBox="0 0 800 800"><circle r="6.5" cx="441" cy="170" stroke-width="2" stroke="hsl(206, 50%, 50%)" fill="none" opacity="0.96"></circle><circle r="8.5" cx="318" cy="211" stroke-width="2" stroke="hsl(250, 50%, 50%)" fill="none" opacity="0.88"></circle><circle r="4.5" cx="655" cy="104" stroke-width="2" stroke="hsl(69, 50%, 50%)" fill="none" opacity="0.28"></circle><circle r="6" cx="601" cy="288" stroke-width="2" stroke="hsl(106, 50%, 50%)" fill="none" opacity="0.41"></circle><circle r="9.5" cx="169" cy="589" stroke-width="2" stroke="hsl(190, 50%, 50%)" fill="none" opacity="0.93"></circle><circle r="11.5" cx="391" cy="521" stroke-width="2" stroke="hsl(238, 50%, 50%)" fill="none" opacity="0.27"></circle><circle r="8.5" cx="776" cy="637" stroke-width="2" stroke="hsl(180, 50%, 50%)" fill="none" opacity="0.57"></circle><circle r="13" cx="392" cy="611" stroke-width="2" stroke="hsl(238, 50%, 50%)" fill="none" opacity="0.89"></circle><circle r="7" cx="619" cy="176" stroke-width="2" stroke="hsl(96, 50%, 50%)" fill="none" opacity="0.15"></circle><circle r="14" cx="256" cy="79" stroke-width="2" stroke="hsl(197, 50%, 50%)" fill="none" opacity="0.78"></circle><circle r="5" cx="689" cy="419" stroke-width="2" stroke="hsl(112, 50%, 50%)" fill="none" opacity="0.69"></circle><circle r="7.5" cx="523" cy="558" stroke-width="2" stroke="hsl(163, 50%, 50%)" fill="none" opacity="0.32"></circle><circle r="12.5" cx="121" cy="771" stroke-width="2" stroke="hsl(158, 50%, 50%)" fill="none" opacity="0.87"></circle><circle r="9.5" cx="294" cy="230" stroke-width="2" stroke="hsl(249, 50%, 50%)" fill="none" opacity="0.51"></circle><circle r="6.5" cx="671" cy="204" stroke-width="2" stroke="hsl(102, 50%, 50%)" fill="none" opacity="0.74"></circle><circle r="8" cx="443" cy="103" stroke-width="2" stroke="hsl(158, 50%, 50%)" fill="none" opacity="0.61"></circle><circle r="7.5" cx="346" cy="43" stroke-width="2" stroke="hsl(175, 50%, 50%)" fill="none" opacity="0.88"></circle><circle r="7.5" cx="557" cy="636" stroke-width="2" stroke="hsl(134, 50%, 50%)" fill="none" opacity="0.66"></circle><circle r="8" cx="389" cy="788" stroke-width="2" stroke="hsl(238, 50%, 50%)" fill="none" opacity="0.68"></circle><circle r="4.5" cx="647" cy="390" stroke-width="2" stroke="hsl(99, 50%, 50%)" fill="none" opacity="0.80"></circle><circle r="13.5" cx="190" cy="776" stroke-width="2" stroke="hsl(206, 50%, 50%)" fill="none" opacity="0.36"></circle><circle r="7.5" cx="732" cy="727" stroke-width="2" stroke="hsl(137, 50%, 50%)" fill="none" opacity="0.14"></circle><circle r="6.5" cx="36" cy="196" stroke-width="2" stroke="hsl(133, 50%, 50%)" fill="none" opacity="0.74"></circle><circle r="11.5" cx="289" cy="26" stroke-width="2" stroke="hsl(189, 50%, 50%)" fill="none" opacity="0.56"></circle><circle r="17.5" cx="166" cy="355" stroke-width="2" stroke="hsl(190, 50%, 50%)" fill="none" opacity="0.95"></circle><circle r="5.5" cx="390" cy="737" stroke-width="2" stroke="hsl(238, 50%, 50%)" fill="none" opacity="0.91"></circle><circle r="6.5" cx="162" cy="201" stroke-width="2" stroke="hsl(182, 50%, 50%)" fill="none" opacity="0.44"></circle><circle r="11.5" cx="249" cy="593" stroke-width="2" stroke="hsl(234, 50%, 50%)" fill="none" opacity="0.57"></circle><circle r="12" cx="23" cy="326" stroke-width="2" stroke="hsl(134, 50%, 50%)" fill="none" opacity="0.59"></circle><circle r="11.5" cx="144" cy="434" stroke-width="2" stroke="hsl(174, 50%, 50%)" fill="none" opacity="0.40"></circle><circle r="11.5" cx="309" cy="67" stroke-width="2" stroke="hsl(194, 50%, 50%)" fill="none" opacity="0.76"></circle><circle r="10" cx="765" cy="191" stroke-width="2" stroke="hsl(169, 50%, 50%)" fill="none" opacity="0.43"></circle><circle r="6.5" cx="667" cy="256" stroke-width="2" stroke="hsl(102, 50%, 50%)" fill="none" opacity="0.71"></circle><circle r="6.5" cx="715" cy="601" stroke-width="2" stroke="hsl(128, 50%, 50%)" fill="none" opacity="0.88"></circle><circle r="6.5" cx="788" cy="769" stroke-width="2" stroke="hsl(190, 50%, 50%)" fill="none" opacity="0.41"></circle><circle r="12.5" cx="495" cy="328" stroke-width="2" stroke="hsl(183, 50%, 50%)" fill="none" opacity="0.34"></circle><circle r="9" cx="363" cy="543" stroke-width="2" stroke="hsl(245, 50%, 50%)" fill="none" opacity="0.85"></circle><circle r="11.5" cx="777" cy="549" stroke-width="2" stroke="hsl(180, 50%, 50%)" fill="none" opacity="0.43"></circle><circle r="10.5" cx="512" cy="779" stroke-width="2" stroke="hsl(173, 50%, 50%)" fill="none" opacity="0.58"></circle><circle r="10.5" cx="338" cy="372" stroke-width="2" stroke="hsl(249, 50%, 50%)" fill="none" opacity="0.59"></circle><circle r="10" cx="331" cy="238" stroke-width="2" stroke="hsl(250, 50%, 50%)" fill="none" opacity="0.79"></circle><circle r="14" cx="325" cy="469" stroke-width="2" stroke="hsl(250, 50%, 50%)" fill="none" opacity="0.79"></circle><circle r="9" cx="381" cy="75" stroke-width="2" stroke="hsl(173, 50%, 50%)" fill="none" opacity="0.49"></circle><circle r="5.5" cx="737" cy="419" stroke-width="2" stroke="hsl(137, 50%, 50%)" fill="none" opacity="0.79"></circle><circle r="5" cx="56" cy="469" stroke-width="2" stroke="hsl(135, 50%, 50%)" fill="none" opacity="0.71"></circle><circle r="10.5" cx="199" cy="134" stroke-width="2" stroke="hsl(186, 50%, 50%)" fill="none" opacity="0.37"></circle><circle r="9.5" cx="429" cy="195" stroke-width="2" stroke="hsl(223, 50%, 50%)" fill="none" opacity="0.80"></circle><circle r="6" cx="617" cy="747" stroke-width="2" stroke="hsl(102, 50%, 50%)" fill="none" opacity="0.31"></circle><circle r="5" cx="16" cy="496" stroke-width="2" stroke="hsl(134, 50%, 50%)" fill="none" opacity="0.92"></circle><circle r="5.5" cx="705" cy="501" stroke-width="2" stroke="hsl(119, 50%, 50%)" fill="none" opacity="0.46"></circle><circle r="7" cx="686" cy="727" stroke-width="2" stroke="hsl(107, 50%, 50%)" fill="none" opacity="0.81"></circle><circle r="7" cx="753" cy="784" stroke-width="2" stroke="hsl(158, 50%, 50%)" fill="none" opacity="0.60"></circle><circle r="9.5" cx="182" cy="416" stroke-width="2" stroke="hsl(198, 50%, 50%)" fill="none" opacity="0.73"></circle><circle r="5" cx="753" cy="460" stroke-width="2" stroke="hsl(158, 50%, 50%)" fill="none" opacity="0.86"></circle><circle r="9" cx="743" cy="299" stroke-width="2" stroke="hsl(147, 50%, 50%)" fill="none" opacity="0.90"></circle><circle r="8" cx="329" cy="16" stroke-width="2" stroke="hsl(179, 50%, 50%)" fill="none" opacity="0.20"></circle><circle r="9.5" cx="248" cy="423" stroke-width="2" stroke="hsl(234, 50%, 50%)" fill="none" opacity="0.52"></circle><circle r="3" cx="672" cy="470" stroke-width="2" stroke="hsl(102, 50%, 50%)" fill="none" opacity="0.76"></circle><circle r="12" cx="439" cy="340" stroke-width="2" stroke="hsl(217, 50%, 50%)" fill="none" opacity="0.21"></circle><circle r="9" cx="752" cy="92" stroke-width="2" stroke="hsl(103, 50%, 50%)" fill="none" opacity="0.74"></circle><circle r="6.5" cx="574" cy="493" stroke-width="2" stroke="hsl(125, 50%, 50%)" fill="none" opacity="0.62"></circle><circle r="9" cx="743" cy="385" stroke-width="2" stroke="hsl(147, 50%, 50%)" fill="none" opacity="0.55"></circle><circle r="7" cx="532" cy="310" stroke-width="2" stroke="hsl(153, 50%, 50%)" fill="none" opacity="0.52"></circle><circle r="5" cx="47" cy="127" stroke-width="2" stroke="hsl(111, 50%, 50%)" fill="none" opacity="0.36"></circle><circle r="15.5" cx="384" cy="328" stroke-width="2" stroke="hsl(242, 50%, 50%)" fill="none" opacity="0.22"></circle><circle r="6" cx="567" cy="25" stroke-width="2" stroke="hsl(68, 50%, 50%)" fill="none" opacity="0.25"></circle><circle r="4.5" cx="673" cy="170" stroke-width="2" stroke="hsl(89, 50%, 50%)" fill="none" opacity="0.53"></circle><circle r="7" cx="767" cy="246" stroke-width="2" stroke="hsl(169, 50%, 50%)" fill="none" opacity="0.32"></circle><circle r="8" cx="546" cy="582" stroke-width="2" stroke="hsl(143, 50%, 50%)" fill="none" opacity="0.51"></circle><circle r="11.5" cx="210" cy="577" stroke-width="2" stroke="hsl(214, 50%, 50%)" fill="none" opacity="0.30"></circle><circle r="4" cx="23" cy="517" stroke-width="2" stroke="hsl(134, 50%, 50%)" fill="none" opacity="0.55"></circle><circle r="11" cx="138" cy="532" stroke-width="2" stroke="hsl(174, 50%, 50%)" fill="none" opacity="0.82"></circle><circle r="5.5" cx="10" cy="411" stroke-width="2" stroke="hsl(135, 50%, 50%)" fill="none" opacity="0.70"></circle><circle r="6" cx="705" cy="119" stroke-width="2" stroke="hsl(82, 50%, 50%)" fill="none" opacity="0.96"></circle><circle r="8.5" cx="24" cy="623" stroke-width="2" stroke="hsl(134, 50%, 50%)" fill="none" opacity="0.85"></circle><circle r="9.5" cx="417" cy="714" stroke-width="2" stroke="hsl(229, 50%, 50%)" fill="none" opacity="0.74"></circle><circle r="9.5" cx="107" cy="495" stroke-width="2" stroke="hsl(152, 50%, 50%)" fill="none" opacity="0.61"></circle><circle r="15.5" cx="420" cy="443" stroke-width="2" stroke="hsl(229, 50%, 50%)" fill="none" opacity="0.48"></circle><circle r="5" cx="338" cy="92" stroke-width="2" stroke="hsl(197, 50%, 50%)" fill="none" opacity="0.13"></circle><circle r="9.5" cx="493" cy="676" stroke-width="2" stroke="hsl(183, 50%, 50%)" fill="none" opacity="0.38"></circle><circle r="9" cx="571" cy="542" stroke-width="2" stroke="hsl(125, 50%, 50%)" fill="none" opacity="0.49"></circle><circle r="9" cx="353" cy="148" stroke-width="2" stroke="hsl(227, 50%, 50%)" fill="none" opacity="0.42"></circle><circle r="10" cx="780" cy="707" stroke-width="2" stroke="hsl(180, 50%, 50%)" fill="none" opacity="0.19"></circle><circle r="6.5" cx="603" cy="693" stroke-width="2" stroke="hsl(106, 50%, 50%)" fill="none" opacity="0.66"></circle><circle r="12" cx="330" cy="338" stroke-width="2" stroke="hsl(250, 50%, 50%)" fill="none" opacity="0.82"></circle><circle r="9.5" cx="306" cy="770" stroke-width="2" stroke="hsl(250, 50%, 50%)" fill="none" opacity="0.10"></circle><circle r="3.5" cx="686" cy="84" stroke-width="2" stroke="hsl(73, 50%, 50%)" fill="none" opacity="0.97"></circle><circle r="8.5" cx="381" cy="568" stroke-width="2" stroke="hsl(242, 50%, 50%)" fill="none" opacity="0.92"></circle><circle r="10.5" cx="360" cy="782" stroke-width="2" stroke="hsl(247, 50%, 50%)" fill="none" opacity="0.82"></circle><circle r="7" cx="371" cy="16" stroke-width="2" stroke="hsl(159, 50%, 50%)" fill="none" opacity="0.12"></circle><circle r="5.5" cx="590" cy="64" stroke-width="2" stroke="hsl(69, 50%, 50%)" fill="none" opacity="0.10"></circle><circle r="6.5" cx="261" cy="673" stroke-width="2" stroke="hsl(239, 50%, 50%)" fill="none" opacity="0.65"></circle><circle r="8.5" cx="783" cy="394" stroke-width="2" stroke="hsl(180, 50%, 50%)" fill="none" opacity="0.48"></circle><circle r="6" cx="86" cy="343" stroke-width="2" stroke="hsl(141, 50%, 50%)" fill="none" opacity="0.56"></circle><circle r="7" cx="727" cy="479" stroke-width="2" stroke="hsl(137, 50%, 50%)" fill="none" opacity="0.37"></circle><circle r="11.5" cx="494" cy="474" stroke-width="2" stroke="hsl(183, 50%, 50%)" fill="none" opacity="0.33"></circle><circle r="6" cx="708" cy="296" stroke-width="2" stroke="hsl(119, 50%, 50%)" fill="none" opacity="0.16"></circle><circle r="5" cx="39" cy="165" stroke-width="2" stroke="hsl(120, 50%, 50%)" fill="none" opacity="0.90"></circle><circle r="8.5" cx="476" cy="644" stroke-width="2" stroke="hsl(193, 50%, 50%)" fill="none" opacity="0.42"></circle><circle r="8" cx="725" cy="641" stroke-width="2" stroke="hsl(128, 50%, 50%)" fill="none" opacity="0.89"></circle><circle r="6" cx="615" cy="426" stroke-width="2" stroke="hsl(102, 50%, 50%)" fill="none" opacity="0.45"></circle><circle r="3.5" cx="500" cy="17" stroke-width="2" stroke="hsl(80, 50%, 50%)" fill="none" opacity="0.26"></circle><circle r="8" cx="102" cy="557" stroke-width="2" stroke="hsl(152, 50%, 50%)" fill="none" opacity="0.64"></circle><circle r="12" cx="180" cy="544" stroke-width="2" stroke="hsl(198, 50%, 50%)" fill="none" opacity="0.34"></circle><circle r="11.5" cx="288" cy="118" stroke-width="2" stroke="hsl(220, 50%, 50%)" fill="none" opacity="0.65"></circle><circle r="10" cx="402" cy="237" stroke-width="2" stroke="hsl(234, 50%, 50%)" fill="none" opacity="0.29"></circle><circle r="12" cx="771" cy="344" stroke-width="2" stroke="hsl(169, 50%, 50%)" fill="none" opacity="0.28"></circle><circle r="5.5" cx="13" cy="143" stroke-width="2" stroke="hsl(110, 50%, 50%)" fill="none" opacity="0.58"></circle><circle r="3" cx="667" cy="490" stroke-width="2" stroke="hsl(102, 50%, 50%)" fill="none" opacity="0.54"></circle><circle r="6" cx="697" cy="452" stroke-width="2" stroke="hsl(112, 50%, 50%)" fill="none" opacity="0.12"></circle><circle r="10.5" cx="285" cy="675" stroke-width="2" stroke="hsl(246, 50%, 50%)" fill="none" opacity="0.66"></circle><circle r="6" cx="655" cy="442" stroke-width="2" stroke="hsl(100, 50%, 50%)" fill="none" opacity="0.95"></circle><circle r="11.5" cx="390" cy="285" stroke-width="2" stroke="hsl(238, 50%, 50%)" fill="none" opacity="0.92"></circle><circle r="9.5" cx="233" cy="701" stroke-width="2" stroke="hsl(228, 50%, 50%)" fill="none" opacity="0.22"></circle><circle r="8" cx="470" cy="535" stroke-width="2" stroke="hsl(201, 50%, 50%)" fill="none" opacity="0.45"></circle><circle r="7.5" cx="466" cy="59" stroke-width="2" stroke="hsl(108, 50%, 50%)" fill="none" opacity="0.93"></circle><circle r="13.5" cx="457" cy="398" stroke-width="2" stroke="hsl(210, 50%, 50%)" fill="none" opacity="0.18"></circle><circle r="12" cx="334" cy="629" stroke-width="2" stroke="hsl(250, 50%, 50%)" fill="none" opacity="0.16"></circle><circle r="7" cx="605" cy="346" stroke-width="2" stroke="hsl(106, 50%, 50%)" fill="none" opacity="0.63"></circle><circle r="10" cx="480" cy="435" stroke-width="2" stroke="hsl(193, 50%, 50%)" fill="none" opacity="0.40"></circle><circle r="6" cx="718" cy="762" stroke-width="2" stroke="hsl(128, 50%, 50%)" fill="none" opacity="0.36"></circle><circle r="11" cx="226" cy="454" stroke-width="2" stroke="hsl(228, 50%, 50%)" fill="none" opacity="0.84"></circle><circle r="8.5" cx="279" cy="525" stroke-width="2" stroke="hsl(246, 50%, 50%)" fill="none" opacity="0.31"></circle><circle r="7" cx="21" cy="92" stroke-width="2" stroke="hsl(117, 50%, 50%)" fill="none" opacity="0.85"></circle><circle r="8.5" cx="111" cy="670" stroke-width="2" stroke="hsl(152, 50%, 50%)" fill="none" opacity="0.77"></circle><circle r="8" cx="149" cy="643" stroke-width="2" stroke="hsl(174, 50%, 50%)" fill="none" opacity="0.71"></circle><circle r="11.5" cx="162" cy="491" stroke-width="2" stroke="hsl(182, 50%, 50%)" fill="none" opacity="0.84"></circle><circle r="9.5" cx="83" cy="119" stroke-width="2" stroke="hsl(121, 50%, 50%)" fill="none" opacity="0.73"></circle><circle r="5" cx="66" cy="438" stroke-width="2" stroke="hsl(138, 50%, 50%)" fill="none" opacity="0.26"></circle><circle r="6.5" cx="416" cy="17" stroke-width="2" stroke="hsl(126, 50%, 50%)" fill="none" opacity="0.53"></circle><circle r="12" cx="336" cy="567" stroke-width="2" stroke="hsl(250, 50%, 50%)" fill="none" opacity="0.42"></circle><circle r="8.5" cx="286" cy="265" stroke-width="2" stroke="hsl(246, 50%, 50%)" fill="none" opacity="0.11"></circle><circle r="7.5" cx="38" cy="584" stroke-width="2" stroke="hsl(133, 50%, 50%)" fill="none" opacity="0.84"></circle><circle r="11.5" cx="327" cy="741" stroke-width="2" stroke="hsl(250, 50%, 50%)" fill="none" opacity="0.65"></circle><circle r="10" cx="339" cy="273" stroke-width="2" stroke="hsl(249, 50%, 50%)" fill="none" opacity="0.13"></circle><circle r="14" cx="239" cy="128" stroke-width="2" stroke="hsl(213, 50%, 50%)" fill="none" opacity="0.58"></circle><circle r="5" cx="371" cy="123" stroke-width="2" stroke="hsl(206, 50%, 50%)" fill="none" opacity="0.44"></circle><circle r="11.5" cx="131" cy="294" stroke-width="2" stroke="hsl(166, 50%, 50%)" fill="none" opacity="0.73"></circle><circle r="7" cx="490" cy="749" stroke-width="2" stroke="hsl(183, 50%, 50%)" fill="none" opacity="0.30"></circle><circle r="4.5" cx="767" cy="442" stroke-width="2" stroke="hsl(169, 50%, 50%)" fill="none" opacity="0.83"></circle><circle r="5.5" cx="677" cy="310" stroke-width="2" stroke="hsl(107, 50%, 50%)" fill="none" opacity="0.58"></circle><circle r="10" cx="200" cy="474" stroke-width="2" stroke="hsl(206, 50%, 50%)" fill="none" opacity="0.31"></circle><circle r="8" cx="428" cy="744" stroke-width="2" stroke="hsl(223, 50%, 50%)" fill="none" opacity="0.43"></circle><circle r="8.5" cx="435" cy="685" stroke-width="2" stroke="hsl(223, 50%, 50%)" fill="none" opacity="0.93"></circle><circle r="8" cx="18" cy="739" stroke-width="2" stroke="hsl(134, 50%, 50%)" fill="none" opacity="0.22"></circle><circle r="10" cx="102" cy="711" stroke-width="2" stroke="hsl(152, 50%, 50%)" fill="none" opacity="0.63"></circle><circle r="8" cx="727" cy="157" stroke-width="2" stroke="hsl(110, 50%, 50%)" fill="none" opacity="0.56"></circle><circle r="8.5" cx="436" cy="617" stroke-width="2" stroke="hsl(223, 50%, 50%)" fill="none" opacity="0.74"></circle><circle r="10" cx="437" cy="539" stroke-width="2" stroke="hsl(223, 50%, 50%)" fill="none" opacity="0.90"></circle><circle r="10.5" cx="263" cy="165" stroke-width="2" stroke="hsl(238, 50%, 50%)" fill="none" opacity="0.41"></circle><circle r="7" cx="479" cy="103" stroke-width="2" stroke="hsl(136, 50%, 50%)" fill="none" opacity="0.17"></circle><circle r="9" cx="414" cy="147" stroke-width="2" stroke="hsl(202, 50%, 50%)" fill="none" opacity="0.97"></circle><circle r="5.5" cx="729" cy="446" stroke-width="2" stroke="hsl(137, 50%, 50%)" fill="none" opacity="1.00"></circle><circle r="7" cx="786" cy="433" stroke-width="2" stroke="hsl(180, 50%, 50%)" fill="none" opacity="0.42"></circle><circle r="6" cx="634" cy="273" stroke-width="2" stroke="hsl(100, 50%, 50%)" fill="none" opacity="0.92"></circle><circle r="10" cx="721" cy="546" stroke-width="2" stroke="hsl(128, 50%, 50%)" fill="none" opacity="0.18"></circle><circle r="14" cx="249" cy="316" stroke-width="2" stroke="hsl(234, 50%, 50%)" fill="none" opacity="0.31"></circle><circle r="4.5" cx="676" cy="512" stroke-width="2" stroke="hsl(107, 50%, 50%)" fill="none" opacity="0.11"></circle><circle r="7.5" cx="705" cy="691" stroke-width="2" stroke="hsl(119, 50%, 50%)" fill="none" opacity="0.32"></circle><circle r="9" cx="371" cy="639" stroke-width="2" stroke="hsl(245, 50%, 50%)" fill="none" opacity="0.10"></circle><circle r="5" cx="526" cy="31" stroke-width="2" stroke="hsl(74, 50%, 50%)" fill="none" opacity="0.83"></circle><circle r="7.5" cx="395" cy="761" stroke-width="2" stroke="hsl(238, 50%, 50%)" fill="none" opacity="0.27"></circle><circle r="5.5" cx="644" cy="568" stroke-width="2" stroke="hsl(99, 50%, 50%)" fill="none" opacity="0.19"></circle><circle r="8.5" cx="408" cy="102" stroke-width="2" stroke="hsl(178, 50%, 50%)" fill="none" opacity="0.53"></circle><circle r="13.5" cx="302" cy="710" stroke-width="2" stroke="hsl(250, 50%, 50%)" fill="none" opacity="0.31"></circle><circle r="14.5" cx="42" cy="42" stroke-width="2" stroke="hsl(149, 50%, 50%)" fill="none" opacity="0.55"></circle><circle r="9.5" cx="567" cy="754" stroke-width="2" stroke="hsl(125, 50%, 50%)" fill="none" opacity="0.99"></circle><circle r="7" cx="34" cy="382" stroke-width="2" stroke="hsl(133, 50%, 50%)" fill="none" opacity="0.17"></circle><circle r="8" cx="647" cy="695" stroke-width="2" stroke="hsl(99, 50%, 50%)" fill="none" opacity="0.60"></circle><circle r="8.5" cx="326" cy="787" stroke-width="2" stroke="hsl(250, 50%, 50%)" fill="none" opacity="0.52"></circle><circle r="13" cx="541" cy="703" stroke-width="2" stroke="hsl(143, 50%, 50%)" fill="none" opacity="0.73"></circle><circle r="7.5" cx="779" cy="668" stroke-width="2" stroke="hsl(180, 50%, 50%)" fill="none" opacity="0.97"></circle><circle r="13" cx="224" cy="743" stroke-width="2" stroke="hsl(221, 50%, 50%)" fill="none" opacity="0.94"></circle><circle r="7.5" cx="26" cy="779" stroke-width="2" stroke="hsl(133, 50%, 50%)" fill="none" opacity="0.21"></circle><circle r="9.5" cx="429" cy="255" stroke-width="2" stroke="hsl(223, 50%, 50%)" fill="none" opacity="0.11"></circle><circle r="5.5" cx="674" cy="352" stroke-width="2" stroke="hsl(102, 50%, 50%)" fill="none" opacity="0.50"></circle><circle r="13" cx="365" cy="477" stroke-width="2" stroke="hsl(245, 50%, 50%)" fill="none" opacity="0.94"></circle><circle r="11.5" cx="416" cy="644" stroke-width="2" stroke="hsl(229, 50%, 50%)" fill="none" opacity="0.93"></circle><circle r="13.5" cx="462" cy="241" stroke-width="2" stroke="hsl(210, 50%, 50%)" fill="none" opacity="0.31"></circle><circle r="8.5" cx="525" cy="227" stroke-width="2" stroke="hsl(153, 50%, 50%)" fill="none" opacity="0.63"></circle><circle r="5" cx="107" cy="195" stroke-width="2" stroke="hsl(152, 50%, 50%)" fill="none" opacity="0.67"></circle><circle r="7" cx="60" cy="500" stroke-width="2" stroke="hsl(135, 50%, 50%)" fill="none" opacity="0.65"></circle><circle r="8.5" cx="258" cy="257" stroke-width="2" stroke="hsl(239, 50%, 50%)" fill="none" opacity="0.53"></circle><circle r="11.5" cx="411" cy="564" stroke-width="2" stroke="hsl(234, 50%, 50%)" fill="none" opacity="0.16"></circle><circle r="3.5" cx="620" cy="14" stroke-width="2" stroke="hsl(71, 50%, 50%)" fill="none" opacity="0.36"></circle><circle r="7.5" cx="721" cy="204" stroke-width="2" stroke="hsl(128, 50%, 50%)" fill="none" opacity="0.13"></circle><circle r="12.5" cx="197" cy="640" stroke-width="2" stroke="hsl(206, 50%, 50%)" fill="none" opacity="0.29"></circle><circle r="7.5" cx="80" cy="180" stroke-width="2" stroke="hsl(135, 50%, 50%)" fill="none" opacity="0.53"></circle><circle r="11" cx="295" cy="557" stroke-width="2" stroke="hsl(249, 50%, 50%)" fill="none" opacity="0.53"></circle><circle r="8" cx="509" cy="168" stroke-width="2" stroke="hsl(162, 50%, 50%)" fill="none" opacity="0.89"></circle><circle r="6.5" cx="648" cy="612" stroke-width="2" stroke="hsl(99, 50%, 50%)" fill="none" opacity="0.88"></circle><circle r="11.5" cx="240" cy="628" stroke-width="2" stroke="hsl(234, 50%, 50%)" fill="none" opacity="0.40"></circle><circle r="10.5" cx="197" cy="712" stroke-width="2" stroke="hsl(206, 50%, 50%)" fill="none" opacity="0.49"></circle><circle r="10.5" cx="55" cy="658" stroke-width="2" stroke="hsl(135, 50%, 50%)" fill="none" opacity="0.96"></circle><circle r="12" cx="228" cy="184" stroke-width="2" stroke="hsl(225, 50%, 50%)" fill="none" opacity="0.84"></circle><circle r="11.5" cx="360" cy="748" stroke-width="2" stroke="hsl(247, 50%, 50%)" fill="none" opacity="0.58"></circle><circle r="12" cx="101" cy="26" stroke-width="2" stroke="hsl(163, 50%, 50%)" fill="none" opacity="0.27"></circle><circle r="6" cx="632" cy="51" stroke-width="2" stroke="hsl(68, 50%, 50%)" fill="none" opacity="0.30"></circle><circle r="6" cx="732" cy="18" stroke-width="2" stroke="hsl(102, 50%, 50%)" fill="none" opacity="0.69"></circle><circle r="10" cx="153" cy="141" stroke-width="2" stroke="hsl(165, 50%, 50%)" fill="none" opacity="0.78"></circle><circle r="7.5" cx="743" cy="680" stroke-width="2" stroke="hsl(147, 50%, 50%)" fill="none" opacity="0.41"></circle><circle r="6.5" cx="391" cy="42" stroke-width="2" stroke="hsl(147, 50%, 50%)" fill="none" opacity="0.60"></circle><circle r="12.5" cx="347" cy="701" stroke-width="2" stroke="hsl(249, 50%, 50%)" fill="none" opacity="0.63"></circle><circle r="6.5" cx="652" cy="749" stroke-width="2" stroke="hsl(100, 50%, 50%)" fill="none" opacity="0.51"></circle><circle r="8" cx="72" cy="780" stroke-width="2" stroke="hsl(138, 50%, 50%)" fill="none" opacity="0.48"></circle><circle r="13" cx="396" cy="680" stroke-width="2" stroke="hsl(238, 50%, 50%)" fill="none" opacity="0.92"></circle><circle r="9.5" cx="381" cy="715" stroke-width="2" stroke="hsl(242, 50%, 50%)" fill="none" opacity="0.59"></circle><circle r="4.5" cx="787" cy="44" stroke-width="2" stroke="hsl(116, 50%, 50%)" fill="none" opacity="0.83"></circle><circle r="5.5" cx="60" cy="410" stroke-width="2" stroke="hsl(135, 50%, 50%)" fill="none" opacity="0.74"></circle><circle r="5.5" cx="745" cy="595" stroke-width="2" stroke="hsl(147, 50%, 50%)" fill="none" opacity="0.24"></circle><circle r="4.5" cx="601" cy="787" stroke-width="2" stroke="hsl(106, 50%, 50%)" fill="none" opacity="0.91"></circle><circle r="12.5" cx="327" cy="179" stroke-width="2" stroke="hsl(248, 50%, 50%)" fill="none" opacity="0.56"></circle><circle r="13" cx="313" cy="422" stroke-width="2" stroke="hsl(250, 50%, 50%)" fill="none" opacity="0.29"></circle><circle r="7.5" cx="516" cy="112" stroke-width="2" stroke="hsl(113, 50%, 50%)" fill="none" opacity="0.18"></circle><circle r="6.5" cx="788" cy="222" stroke-width="2" stroke="hsl(190, 50%, 50%)" fill="none" opacity="0.19"></circle><circle r="6.5" cx="780" cy="271" stroke-width="2" stroke="hsl(180, 50%, 50%)" fill="none" opacity="0.45"></circle><circle r="5.5" cx="631" cy="469" stroke-width="2" stroke="hsl(100, 50%, 50%)" fill="none" opacity="0.15"></circle><circle r="15.5" cx="412" cy="379" stroke-width="2" stroke="hsl(234, 50%, 50%)" fill="none" opacity="0.98"></circle><circle r="7" cx="263" cy="223" stroke-width="2" stroke="hsl(243, 50%, 50%)" fill="none" opacity="0.15"></circle><circle r="8" cx="763" cy="745" stroke-width="2" stroke="hsl(169, 50%, 50%)" fill="none" opacity="0.27"></circle><circle r="10" cx="359" cy="668" stroke-width="2" stroke="hsl(247, 50%, 50%)" fill="none" opacity="0.85"></circle><circle r="14.5" cx="252" cy="362" stroke-width="2" stroke="hsl(239, 50%, 50%)" fill="none" opacity="0.70"></circle><circle r="3" cx="127" cy="196" stroke-width="2" stroke="hsl(166, 50%, 50%)" fill="none" opacity="0.27"></circle><circle r="15" cx="272" cy="468" stroke-width="2" stroke="hsl(243, 50%, 50%)" fill="none" opacity="0.56"></circle><circle r="5" cx="564" cy="92" stroke-width="2" stroke="hsl(82, 50%, 50%)" fill="none" opacity="0.16"></circle><circle r="11" cx="92" cy="621" stroke-width="2" stroke="hsl(146, 50%, 50%)" fill="none" opacity="0.53"></circle><circle r="7" cx="560" cy="290" stroke-width="2" stroke="hsl(134, 50%, 50%)" fill="none" opacity="0.91"></circle><circle r="12.5" cx="407" cy="487" stroke-width="2" stroke="hsl(234, 50%, 50%)" fill="none" opacity="0.63"></circle><circle r="10" cx="106" cy="407" stroke-width="2" stroke="hsl(152, 50%, 50%)" fill="none" opacity="0.77"></circle><circle r="6.5" cx="595" cy="655" stroke-width="2" stroke="hsl(111, 50%, 50%)" fill="none" opacity="0.13"></circle><circle r="5.5" cx="519" cy="68" stroke-width="2" stroke="hsl(91, 50%, 50%)" fill="none" opacity="0.58"></circle><circle r="12" cx="157" cy="32" stroke-width="2" stroke="hsl(170, 50%, 50%)" fill="none" opacity="0.74"></circle><circle r="8.5" cx="476" cy="147" stroke-width="2" stroke="hsl(165, 50%, 50%)" fill="none" opacity="1.00"></circle><circle r="6.5" cx="67" cy="367" stroke-width="2" stroke="hsl(138, 50%, 50%)" fill="none" opacity="0.36"></circle><circle r="6" cx="349" cy="70" stroke-width="2" stroke="hsl(183, 50%, 50%)" fill="none" opacity="0.16"></circle><circle r="8" cx="21" cy="688" stroke-width="2" stroke="hsl(134, 50%, 50%)" fill="none" opacity="0.87"></circle><circle r="10" cx="468" cy="194" stroke-width="2" stroke="hsl(201, 50%, 50%)" fill="none" opacity="0.27"></circle><circle r="5.5" cx="586" cy="406" stroke-width="2" stroke="hsl(118, 50%, 50%)" fill="none" opacity="0.18"></circle><circle r="6.5" cx="12" cy="553" stroke-width="2" stroke="hsl(135, 50%, 50%)" fill="none" opacity="0.17"></circle><circle r="11.5" cx="289" cy="629" stroke-width="2" stroke="hsl(249, 50%, 50%)" fill="none" opacity="0.80"></circle><circle r="4" cx="665" cy="142" stroke-width="2" stroke="hsl(78, 50%, 50%)" fill="none" opacity="0.32"></circle><circle r="9" cx="715" cy="350" stroke-width="2" stroke="hsl(128, 50%, 50%)" fill="none" opacity="0.17"></circle><circle r="5.5" cx="185" cy="212" stroke-width="2" stroke="hsl(198, 50%, 50%)" fill="none" opacity="0.19"></circle><circle r="5" cx="407" cy="742" stroke-width="2" stroke="hsl(234, 50%, 50%)" fill="none" opacity="0.30"></circle><circle r="12" cx="301" cy="504" stroke-width="2" stroke="hsl(250, 50%, 50%)" fill="none" opacity="0.67"></circle><circle r="10.5" cx="319" cy="135" stroke-width="2" stroke="hsl(227, 50%, 50%)" fill="none" opacity="0.44"></circle><circle r="8" cx="457" cy="706" stroke-width="2" stroke="hsl(210, 50%, 50%)" fill="none" opacity="0.37"></circle><circle r="8.5" cx="351" cy="401" stroke-width="2" stroke="hsl(247, 50%, 50%)" fill="none" opacity="0.65"></circle><circle r="8.5" cx="124" cy="583" stroke-width="2" stroke="hsl(158, 50%, 50%)" fill="none" opacity="0.97"></circle><circle r="9.5" cx="520" cy="268" stroke-width="2" stroke="hsl(163, 50%, 50%)" fill="none" opacity="0.27"></circle><circle r="6" cx="583" cy="596" stroke-width="2" stroke="hsl(118, 50%, 50%)" fill="none" opacity="0.97"></circle><circle r="4.5" cx="640" cy="362" stroke-width="2" stroke="hsl(99, 50%, 50%)" fill="none" opacity="0.79"></circle><circle r="10.5" cx="291" cy="296" stroke-width="2" stroke="hsl(249, 50%, 50%)" fill="none" opacity="0.56"></circle><circle r="8" cx="32" cy="255" stroke-width="2" stroke="hsl(133, 50%, 50%)" fill="none" opacity="0.70"></circle><circle r="11" cx="778" cy="598" stroke-width="2" stroke="hsl(180, 50%, 50%)" fill="none" opacity="0.30"></circle><circle r="6" cx="610" cy="492" stroke-width="2" stroke="hsl(106, 50%, 50%)" fill="none" opacity="0.57"></circle><circle r="11.5" cx="446" cy="585" stroke-width="2" stroke="hsl(217, 50%, 50%)" fill="none" opacity="0.51"></circle><circle r="6" cx="642" cy="321" stroke-width="2" stroke="hsl(99, 50%, 50%)" fill="none" opacity="0.37"></circle><circle r="7" cx="108" cy="323" stroke-width="2" stroke="hsl(152, 50%, 50%)" fill="none" opacity="0.92"></circle><circle r="10" cx="292" cy="176" stroke-width="2" stroke="hsl(247, 50%, 50%)" fill="none" opacity="0.60"></circle><circle r="7.5" cx="540" cy="351" stroke-width="2" stroke="hsl(143, 50%, 50%)" fill="none" opacity="0.42"></circle><circle r="5" cx="649" cy="523" stroke-width="2" stroke="hsl(99, 50%, 50%)" fill="none" opacity="0.28"></circle><circle r="10.5" cx="397" cy="192" stroke-width="2" stroke="hsl(238, 50%, 50%)" fill="none" opacity="0.37"></circle><circle r="11" cx="225" cy="257" stroke-width="2" stroke="hsl(228, 50%, 50%)" fill="none" opacity="0.95"></circle><circle r="8.5" cx="530" cy="436" stroke-width="2" stroke="hsl(153, 50%, 50%)" fill="none" opacity="0.85"></circle><circle r="6.5" cx="89" cy="462" stroke-width="2" stroke="hsl(146, 50%, 50%)" fill="none" opacity="0.25"></circle><circle r="7.5" cx="422" cy="60" stroke-width="2" stroke="hsl(136, 50%, 50%)" fill="none" opacity="0.63"></circle><circle r="3.5" cx="711" cy="790" stroke-width="2" stroke="hsl(119, 50%, 50%)" fill="none" opacity="0.74"></circle><circle r="9.5" cx="84" cy="229" stroke-width="2" stroke="hsl(141, 50%, 50%)" fill="none" opacity="0.30"></circle><circle r="12" cx="186" cy="86" stroke-width="2" stroke="hsl(168, 50%, 50%)" fill="none" opacity="0.48"></circle><circle r="10" cx="756" cy="508" stroke-width="2" stroke="hsl(158, 50%, 50%)" fill="none" opacity="0.77"></circle><circle r="8" cx="784" cy="303" stroke-width="2" stroke="hsl(180, 50%, 50%)" fill="none" opacity="0.67"></circle><circle r="6.5" cx="352" cy="107" stroke-width="2" stroke="hsl(201, 50%, 50%)" fill="none" opacity="0.39"></circle><circle r="6.5" cx="613" cy="546" stroke-width="2" stroke="hsl(102, 50%, 50%)" fill="none" opacity="0.17"></circle><circle r="5" cx="39" cy="454" stroke-width="2" stroke="hsl(133, 50%, 50%)" fill="none" opacity="0.28"></circle><circle r="6.5" cx="414" cy="776" stroke-width="2" stroke="hsl(229, 50%, 50%)" fill="none" opacity="0.84"></circle><circle r="14.5" cx="374" cy="425" stroke-width="2" stroke="hsl(245, 50%, 50%)" fill="none" opacity="0.83"></circle><circle r="15" cx="185" cy="286" stroke-width="2" stroke="hsl(198, 50%, 50%)" fill="none" opacity="0.83"></circle><circle r="7" cx="700" cy="240" stroke-width="2" stroke="hsl(119, 50%, 50%)" fill="none" opacity="0.69"></circle><circle r="7" cx="500" cy="208" stroke-width="2" stroke="hsl(183, 50%, 50%)" fill="none" opacity="0.23"></circle><circle r="14" cx="224" cy="514" stroke-width="2" stroke="hsl(221, 50%, 50%)" fill="none" opacity="0.29"></circle><circle r="7" cx="540" cy="154" stroke-width="2" stroke="hsl(126, 50%, 50%)" fill="none" opacity="0.50"></circle><circle r="9.5" cx="232" cy="668" stroke-width="2" stroke="hsl(228, 50%, 50%)" fill="none" opacity="0.45"></circle><circle r="8.5" cx="673" cy="650" stroke-width="2" stroke="hsl(102, 50%, 50%)" fill="none" opacity="0.97"></circle><circle r="9" cx="564" cy="197" stroke-width="2" stroke="hsl(125, 50%, 50%)" fill="none" opacity="0.18"></circle><circle r="12" cx="298" cy="594" stroke-width="2" stroke="hsl(249, 50%, 50%)" fill="none" opacity="0.83"></circle><circle r="7.5" cx="447" cy="659" stroke-width="2" stroke="hsl(217, 50%, 50%)" fill="none" opacity="0.47"></circle><circle r="11.5" cx="368" cy="246" stroke-width="2" stroke="hsl(245, 50%, 50%)" fill="none" opacity="0.45"></circle><circle r="10.5" cx="260" cy="783" stroke-width="2" stroke="hsl(239, 50%, 50%)" fill="none" opacity="0.24"></circle><circle r="3.5" cx="625" cy="398" stroke-width="2" stroke="hsl(102, 50%, 50%)" fill="none" opacity="0.91"></circle><circle r="5.5" cx="675" cy="21" stroke-width="2" stroke="hsl(84, 50%, 50%)" fill="none" opacity="0.68"></circle><circle r="5.5" cx="675" cy="547" stroke-width="2" stroke="hsl(107, 50%, 50%)" fill="none" opacity="0.59"></circle><circle r="9" cx="61" cy="727" stroke-width="2" stroke="hsl(135, 50%, 50%)" fill="none" opacity="1.00"></circle><circle r="9.5" cx="138" cy="248" stroke-width="2" stroke="hsl(174, 50%, 50%)" fill="none" opacity="0.27"></circle><circle r="8.5" cx="496" cy="717" stroke-width="2" stroke="hsl(183, 50%, 50%)" fill="none" opacity="0.70"></circle><circle r="7.5" cx="621" cy="221" stroke-width="2" stroke="hsl(102, 50%, 50%)" fill="none" opacity="0.28"></circle><circle r="11.5" cx="215" cy="403" stroke-width="2" stroke="hsl(221, 50%, 50%)" fill="none" opacity="0.78"></circle><circle r="9" cx="537" cy="491" stroke-width="2" stroke="hsl(153, 50%, 50%)" fill="none" opacity="0.82"></circle><circle r="12.5" cx="124" cy="83" stroke-width="2" stroke="hsl(142, 50%, 50%)" fill="none" opacity="0.57"></circle><circle r="10.5" cx="251" cy="25" stroke-width="2" stroke="hsl(192, 50%, 50%)" fill="none" opacity="0.15"></circle><circle r="4.5" cx="693" cy="54" stroke-width="2" stroke="hsl(80, 50%, 50%)" fill="none" opacity="0.88"></circle><circle r="9.5" cx="453" cy="775" stroke-width="2" stroke="hsl(210, 50%, 50%)" fill="none" opacity="0.58"></circle><circle r="12" cx="362" cy="196" stroke-width="2" stroke="hsl(247, 50%, 50%)" fill="none" opacity="0.95"></circle><circle r="5.5" cx="756" cy="39" stroke-width="2" stroke="hsl(105, 50%, 50%)" fill="none" opacity="0.81"></circle><circle r="12" cx="316" cy="664" stroke-width="2" stroke="hsl(250, 50%, 50%)" fill="none" opacity="0.58"></circle><circle r="14.5" cx="451" cy="295" stroke-width="2" stroke="hsl(210, 50%, 50%)" fill="none" opacity="0.21"></circle><circle r="12.5" cx="208" cy="32" stroke-width="2" stroke="hsl(182, 50%, 50%)" fill="none" opacity="0.80"></circle><circle r="14" cx="271" cy="741" stroke-width="2" stroke="hsl(243, 50%, 50%)" fill="none" opacity="0.15"></circle><circle r="5.5" cx="617" cy="112" stroke-width="2" stroke="hsl(71, 50%, 50%)" fill="none" opacity="0.83"></circle><circle r="7.5" cx="504" cy="593" stroke-width="2" stroke="hsl(173, 50%, 50%)" fill="none" opacity="0.12"></circle><circle r="12" cx="503" cy="386" stroke-width="2" stroke="hsl(173, 50%, 50%)" fill="none" opacity="0.69"></circle><circle r="7" cx="445" cy="141" stroke-width="2" stroke="hsl(189, 50%, 50%)" fill="none" opacity="0.50"></circle><circle r="7.5" cx="116" cy="149" stroke-width="2" stroke="hsl(141, 50%, 50%)" fill="none" opacity="0.28"></circle><circle r="8" cx="205" cy="226" stroke-width="2" stroke="hsl(214, 50%, 50%)" fill="none" opacity="0.91"></circle><circle r="4.5" cx="561" cy="124" stroke-width="2" stroke="hsl(98, 50%, 50%)" fill="none" opacity="0.15"></circle><circle r="6" cx="685" cy="588" stroke-width="2" stroke="hsl(107, 50%, 50%)" fill="none" opacity="0.20"></circle><circle r="5.5" cx="17" cy="465" stroke-width="2" stroke="hsl(134, 50%, 50%)" fill="none" opacity="0.74"></circle><circle r="7.5" cx="785" cy="481" stroke-width="2" stroke="hsl(180, 50%, 50%)" fill="none" opacity="0.20"></circle><circle r="6" cx="459" cy="19" stroke-width="2" stroke="hsl(102, 50%, 50%)" fill="none" opacity="0.45"></circle><circle r="9.5" cx="188" cy="172" stroke-width="2" stroke="hsl(199, 50%, 50%)" fill="none" opacity="0.54"></circle><circle r="10" cx="325" cy="304" stroke-width="2" stroke="hsl(250, 50%, 50%)" fill="none" opacity="0.71"></circle><circle r="6" cx="587" cy="154" stroke-width="2" stroke="hsl(101, 50%, 50%)" fill="none" opacity="0.31"></circle><circle r="6.5" cx="13" cy="222" stroke-width="2" stroke="hsl(134, 50%, 50%)" fill="none" opacity="0.44"></circle><circle r="11.5" cx="167" cy="680" stroke-width="2" stroke="hsl(190, 50%, 50%)" fill="none" opacity="0.56"></circle><circle r="13" cx="251" cy="552" stroke-width="2" stroke="hsl(239, 50%, 50%)" fill="none" opacity="0.69"></circle><circle r="6.5" cx="143" cy="614" stroke-width="2" stroke="hsl(174, 50%, 50%)" fill="none" opacity="0.53"></circle><circle r="5.5" cx="31" cy="426" stroke-width="2" stroke="hsl(133, 50%, 50%)" fill="none" opacity="0.41"></circle><circle r="5" cx="615" cy="605" stroke-width="2" stroke="hsl(102, 50%, 50%)" fill="none" opacity="0.27"></circle><circle r="8.5" cx="455" cy="736" stroke-width="2" stroke="hsl(210, 50%, 50%)" fill="none" opacity="0.81"></circle><circle r="6" cx="577" cy="325" stroke-width="2" stroke="hsl(118, 50%, 50%)" fill="none" opacity="0.53"></circle><circle r="8" cx="479" cy="606" stroke-width="2" stroke="hsl(193, 50%, 50%)" fill="none" opacity="0.78"></circle><circle r="8" cx="523" cy="631" stroke-width="2" stroke="hsl(163, 50%, 50%)" fill="none" opacity="0.36"></circle><circle r="6.5" cx="570" cy="442" stroke-width="2" stroke="hsl(125, 50%, 50%)" fill="none" opacity="0.74"></circle><circle r="6" cx="71" cy="554" stroke-width="2" stroke="hsl(138, 50%, 50%)" fill="none" opacity="0.48"></circle><circle r="7" cx="389" cy="137" stroke-width="2" stroke="hsl(204, 50%, 50%)" fill="none" opacity="0.41"></circle><circle r="10.5" cx="355" cy="595" stroke-width="2" stroke="hsl(247, 50%, 50%)" fill="none" opacity="0.26"></circle><circle r="6.5" cx="675" cy="780" stroke-width="2" stroke="hsl(102, 50%, 50%)" fill="none" opacity="0.63"></circle><circle r="5" cx="128" cy="219" stroke-width="2" stroke="hsl(166, 50%, 50%)" fill="none" opacity="0.90"></circle><circle r="7" cx="737" cy="247" stroke-width="2" stroke="hsl(137, 50%, 50%)" fill="none" opacity="0.12"></circle><circle r="12" cx="339" cy="522" stroke-width="2" stroke="hsl(249, 50%, 50%)" fill="none" opacity="0.26"></circle><circle r="12.5" cx="452" cy="492" stroke-width="2" stroke="hsl(210, 50%, 50%)" fill="none" opacity="0.58"></circle><circle r="9" cx="504" cy="532" stroke-width="2" stroke="hsl(173, 50%, 50%)" fill="none" opacity="0.88"></circle><circle r="13.5" cx="154" cy="728" stroke-width="2" stroke="hsl(182, 50%, 50%)" fill="none" opacity="0.68"></circle><circle r="5.5" cx="44" cy="535" stroke-width="2" stroke="hsl(133, 50%, 50%)" fill="none" opacity="0.78"></circle><circle r="7" cx="257" cy="202" stroke-width="2" stroke="hsl(239, 50%, 50%)" fill="none" opacity="0.79"></circle><circle r="7.5" cx="556" cy="384" stroke-width="2" stroke="hsl(134, 50%, 50%)" fill="none" opacity="0.16"></circle><circle r="11.5" cx="280" cy="404" stroke-width="2" stroke="hsl(246, 50%, 50%)" fill="none" opacity="0.17"></circle><circle r="5.5" cx="688" cy="388" stroke-width="2" stroke="hsl(112, 50%, 50%)" fill="none" opacity="0.97"></circle><circle r="8.5" cx="779" cy="141" stroke-width="2" stroke="hsl(140, 50%, 50%)" fill="none" opacity="0.98"></circle><circle r="6" cx="140" cy="184" stroke-width="2" stroke="hsl(169, 50%, 50%)" fill="none" opacity="0.49"></circle><circle r="9" cx="580" cy="244" stroke-width="2" stroke="hsl(118, 50%, 50%)" fill="none" opacity="0.90"></circle><circle r="10.5" cx="68" cy="281" stroke-width="2" stroke="hsl(138, 50%, 50%)" fill="none" opacity="0.75"></circle><circle r="4.5" cx="430" cy="792" stroke-width="2" stroke="hsl(223, 50%, 50%)" fill="none" opacity="0.85"></circle></svg>