<svg xmlns="http://www.w3.org/2000/svg" version="1.1" xmlns:xlink="http://www.w3.org/1999/xlink" xmlns:svgjs="http://svgjs.dev/svgjs" viewBox="0 0 2400 800" opacity="0.73"><defs><linearGradient x1="50%" y1="0%" x2="50%" y2="100%" id="sssurf-grad"><stop stop-color="hsl(206, 75%, 49%)" stop-opacity="1" offset="0%"></stop><stop stop-color="hsl(331, 90%, 56%)" stop-opacity="1" offset="100%"></stop></linearGradient></defs><g fill="url(#sssurf-grad)" transform="matrix(1,0,0,1,10.8282470703125,224.1335906982422)"><path d="M-10,10C33.75,13.75,114.58333333333334,63.208333333333336,200,28C285.41666666666663,-7.208333333333336,316.66666666666663,-198.16666666666666,400,-159C483.33333333333337,-119.83333333333334,516.6666666666666,193.5,600,216C683.3333333333334,238.5,716.6666666666666,-40.375,800,-51C883.3333333333334,-61.625,916.6666666666666,158.75,1000,165C1083.3333333333333,171.25,1116.6666666666667,-14.958333333333334,1200,-21C1283.3333333333333,-27.041666666666664,1316.6666666666667,151.625,1400,136C1483.3333333333333,120.375,1516.6666666666667,-86.41666666666667,1600,-96C1683.3333333333333,-105.58333333333333,1716.6666666666667,92.70833333333333,1800,90C1883.3333333333333,87.29166666666667,1916.6666666666667,-127.95833333333333,2000,-109C2083.3333333333335,-90.04166666666667,2118.75,156.20833333333334,2200,181C2281.25,205.79166666666666,2296.25,-35.625,2390,10C2483.75,55.625,3252.0833333333335,214.58333333333331,2650,400C2047.9166666666665,585.4166666666667,156.25,795.8333333333334,-500,900" transform="matrix(1,0,0,1,0,52)" opacity="0.05"></path><path d="M-10,10C33.75,13.75,114.58333333333334,63.208333333333336,200,28C285.41666666666663,-7.208333333333336,316.66666666666663,-198.16666666666666,400,-159C483.33333333333337,-119.83333333333334,516.6666666666666,193.5,600,216C683.3333333333334,238.5,716.6666666666666,-40.375,800,-51C883.3333333333334,-61.625,916.6666666666666,158.75,1000,165C1083.3333333333333,171.25,1116.6666666666667,-14.958333333333334,1200,-21C1283.3333333333333,-27.041666666666664,1316.6666666666667,151.625,1400,136C1483.3333333333333,120.375,1516.6666666666667,-86.41666666666667,1600,-96C1683.3333333333333,-105.58333333333333,1716.6666666666667,92.70833333333333,1800,90C1883.3333333333333,87.29166666666667,1916.6666666666667,-127.95833333333333,2000,-109C2083.3333333333335,-90.04166666666667,2118.75,156.20833333333334,2200,181C2281.25,205.79166666666666,2296.25,-35.625,2390,10C2483.75,55.625,3252.0833333333335,214.58333333333331,2650,400C2047.9166666666665,585.4166666666667,156.25,795.8333333333334,-500,900" transform="matrix(1,0,0,1,0,104)" opacity="0.21"></path><path d="M-10,10C33.75,13.75,114.58333333333334,63.208333333333336,200,28C285.41666666666663,-7.208333333333336,316.66666666666663,-198.16666666666666,400,-159C483.33333333333337,-119.83333333333334,516.6666666666666,193.5,600,216C683.3333333333334,238.5,716.6666666666666,-40.375,800,-51C883.3333333333334,-61.625,916.6666666666666,158.75,1000,165C1083.3333333333333,171.25,1116.6666666666667,-14.958333333333334,1200,-21C1283.3333333333333,-27.041666666666664,1316.6666666666667,151.625,1400,136C1483.3333333333333,120.375,1516.6666666666667,-86.41666666666667,1600,-96C1683.3333333333333,-105.58333333333333,1716.6666666666667,92.70833333333333,1800,90C1883.3333333333333,87.29166666666667,1916.6666666666667,-127.95833333333333,2000,-109C2083.3333333333335,-90.04166666666667,2118.75,156.20833333333334,2200,181C2281.25,205.79166666666666,2296.25,-35.625,2390,10C2483.75,55.625,3252.0833333333335,214.58333333333331,2650,400C2047.9166666666665,585.4166666666667,156.25,795.8333333333334,-500,900" transform="matrix(1,0,0,1,0,156)" opacity="0.37"></path><path d="M-10,10C33.75,13.75,114.58333333333334,63.208333333333336,200,28C285.41666666666663,-7.208333333333336,316.66666666666663,-198.16666666666666,400,-159C483.33333333333337,-119.83333333333334,516.6666666666666,193.5,600,216C683.3333333333334,238.5,716.6666666666666,-40.375,800,-51C883.3333333333334,-61.625,916.6666666666666,158.75,1000,165C1083.3333333333333,171.25,1116.6666666666667,-14.958333333333334,1200,-21C1283.3333333333333,-27.041666666666664,1316.6666666666667,151.625,1400,136C1483.3333333333333,120.375,1516.6666666666667,-86.41666666666667,1600,-96C1683.3333333333333,-105.58333333333333,1716.6666666666667,92.70833333333333,1800,90C1883.3333333333333,87.29166666666667,1916.6666666666667,-127.95833333333333,2000,-109C2083.3333333333335,-90.04166666666667,2118.75,156.20833333333334,2200,181C2281.25,205.79166666666666,2296.25,-35.625,2390,10C2483.75,55.625,3252.0833333333335,214.58333333333331,2650,400C2047.9166666666665,585.4166666666667,156.25,795.8333333333334,-500,900" transform="matrix(1,0,0,1,0,208)" opacity="0.53"></path><path d="M-10,10C33.75,13.75,114.58333333333334,63.208333333333336,200,28C285.41666666666663,-7.208333333333336,316.66666666666663,-198.16666666666666,400,-159C483.33333333333337,-119.83333333333334,516.6666666666666,193.5,600,216C683.3333333333334,238.5,716.6666666666666,-40.375,800,-51C883.3333333333334,-61.625,916.6666666666666,158.75,1000,165C1083.3333333333333,171.25,1116.6666666666667,-14.958333333333334,1200,-21C1283.3333333333333,-27.041666666666664,1316.6666666666667,151.625,1400,136C1483.3333333333333,120.375,1516.6666666666667,-86.41666666666667,1600,-96C1683.3333333333333,-105.58333333333333,1716.6666666666667,92.70833333333333,1800,90C1883.3333333333333,87.29166666666667,1916.6666666666667,-127.95833333333333,2000,-109C2083.3333333333335,-90.04166666666667,2118.75,156.20833333333334,2200,181C2281.25,205.79166666666666,2296.25,-35.625,2390,10C2483.75,55.625,3252.0833333333335,214.58333333333331,2650,400C2047.9166666666665,585.4166666666667,156.25,795.8333333333334,-500,900" transform="matrix(1,0,0,1,0,260)" opacity="0.68"></path><path d="M-10,10C33.75,13.75,114.58333333333334,63.208333333333336,200,28C285.41666666666663,-7.208333333333336,316.66666666666663,-198.16666666666666,400,-159C483.33333333333337,-119.83333333333334,516.6666666666666,193.5,600,216C683.3333333333334,238.5,716.6666666666666,-40.375,800,-51C883.3333333333334,-61.625,916.6666666666666,158.75,1000,165C1083.3333333333333,171.25,1116.6666666666667,-14.958333333333334,1200,-21C1283.3333333333333,-27.041666666666664,1316.6666666666667,151.625,1400,136C1483.3333333333333,120.375,1516.6666666666667,-86.41666666666667,1600,-96C1683.3333333333333,-105.58333333333333,1716.6666666666667,92.70833333333333,1800,90C1883.3333333333333,87.29166666666667,1916.6666666666667,-127.95833333333333,2000,-109C2083.3333333333335,-90.04166666666667,2118.75,156.20833333333334,2200,181C2281.25,205.79166666666666,2296.25,-35.625,2390,10C2483.75,55.625,3252.0833333333335,214.58333333333331,2650,400C2047.9166666666665,585.4166666666667,156.25,795.8333333333334,-500,900" transform="matrix(1,0,0,1,0,312)" opacity="0.84"></path><path d="M-10,10C33.75,13.75,114.58333333333334,63.208333333333336,200,28C285.41666666666663,-7.208333333333336,316.66666666666663,-198.16666666666666,400,-159C483.33333333333337,-119.83333333333334,516.6666666666666,193.5,600,216C683.3333333333334,238.5,716.6666666666666,-40.375,800,-51C883.3333333333334,-61.625,916.6666666666666,158.75,1000,165C1083.3333333333333,171.25,1116.6666666666667,-14.958333333333334,1200,-21C1283.3333333333333,-27.041666666666664,1316.6666666666667,151.625,1400,136C1483.3333333333333,120.375,1516.6666666666667,-86.41666666666667,1600,-96C1683.3333333333333,-105.58333333333333,1716.6666666666667,92.70833333333333,1800,90C1883.3333333333333,87.29166666666667,1916.6666666666667,-127.95833333333333,2000,-109C2083.3333333333335,-90.04166666666667,2118.75,156.20833333333334,2200,181C2281.25,205.79166666666666,2296.25,-35.625,2390,10C2483.75,55.625,3252.0833333333335,214.58333333333331,2650,400C2047.9166666666665,585.4166666666667,156.25,795.8333333333334,-500,900" transform="matrix(1,0,0,1,0,364)" opacity="1.00"></path></g></svg>